  0
SECTION
  2
HEADER
  9
$ACADVER
  1
AC1032
  9
$ACADMAINTVER
 90
       55
  9
$DWGCODEPAGE
  3
ANSI_1252
  9
$LASTSAVEDBY
  1
user
  9
$REQUIREDVERSIONS
160
                 0
  9
$INSBASE
 10
0.0
 20
0.0
 30
0.0
  9
$EXTMIN
 10
-36.9776226448
 20
-36.9776226448
 30
0.0
  9
$EXTMAX
 10
36.9776226448
 20
36.9776226448
 30
0.0
  9
$LIMMIN
 10
0.0
 20
0.0
  9
$LIMMAX
 10
420.0
 20
297.0
  9
$ORTHOMODE
 70
     0
  9
$REGENMODE
 70
     1
  9
$FILLMODE
 70
     1
  9
$QTEXTMODE
 70
     0
  9
$MIRRTEXT
 70
     1
  9
$LTSCALE
 40
1.0
  9
$ATTMODE
 70
     1
  9
$TEXTSIZE
 40
6.35
  9
$TRACEWID
 40
1.0
  9
$TEXTSTYLE
  7
STANDARD
  9
$CLAYER
  8
0
  9
$CELTYPE
  6
ByLayer
  9
$CECOLOR
 62
   256
  9
$CELTSCALE
 40
1.0
  9
$DISPSILH
 70
     0
  9
$DIMSCALE
 40
1.0
  9
$DIMASZ
 40
6.0
  9
$DIMEXO
 40
0.0
  9
$DIMDLI
 40
3.75
  9
$DIMRND
 40
0.0
  9
$DIMDLE
 40
0.0
  9
$DIMEXE
 40
1.0
  9
$DIMTP
 40
0.0
  9
$DIMTM
 40
0.0
  9
$DIMTXT
 40
6.35
  9
$DIMCEN
 40
2.5
  9
$DIMTSZ
 40
0.0
  9
$DIMTOL
 70
     0
  9
$DIMLIM
 70
     0
  9
$DIMTIH
 70
     1
  9
$DIMTOH
 70
     1
  9
$DIMSE1
 70
     0
  9
$DIMSE2
 70
     0
  9
$DIMTAD
 70
     1
  9
$DIMZIN
 70
     0
  9
$DIMBLK
  1

  9
$DIMASO
 70
     1
  9
$DIMSHO
 70
     1
  9
$DIMPOST
  1

  9
$DIMAPOST
  1

  9
$DIMALT
 70
     0
  9
$DIMALTD
 70
     3
  9
$DIMALTF
 40
0.0393700787
  9
$DIMLFAC
 40
1.0
  9
$DIMTOFL
 70
     1
  9
$DIMTVP
 40
0.0
  9
$DIMTIX
 70
     0
  9
$DIMSOXD
 70
     0
  9
$DIMSAH
 70
     0
  9
$DIMBLK1
  1

  9
$DIMBLK2
  1

  9
$DIMSTYLE
  2
ISO-25
  9
$DIMCLRD
 70
     0
  9
$DIMCLRE
 70
     0
  9
$DIMCLRT
 70
     0
  9
$DIMTFAC
 40
1.0
  9
$DIMGAP
 40
1.524
  9
$DIMJUST
 70
     0
  9
$DIMSD1
 70
     0
  9
$DIMSD2
 70
     0
  9
$DIMTOLJ
 70
     0
  9
$DIMTZIN
 70
     0
  9
$DIMALTZ
 70
     0
  9
$DIMALTTZ
 70
     0
  9
$DIMUPT
 70
     0
  9
$DIMDEC
 70
     3
  9
$DIMTDEC
 70
     2
  9
$DIMALTU
 70
     2
  9
$DIMALTTD
 70
     3
  9
$DIMTXSTY
  7
STANDARD
  9
$DIMAUNIT
 70
     0
  9
$DIMADEC
 70
     3
  9
$DIMALTRND
 40
0.0
  9
$DIMAZIN
 70
     0
  9
$DIMDSEP
 70
    44
  9
$DIMATFIT
 70
     3
  9
$DIMFRAC
 70
     0
  9
$DIMLDRBLK
  1

  9
$DIMLUNIT
 70
     2
  9
$DIMLWD
 70
    -2
  9
$DIMLWE
 70
    -2
  9
$DIMTMOVE
 70
     0
  9
$DIMFXL
 40
1.0
  9
$DIMFXLON
 70
     0
  9
$DIMJOGANG
 40
0.7853981634
  9
$DIMTFILL
 70
     0
  9
$DIMTFILLCLR
 70
     0
  9
$DIMARCSYM
 70
     0
  9
$DIMLTYPE
  6

  9
$DIMLTEX1
  6

  9
$DIMLTEX2
  6

  9
$DIMTXTDIRECTION
 70
     0
  9
$LUNITS
 70
     2
  9
$LUPREC
 70
     3
  9
$SKETCHINC
 40
1.0
  9
$FILLETRAD
 40
0.0
  9
$AUNITS
 70
     0
  9
$AUPREC
 70
     3
  9
$MENU
  1
.
  9
$ELEVATION
 40
0.0
  9
$PELEVATION
 40
0.0
  9
$THICKNESS
 40
0.0
  9
$LIMCHECK
 70
     0
  9
$CHAMFERA
 40
0.0
  9
$CHAMFERB
 40
0.0
  9
$CHAMFERC
 40
0.0
  9
$CHAMFERD
 40
0.0
  9
$SKPOLY
 70
     0
  9
$TDCREATE
 40
2461048.799475498
  9
$TDUCREATE
 40
2461048.466142165
  9
$TDUPDATE
 40
2461048.799501632
  9
$TDUUPDATE
 40
2461048.466168299
  9
$TDINDWG
 40
0.0000000116
  9
$TDUSRTIMER
 40
0.0000000116
  9
$USRTIMER
 70
     1
  9
$ANGBASE
 50
0.0
  9
$ANGDIR
 70
     0
  9
$PDMODE
 70
     0
  9
$PDSIZE
 40
-1.0
  9
$PLINEWID
 40
0.0
  9
$SPLFRAME
 70
     0
  9
$SPLINETYPE
 70
     6
  9
$SPLINESEGS
 70
     8
  9
$HANDSEED
  5
2BA
  9
$SURFTAB1
 70
     6
  9
$SURFTAB2
 70
     6
  9
$SURFTYPE
 70
     6
  9
$SURFU
 70
     6
  9
$SURFV
 70
     6
  9
$UCSBASE
  2

  9
$UCSNAME
  2

  9
$UCSORG
 10
0.0
 20
0.0
 30
0.0
  9
$UCSXDIR
 10
1.0
 20
0.0
 30
0.0
  9
$UCSYDIR
 10
0.0
 20
1.0
 30
0.0
  9
$UCSORTHOREF
  2

  9
$UCSORTHOVIEW
 70
     0
  9
$UCSORGTOP
 10
0.0
 20
0.0
 30
0.0
  9
$UCSORGBOTTOM
 10
0.0
 20
0.0
 30
0.0
  9
$UCSORGLEFT
 10
0.0
 20
0.0
 30
0.0
  9
$UCSORGRIGHT
 10
0.0
 20
0.0
 30
0.0
  9
$UCSORGFRONT
 10
0.0
 20
0.0
 30
0.0
  9
$UCSORGBACK
 10
0.0
 20
0.0
 30
0.0
  9
$PUCSBASE
  2

  9
$PUCSNAME
  2

  9
$PUCSORG
 10
0.0
 20
0.0
 30
0.0
  9
$PUCSXDIR
 10
1.0
 20
0.0
 30
0.0
  9
$PUCSYDIR
 10
0.0
 20
1.0
 30
0.0
  9
$PUCSORTHOREF
  2

  9
$PUCSORTHOVIEW
 70
     0
  9
$PUCSORGTOP
 10
0.0
 20
0.0
 30
0.0
  9
$PUCSORGBOTTOM
 10
0.0
 20
0.0
 30
0.0
  9
$PUCSORGLEFT
 10
0.0
 20
0.0
 30
0.0
  9
$PUCSORGRIGHT
 10
0.0
 20
0.0
 30
0.0
  9
$PUCSORGFRONT
 10
0.0
 20
0.0
 30
0.0
  9
$PUCSORGBACK
 10
0.0
 20
0.0
 30
0.0
  9
$USERI1
 70
     0
  9
$USERI2
 70
     0
  9
$USERI3
 70
     0
  9
$USERI4
 70
     0
  9
$USERI5
 70
     0
  9
$USERR1
 40
0.0
  9
$USERR2
 40
0.0
  9
$USERR3
 40
0.0
  9
$USERR4
 40
0.0
  9
$USERR5
 40
0.0
  9
$WORLDVIEW
 70
     1
  9
$SHADEDGE
 70
     3
  9
$SHADEDIF
 70
    70
  9
$TILEMODE
 70
     1
  9
$MAXACTVP
 70
    64
  9
$PINSBASE
 10
0.0
 20
0.0
 30
0.0
  9
$PLIMCHECK
 70
     0
  9
$PEXTMIN
 10
1.0000000000E+20
 20
1.0000000000E+20
 30
1.0000000000E+20
  9
$PEXTMAX
 10
-1.0000000000E+20
 20
-1.0000000000E+20
 30
-1.0000000000E+20
  9
$PLIMMIN
 10
0.0
 20
0.0
  9
$PLIMMAX
 10
420.0
 20
297.0
  9
$UNITMODE
 70
     0
  9
$VISRETAIN
 70
     1
  9
$PLINEGEN
 70
     0
  9
$PSLTSCALE
 70
     1
  9
$TREEDEPTH
 70
  3020
  9
$CMLSTYLE
  2
Standard
  9
$CMLJUST
 70
     0
  9
$CMLSCALE
 40
20.0
  9
$PROXYGRAPHICS
 70
     1
  9
$MEASUREMENT
 70
     1
  9
$CELWEIGHT
370
    -1
  9
$ENDCAPS
280
     0
  9
$JOINSTYLE
280
     0
  9
$LWDISPLAY
290
     1
  9
$INSUNITS
 70
     4
  9
$HYPERLINKBASE
  1

  9
$STYLESHEET
  1

  9
$XEDIT
290
     1
  9
$CEPSNTYPE
380
     0
  9
$PSTYLEMODE
290
     1
  9
$FINGERPRINTGUID
  2
{34b6f6a8-e89f-49f8-a4f6-9e288de7c3ea}
  9
$VERSIONGUID
  2
{FAEB1C32-E019-11D5-929B-00C0DF256EC4}
  9
$EXTNAMES
290
     1
  9
$PSVPSCALE
 40
0.0
  9
$OLESTARTUP
290
     0
  9
$SORTENTS
280
   127
  9
$INDEXCTL
280
     0
  9
$HIDETEXT
280
     1
  9
$XCLIPFRAME
280
     2
  9
$HALOGAP
280
     0
  9
$OBSCOLOR
 70
   257
  9
$OBSLTYPE
280
     0
  9
$INTERSECTIONDISPLAY
280
     0
  9
$INTERSECTIONCOLOR
 70
   257
  9
$DIMASSOC
280
     2
  9
$PROJECTNAME
  1

  9
$CAMERADISPLAY
290
     0
  9
$LENSLENGTH
 40
50.0
  9
$CAMERAHEIGHT
 40
0.0
  9
$STEPSPERSEC
 40
2.0
  9
$STEPSIZE
 40
6.0
  9
$3DDWFPREC
 40
2.0
  9
$PSOLWIDTH
 40
5.0
  9
$PSOLHEIGHT
 40
80.0
  9
$LOFTANG1
 40
1.5707963268
  9
$LOFTANG2
 40
1.5707963268
  9
$LOFTMAG1
 40
0.0
  9
$LOFTMAG2
 40
0.0
  9
$LOFTPARAM
 70
     7
  9
$LOFTNORMALS
280
     1
  9
$LATITUDE
 40
37.795
  9
$LONGITUDE
 40
-122.394
  9
$NORTHDIRECTION
 40
0.0
  9
$TIMEZONE
 70
 -8000
  9
$LIGHTGLYPHDISPLAY
280
     1
  9
$TILEMODELIGHTSYNCH
280
     1
  9
$CMATERIAL
347
44
  9
$SOLIDHIST
280
     0
  9
$SHOWHIST
280
     1
  9
$DWFFRAME
280
     2
  9
$DGNFRAME
280
     2
  9
$REALWORLDSCALE
290
     1
  9
$INTERFERECOLOR
 62
   256
  9
$CSHADOW
280
     0
  9
$SHADOWPLANELOCATION
 40
0.0
  0
ENDSEC
  0
SECTION
  2
CLASSES
  0
CLASS
  1
ACDBDICTIONARYWDFLT
  2
AcDbDictionaryWithDefault
  3
ObjectDBX Classes
 90
        0
 91
        3
280
     0
281
     0
  0
CLASS
  1
VISUALSTYLE
  2
AcDbVisualStyle
  3
ObjectDBX Classes
 90
     4095
 91
        3
280
     0
281
     0
  0
CLASS
  1
MATERIAL
  2
AcDbMaterial
  3
ObjectDBX Classes
 90
     1153
 91
        3
280
     0
281
     0
  0
CLASS
  1
SCALE
  2
AcDbScale
  3
ObjectDBX Classes
 90
     1153
 91
        3
280
     0
281
     0
  0
CLASS
  1
TABLESTYLE
  2
AcDbTableStyle
  3
ObjectDBX Classes
 90
     4095
 91
        3
280
     0
281
     0
  0
CLASS
  1
MLEADERSTYLE
  2
AcDbMLeaderStyle
  3
ACDB_MLEADERSTYLE_CLASS
 90
     4095
 91
        3
280
     0
281
     0
  0
CLASS
  1
SUN
  2
AcDbSun
  3
SCENEOE
 90
     1153
 91
        3
280
     0
281
     0
  0
CLASS
  1
DICTIONARYVAR
  2
AcDbDictionaryVar
  3
ObjectDBX Classes
 90
        0
 91
        3
280
     0
281
     0
  0
CLASS
  1
CELLSTYLEMAP
  2
AcDbCellStyleMap
  3
ObjectDBX Classes
 90
     1152
 91
        3
280
     0
281
     0
  0
ENDSEC
  0
SECTION
  2
TABLES
  0
TABLE
  2
VPORT
  5
8
330
0
100
AcDbSymbolTable
 70
     1
  0
VPORT
  5
29
330
8
100
AcDbSymbolTableRecord
100
AcDbViewportTableRecord
  2
*Active
 70
     0
 10
0.0
 20
0.0
 11
1.0
 21
1.0
 12
0.0
 22
0.0
 13
0.0
 23
0.0
 14
10.0
 24
10.0
 15
10.0
 25
10.0
 16
0.0
 26
0.0
 36
1.0
 17
0.0
 27
0.0
 37
0.0
 40
75.4343501954
 41
1.0
 42
50.0
 43
0.0
 44
0.0
 50
0.0
 51
0.0
 71
     0
 72
   100
 73
     1
 74
     3
 75
     0
 76
     0
 77
     0
 78
     0
281
     0
 65
     1
110
0.0
120
0.0
130
0.0
111
1.0
121
0.0
131
0.0
112
0.0
122
1.0
132
0.0
 79
     0
146
0.0
348
2F
 60
     3
 61
     5
292
     1
282
     1
141
0.0
142
0.0
 63
   250
361
5D
  0
ENDTAB
  0
TABLE
  2
LTYPE
  5
5
330
0
100
AcDbSymbolTable
 70
     8
  0
LTYPE
  5
14
330
5
100
AcDbSymbolTableRecord
100
AcDbLinetypeTableRecord
  2
ByBlock
 70
     0
  3

 72
    65
 73
     0
 40
0.0
  0
LTYPE
  5
15
330
5
100
AcDbSymbolTableRecord
100
AcDbLinetypeTableRecord
  2
ByLayer
 70
     0
  3

 72
    65
 73
     0
 40
0.0
  0
LTYPE
  5
16
330
5
100
AcDbSymbolTableRecord
100
AcDbLinetypeTableRecord
  2
Continuous
 70
     0
  3
Solid line
 72
    65
 73
     0
 40
0.0
  0
LTYPE
  5
5E
330
5
100
AcDbSymbolTableRecord
100
AcDbLinetypeTableRecord
  2
SLD-Solid
 70
     0
  3
SolidWorks Line Style
 72
    65
 73
     0
 40
0.0
  0
LTYPE
  5
5F
330
5
100
AcDbSymbolTableRecord
100
AcDbLinetypeTableRecord
  2
SLD-Dashed
 70
     0
  3
SolidWorks Line Style
 72
    65
 73
     2
 40
1.905
 49
1.27
 74
     0
 49
-0.635
 74
     0
  0
LTYPE
  5
60
330
5
100
AcDbSymbolTableRecord
100
AcDbLinetypeTableRecord
  2
SLD-Phantom
 70
     0
  3
SolidWorks Line Style
 72
    65
 73
     6
 40
12.7
 49
6.35
 74
     0
 49
-1.27
 74
     0
 49
1.27
 74
     0
 49
-1.27
 74
     0
 49
1.27
 74
     0
 49
-1.27
 74
     0
  0
LTYPE
  5
61
330
5
100
AcDbSymbolTableRecord
100
AcDbLinetypeTableRecord
  2
SLD-Chain
 70
     0
  3
SolidWorks Line Style
 72
    65
 73
     4
 40
10.16
 49
6.35
 74
     0
 49
-1.27
 74
     0
 49
1.27
 74
     0
 49
-1.27
 74
     0
  0
LTYPE
  5
62
330
5
100
AcDbSymbolTableRecord
100
AcDbLinetypeTableRecord
  2
SLD-Center
 70
     0
  3
SolidWorks Line Style
 72
    65
 73
     4
 40
19.05
 49
15.24
 74
     0
 49
-1.27
 74
     0
 49
1.27
 74
     0
 49
-1.27
 74
     0
  0
LTYPE
  5
63
330
5
100
AcDbSymbolTableRecord
100
AcDbLinetypeTableRecord
  2
SLD-Stitch
 70
     0
  3
SolidWorks Line Style
 72
    65
 73
     2
 40
0.635
 49
0.0
 74
     0
 49
-0.635
 74
     0
  0
LTYPE
  5
64
330
5
100
AcDbSymbolTableRecord
100
AcDbLinetypeTableRecord
  2
SLD-Thin-Thick-Chain
 70
     0
  3
SolidWorks Line Style
 72
    65
 73
     4
 40
10.16
 49
6.35
 74
     0
 49
-1.27
 74
     0
 49
1.27
 74
     0
 49
-1.27
 74
     0
  0
ENDTAB
  0
TABLE
  2
LAYER
  5
2
330
0
100
AcDbSymbolTable
 70
     1
  0
LAYER
  5
10
330
2
100
AcDbSymbolTableRecord
100
AcDbLayerTableRecord
  2
0
 70
     0
 62
     7
  6
Continuous
370
    -3
390
F
347
46
348
0
  0
ENDTAB
  0
TABLE
  2
STYLE
  5
3
330
0
100
AcDbSymbolTable
 70
     2
  0
STYLE
  5
11
330
3
100
AcDbSymbolTableRecord
100
AcDbTextStyleTableRecord
  2
STANDARD
 70
     0
 40
0.0
 41
1.0
 50
0.0
 71
     0
 42
6.35
  3
GOTHIC.TTF
  4

1001
ACAD
1000
CENTURY GOTHIC
1071
       34
  0
STYLE
  5
2AC
330
3
100
AcDbSymbolTableRecord
100
AcDbTextStyleTableRecord
  2
SLDTEXTSTYLE0
 70
     0
 40
0.0
 41
1.0
 50
0.0
 71
     0
 42
6.35
  3
Arail.ttf
  4

1001
ACAD
1000
Arail.ttf
1071
      256
  0
ENDTAB
  0
TABLE
  2
VIEW
  5
6
330
0
100
AcDbSymbolTable
 70
     0
  0
ENDTAB
  0
TABLE
  2
UCS
  5
7
330
0
100
AcDbSymbolTable
 70
     0
  0
ENDTAB
  0
TABLE
  2
APPID
  5
9
330
0
100
AcDbSymbolTable
 70
     1
  0
APPID
  5
12
330
9
100
AcDbSymbolTableRecord
100
AcDbRegAppTableRecord
  2
ACAD
 70
     0
  0
ENDTAB
  0
TABLE
  2
DIMSTYLE
  5
A
330
0
100
AcDbSymbolTable
 70
     1
100
AcDbDimStyleTable
  0
DIMSTYLE
105
27
330
A
100
AcDbSymbolTableRecord
100
AcDbDimStyleTableRecord
  2
ISO-25
 70
     0
 41
2.5
 42
0.625
 43
3.75
 44
1.25
 73
     0
 74
     0
 77
     1
 78
     8
140
2.5
141
2.5
143
0.0393700787
147
0.625
171
     3
172
     1
178
     0
271
     2
272
     2
274
     3
278
    44
283
     0
284
     8
340
11
  0
ENDTAB
  0
TABLE
  2
BLOCK_RECORD
  5
1
330
0
100
AcDbSymbolTable
 70
     1
  0
BLOCK_RECORD
  5
1F
330
1
100
AcDbSymbolTableRecord
100
AcDbBlockTableRecord
  2
*Model_Space
340
22
 70
     0
280
     1
281
     0
  0
BLOCK_RECORD
  5
1B
330
1
100
AcDbSymbolTableRecord
100
AcDbBlockTableRecord
  2
*Paper_Space
340
1E
 70
     0
280
     1
281
     0
  0
BLOCK_RECORD
  5
23
330
1
100
AcDbSymbolTableRecord
100
AcDbBlockTableRecord
  2
*Paper_Space0
340
26
 70
     0
280
     1
281
     0
  0
ENDTAB
  0
ENDSEC
  0
SECTION
  2
BLOCKS
  0
BLOCK
  5
20
330
1F
100
AcDbEntity
  8
0
100
AcDbBlockBegin
  2
*Model_Space
 70
     0
 10
0.0
 20
0.0
 30
0.0
  3
*Model_Space
  1

  0
ENDBLK
  5
21
330
1F
100
AcDbEntity
  8
0
100
AcDbBlockEnd
  0
BLOCK
  5
1C
330
1B
100
AcDbEntity
 67
     1
  8
0
100
AcDbBlockBegin
  2
*Paper_Space
 70
     0
 10
0.0
 20
0.0
 30
0.0
  3
*Paper_Space
  1

  0
ENDBLK
  5
1D
330
1B
100
AcDbEntity
 67
     1
  8
0
100
AcDbBlockEnd
  0
BLOCK
  5
24
330
23
100
AcDbEntity
  8
0
100
AcDbBlockBegin
  2
*Paper_Space0
 70
     0
 10
0.0
 20
0.0
 30
0.0
  3
*Paper_Space0
  1

  0
ENDBLK
  5
25
330
23
100
AcDbEntity
  8
0
100
AcDbBlockEnd
  0
ENDSEC
  0
SECTION
  2
ENTITIES
  0
CIRCLE
  5
184
330
1F
100
AcDbEntity
  8
0
  6
SLD-Solid
 62
     7
370
    25
100
AcDbCircle
 10
0.0
 20
0.0
 30
0.0
 40
12.0
  0
CIRCLE
  5
185
330
1F
100
AcDbEntity
  8
0
  6
SLD-Solid
 62
     7
370
    25
100
AcDbCircle
 10
-20.6243949911
 20
11.9075
 30
0.0
 40
2.0
  0
CIRCLE
  5
186
330
1F
100
AcDbEntity
  8
0
  6
SLD-Solid
 62
     7
370
    25
100
AcDbCircle
 10
-20.6243949911
 20
-11.9075
 30
0.0
 40
2.000000000000004
  0
CIRCLE
  5
187
330
1F
100
AcDbEntity
  8
0
  6
SLD-Solid
 62
     7
370
    25
100
AcDbCircle
 10
0.0
 20
-23.815
 30
0.0
 40
1.999999999999995
  0
CIRCLE
  5
188
330
1F
100
AcDbEntity
  8
0
  6
SLD-Solid
 62
     7
370
    25
100
AcDbCircle
 10
20.6243949911
 20
-11.9075
 30
0.0
 40
1.999999999999996
  0
CIRCLE
  5
189
330
1F
100
AcDbEntity
  8
0
  6
SLD-Solid
 62
     7
370
    25
100
AcDbCircle
 10
20.6243949911
 20
11.9075
 30
0.0
 40
2.000000000000004
  0
CIRCLE
  5
18A
330
1F
100
AcDbEntity
  8
0
  6
SLD-Solid
 62
     7
370
    25
100
AcDbCircle
 10
0.0
 20
23.815
 30
0.0
 40
2.000000000000013
  0
ARC
  5
18C
330
1F
100
AcDbEntity
  8
0
  6
SLD-Solid
 62
     7
370
    25
100
AcDbCircle
 10
-0.0000000002
 20
0.0
 30
0.0
 40
34.74900000015029
100
AcDbArc
 50
359.3012330727
 51
0.6987669273
  0
ARC
  5
18D
330
1F
100
AcDbEntity
  8
0
  6
SLD-Solid
 62
     7
370
    25
100
AcDbCircle
 10
30.6860566408
 20
-14.2394777752
 30
0.0
 40
14.400000000001
100
AcDbArc
 50
64.0928331766
 51
73.6222209576
  0
ARC
  5
18E
330
1F
100
AcDbEntity
  8
0
  6
SLD-Solid
 62
     7
370
    25
100
AcDbCircle
 10
0.0000000001
 20
0.0
 30
0.0
 40
36.99999999989242
100
AcDbArc
 50
356.9927968891
 51
358.0072031109
  0
ARC
  5
18F
330
1F
100
AcDbEntity
  8
0
  6
SLD-Solid
 62
     7
370
    25
100
AcDbCircle
 10
31.8103391928
 20
11.5108262047
 30
0.0
 40
14.40000000000101
100
AcDbArc
 50
281.3777790424
 51
290.9071668234
  0
ARC
  5
190
330
1F
100
AcDbEntity
  8
0
  6
SLD-Solid
 62
     7
370
    25
100
AcDbCircle
 10
-0.0000000001
 20
0.0
 30
0.0
 40
34.74900000011591
100
AcDbArc
 50
354.3012330727
 51
355.6987669273
  0
ARC
  5
191
330
1F
100
AcDbEntity
  8
0
  6
SLD-Solid
 62
     7
370
    25
100
AcDbCircle
 10
29.3282346691
 20
-16.8597583218
 30
0.0
 40
14.40000000000107
100
AcDbArc
 50
59.0928331766
 51
68.6222209576
  0
ARC
  5
192
330
1F
100
AcDbEntity
  8
0
  6
SLD-Solid
 62
     7
370
    25
100
AcDbCircle
 10
0.0000000002
 20
0.0
 30
0.0
 40
36.99999999980675
100
AcDbArc
 50
351.9927968891
 51
353.0072031109
  0
ARC
  5
193
330
1F
100
AcDbEntity
  8
0
  6
SLD-Solid
 62
     7
370
    25
100
AcDbCircle
 10
32.6925258558
 20
8.6945702964
 30
0.0
 40
14.40000000000001
100
AcDbArc
 50
276.3777790424
 51
285.9071668234
  0
ARC
  5
194
330
1F
100
AcDbEntity
  8
0
  6
SLD-Solid
 62
     7
370
    25
100
AcDbCircle
 10
-0.0000000001
 20
0.0
 30
0.0
 40
34.74900000011046
100
AcDbArc
 50
349.3012330727
 51
350.6987669273
  0
ARC
  5
195
330
1F
100
AcDbEntity
  8
0
  6
SLD-Solid
 62
     7
370
    25
100
AcDbCircle
 10
27.7472071226
 20
-19.3517259273
 30
0.0
 40
14.39999999999938
100
AcDbArc
 50
54.0928331766
 51
63.6222209576
  0
ARC
  5
196
330
1F
100
AcDbEntity
  8
0
  6
SLD-Solid
 62
     7
370
    25
100
AcDbCircle
 10
0.0000000001
 20
0.0
 30
0.0
 40
36.99999999987752
100
AcDbArc
 50
346.9927968891
 51
348.0072031109
  0
ARC
  5
197
330
1F
100
AcDbEntity
  8
0
  6
SLD-Solid
 62
     7
370
    25
100
AcDbCircle
 10
33.3259026569
 20
5.8121434582
 30
0.0
 40
14.4000000000001
100
AcDbArc
 50
271.3777790424
 51
280.9071668234
  0
ARC
  5
198
330
1F
100
AcDbEntity
  8
0
  6
SLD-Solid
 62
     7
370
    25
100
AcDbCircle
 10
-0.0000000001
 20
0.0
 30
0.0
 40
34.74900000006314
100
AcDbArc
 50
344.3012330727
 51
345.6987669274
  0
ARC
  5
199
330
1F
100
AcDbEntity
  8
0
  6
SLD-Solid
 62
     7
370
    25
100
AcDbCircle
 10
25.9550065758
 20
-21.6964152137
 30
0.0
 40
14.40000000000153
100
AcDbArc
 50
49.0928331766
 51
58.6222209576
  0
ARC
  5
19A
330
1F
100
AcDbEntity
  8
0
  6
SLD-Solid
 62
     7
370
    25
100
AcDbCircle
 10
0.0000000001
 20
0.0
 30
0.0
 40
36.99999999991703
100
AcDbArc
 50
341.9927968891
 51
343.0072031109
  0
ARC
  5
19B
330
1F
100
AcDbEntity
  8
0
  6
SLD-Solid
 62
     7
370
    25
100
AcDbCircle
 10
33.7056492159
 20
2.8854826988
 30
0.0
 40
14.39999999999991
100
AcDbArc
 50
266.3777790424
 51
275.9071668234
  0
ARC
  5
19C
330
1F
100
AcDbEntity
  8
0
  6
SLD-Solid
 62
     7
370
    25
100
AcDbCircle
 10
-0.0000000001
 20
0.0
 30
0.0
 40
34.74900000010447
100
AcDbArc
 50
339.3012330727
 51
340.6987669273
  0
ARC
  5
19D
330
1F
100
AcDbEntity
  8
0
  6
SLD-Solid
 62
     7
370
    25
100
AcDbCircle
 10
23.9652727568
 20
-23.8759816796
 30
0.0
 40
14.39999999999878
100
AcDbArc
 50
44.0928331766
 51
53.6222209576
  0
ARC
  5
19E
330
1F
100
AcDbEntity
  8
0
  6
SLD-Solid
 62
     7
370
    25
100
AcDbCircle
 10
0.0000000001
 20
0.0
 30
0.0
 40
36.99999999988632
100
AcDbArc
 50
336.9927968891
 51
338.0072031109
  0
ARC
  5
19F
330
1F
100
AcDbEntity
  8
0
  6
SLD-Solid
 62
     7
370
    25
100
AcDbCircle
 10
33.8288754325
 20
-0.0631383262
 30
0.0
 40
14.4000000000002
100
AcDbArc
 50
261.3777790424
 51
270.9071668234
  0
ARC
  5
1A0
330
1F
100
AcDbEntity
  8
0
  6
SLD-Solid
 62
     7
370
    25
100
AcDbCircle
 10
-0.0000000001
 20
0.0000000001
 30
0.0
 40
34.74900000014092
100
AcDbArc
 50
334.3012330727
 51
335.6987669273
  0
ARC
  5
1A1
330
1F
100
AcDbEntity
  8
0
  6
SLD-Solid
 62
     7
370
    25
100
AcDbCircle
 10
21.7931487416
 20
-25.8738375082
 30
0.0
 40
14.40000000000078
100
AcDbArc
 50
39.0928331766
 51
48.6222209576
  0
ARC
  5
1A2
330
1F
100
AcDbEntity
  8
0
  6
SLD-Solid
 62
     7
370
    25
100
AcDbCircle
 10
0.0000000002
 20
-0.0000000001
 30
0.0
 40
36.99999999980945
100
AcDbArc
 50
331.9927968891
 51
333.0072031109
  0
ARC
  5
1A3
330
1F
100
AcDbEntity
  8
0
  6
SLD-Solid
 62
     7
370
    25
100
AcDbCircle
 10
33.6946434805
 20
-3.0112788304
 30
0.0
 40
14.40000000000063
100
AcDbArc
 50
256.3777790424
 51
265.9071668234
  0
ARC
  5
1A4
330
1F
100
AcDbEntity
  8
0
  6
SLD-Solid
 62
     7
370
    25
100
AcDbCircle
 10
-0.0000000001
 20
0.0
 30
0.0
 40
34.74900000009758
100
AcDbArc
 50
329.3012330727
 51
330.6987669273
  0
ARC
  5
1A5
330
1F
100
AcDbEntity
  8
0
  6
SLD-Solid
 62
     7
370
    25
100
AcDbCircle
 10
19.4551657053
 20
-27.6747778104
 30
0.0
 40
14.40000000000005
100
AcDbArc
 50
34.0928331766
 51
43.6222209576
  0
ARC
  5
1A6
330
1F
100
AcDbEntity
  8
0
  6
SLD-Solid
 62
     7
370
    25
100
AcDbCircle
 10
0.0
 20
0.0
 30
0.0
 40
36.99999999999093
100
AcDbArc
 50
326.9927968891
 51
328.0072031109
  0
ARC
  5
1A7
330
1F
100
AcDbEntity
  8
0
  6
SLD-Solid
 62
     7
370
    25
100
AcDbCircle
 10
33.3039749463
 20
-5.9365016845
 30
0.0
 40
14.40000000000045
100
AcDbArc
 50
251.3777790424
 51
260.9071668234
  0
ARC
  5
1A8
330
1F
100
AcDbEntity
  8
0
  6
SLD-Solid
 62
     7
370
    25
100
AcDbCircle
 10
-0.0000000001
 20
0.0000000001
 30
0.0
 40
34.74900000010877
100
AcDbArc
 50
324.3012330727
 51
325.6987669273
  0
ARC
  5
1A9
330
1F
100
AcDbEntity
  8
0
  6
SLD-Solid
 62
     7
370
    25
100
AcDbCircle
 10
16.9691171107
 20
-29.2650963429
 30
0.0
 40
14.3999999999991
100
AcDbArc
 50
29.0928331766
 51
38.6222209576
  0
ARC
  5
1AA
330
1F
100
AcDbEntity
  8
0
  6
SLD-Solid
 62
     7
370
    25
100
AcDbCircle
 10
0.0
 20
0.0
 30
0.0
 40
36.99999999994755
100
AcDbArc
 50
321.9927968891
 51
323.0072031109
  0
ARC
  5
1AB
330
1F
100
AcDbEntity
  8
0
  6
SLD-Solid
 62
     7
370
    25
100
AcDbCircle
 10
32.6598430532
 20
-8.8165441762
 30
0.0
 40
14.40000000000059
100
AcDbArc
 50
246.3777790424
 51
255.9071668234
  0
ARC
  5
1AC
330
1F
100
AcDbEntity
  8
0
  6
SLD-Solid
 62
     7
370
    25
100
AcDbCircle
 10
-0.0000000001
 20
0.0000000001
 30
0.0
 40
34.74900000010403
100
AcDbArc
 50
319.3012330727
 51
320.6987669273
  0
ARC
  5
1AD
330
1F
100
AcDbEntity
  8
0
  6
SLD-Solid
 62
     7
370
    25
100
AcDbCircle
 10
14.3539232886
 20
-30.6326898215
 30
0.0
 40
14.39999999999985
100
AcDbArc
 50
24.0928331766
 51
33.6222209576
  0
ARC
  5
1AE
330
1F
100
AcDbEntity
  8
0
  6
SLD-Solid
 62
     7
370
    25
100
AcDbCircle
 10
0.0000000002
 20
-0.0000000002
 30
0.0
 40
36.99999999972511
100
AcDbArc
 50
316.9927968891
 51
318.0072031109
  0
ARC
  5
1AF
330
1F
100
AcDbEntity
  8
0
  6
SLD-Solid
 62
     7
370
    25
100
AcDbCircle
 10
31.767150034
 20
-11.6294874432
 30
0.0
 40
14.40000000000082
100
AcDbArc
 50
241.3777790424
 51
250.9071668234
  0
ARC
  5
1B0
330
1F
100
AcDbEntity
  8
0
  6
SLD-Solid
 62
     7
370
    25
100
AcDbCircle
 10
-0.0000000001
 20
0.0000000001
 30
0.0
 40
34.74900000008137
100
AcDbArc
 50
314.3012330727
 51
315.6987669274
  0
ARC
  5
1B1
330
1F
100
AcDbEntity
  8
0
  6
SLD-Solid
 62
     7
370
    25
100
AcDbCircle
 10
11.6294874432
 20
-31.767150034
 30
0.0
 40
14.40000000000055
100
AcDbArc
 50
19.0928331766
 51
28.6222209576
  0
ARC
  5
1B2
330
1F
100
AcDbEntity
  8
0
  6
SLD-Solid
 62
     7
370
    25
100
AcDbCircle
 10
0.0000000002
 20
-0.0000000002
 30
0.0
 40
36.9999999997519
100
AcDbArc
 50
311.9927968891
 51
313.0072031109
  0
ARC
  5
1B3
330
1F
100
AcDbEntity
  8
0
  6
SLD-Solid
 62
     7
370
    25
100
AcDbCircle
 10
30.6326898215
 20
-14.3539232886
 30
0.0
 40
14.40000000000113
100
AcDbArc
 50
236.3777790424
 51
245.9071668234
  0
ARC
  5
1B4
330
1F
100
AcDbEntity
  8
0
  6
SLD-Solid
 62
     7
370
    25
100
AcDbCircle
 10
-0.0000000001
 20
0.0000000001
 30
0.0
 40
34.74900000014382
100
AcDbArc
 50
309.3012330727
 51
310.6987669273
  0
ARC
  5
1B5
330
1F
100
AcDbEntity
  8
0
  6
SLD-Solid
 62
     7
370
    25
100
AcDbCircle
 10
8.8165441762
 20
-32.6598430532
 30
0.0
 40
14.3999999999996
100
AcDbArc
 50
14.0928331766
 51
23.6222209576
  0
ARC
  5
1B6
330
1F
100
AcDbEntity
  8
0
  6
SLD-Solid
 62
     7
370
    25
100
AcDbCircle
 10
0.0
 20
0.0
 30
0.0
 40
36.9999999999691
100
AcDbArc
 50
306.9927968891
 51
308.0072031109
  0
ARC
  5
1B7
330
1F
100
AcDbEntity
  8
0
  6
SLD-Solid
 62
     7
370
    25
100
AcDbCircle
 10
29.2650963429
 20
-16.9691171107
 30
0.0
 40
14.40000000000036
100
AcDbArc
 50
231.3777790424
 51
240.9071668234
  0
ARC
  5
1B8
330
1F
100
AcDbEntity
  8
0
  6
SLD-Solid
 62
     7
370
    25
100
AcDbCircle
 10
-0.0000000001
 20
0.0000000001
 30
0.0
 40
34.74900000009887
100
AcDbArc
 50
304.3012330727
 51
305.6987669273
  0
ARC
  5
1B9
330
1F
100
AcDbEntity
  8
0
  6
SLD-Solid
 62
     7
370
    25
100
AcDbCircle
 10
5.9365016845
 20
-33.3039749463
 30
0.0
 40
14.40000000000146
100
AcDbArc
 50
9.0928331766
 51
18.6222209576
  0
ARC
  5
1BA
330
1F
100
AcDbEntity
  8
0
  6
SLD-Solid
 62
     7
370
    25
100
AcDbCircle
 10
0.0000000001
 20
-0.0000000001
 30
0.0
 40
36.99999999987068
100
AcDbArc
 50
301.9927968891
 51
303.0072031109
  0
ARC
  5
1BB
330
1F
100
AcDbEntity
  8
0
  6
SLD-Solid
 62
     7
370
    25
100
AcDbCircle
 10
27.6747778104
 20
-19.4551657053
 30
0.0
 40
14.40000000000065
100
AcDbArc
 50
226.3777790424
 51
235.9071668234
  0
ARC
  5
1BC
330
1F
100
AcDbEntity
  8
0
  6
SLD-Solid
 62
     7
370
    25
100
AcDbCircle
 10
0.0
 20
0.0000000001
 30
0.0
 40
34.74900000006495
100
AcDbArc
 50
299.3012330727
 51
300.6987669274
  0
ARC
  5
1BD
330
1F
100
AcDbEntity
  8
0
  6
SLD-Solid
 62
     7
370
    25
100
AcDbCircle
 10
3.0112788304
 20
-33.6946434805
 30
0.0
 40
14.40000000000038
100
AcDbArc
 50
4.0928331766
 51
13.6222209576
  0
ARC
  5
1BE
330
1F
100
AcDbEntity
  8
0
  6
SLD-Solid
 62
     7
370
    25
100
AcDbCircle
 10
0.0000000001
 20
-0.0000000003
 30
0.0
 40
36.99999999971511
100
AcDbArc
 50
296.9927968891
 51
298.0072031109
  0
ARC
  5
1BF
330
1F
100
AcDbEntity
  8
0
  6
SLD-Solid
 62
     7
370
    25
100
AcDbCircle
 10
25.8738375082
 20
-21.7931487416
 30
0.0
 40
14.40000000000044
100
AcDbArc
 50
221.3777790424
 51
230.9071668234
  0
ARC
  5
1C0
330
1F
100
AcDbEntity
  8
0
  6
SLD-Solid
 62
     7
370
    25
100
AcDbCircle
 10
0.0
 20
0.0
 30
0.0
 40
34.74900000004625
100
AcDbArc
 50
294.3012330727
 51
295.6987669274
  0
ARC
  5
1C1
330
1F
100
AcDbEntity
  8
0
  6
SLD-Solid
 62
     7
370
    25
100
AcDbCircle
 10
0.0631383262
 20
-33.8288754325
 30
0.0
 40
14.39999999999999
100
AcDbArc
 50
359.0928331766
 51
8.6222209576
  0
ARC
  5
1C2
330
1F
100
AcDbEntity
  8
0
  6
SLD-Solid
 62
     7
370
    25
100
AcDbCircle
 10
0.0
 20
-0.0000000001
 30
0.0
 40
36.99999999993287
100
AcDbArc
 50
291.9927968891
 51
293.0072031109
  0
ARC
  5
1C3
330
1F
100
AcDbEntity
  8
0
  6
SLD-Solid
 62
     7
370
    25
100
AcDbCircle
 10
23.8759816796
 20
-23.9652727568
 30
0.0
 40
14.39999999999987
100
AcDbArc
 50
216.3777790424
 51
225.9071668234
  0
ARC
  5
1C4
330
1F
100
AcDbEntity
  8
0
  6
SLD-Solid
 62
     7
370
    25
100
AcDbCircle
 10
0.0
 20
0.0000000001
 30
0.0
 40
34.74900000007086
100
AcDbArc
 50
289.3012330727
 51
290.6987669274
  0
ARC
  5
1C5
330
1F
100
AcDbEntity
  8
0
  6
SLD-Solid
 62
     7
370
    25
100
AcDbCircle
 10
-2.8854826988
 20
-33.7056492159
 30
0.0
 40
14.39999999999925
100
AcDbArc
 50
354.0928331766
 51
3.6222209576
  0
ARC
  5
1C6
330
1F
100
AcDbEntity
  8
0
  6
SLD-Solid
 62
     7
370
    25
100
AcDbCircle
 10
0.0
 20
-0.0000000001
 30
0.0
 40
36.99999999988608
100
AcDbArc
 50
286.9927968891
 51
288.0072031109
  0
ARC
  5
1C7
330
1F
100
AcDbEntity
  8
0
  6
SLD-Solid
 62
     7
370
    25
100
AcDbCircle
 10
21.6964152137
 20
-25.9550065758
 30
0.0
 40
14.40000000000142
100
AcDbArc
 50
211.3777790424
 51
220.9071668234
  0
ARC
  5
1C8
330
1F
100
AcDbEntity
  8
0
  6
SLD-Solid
 62
     7
370
    25
100
AcDbCircle
 10
0.0
 20
0.0000000002
 30
0.0
 40
34.74900000018518
100
AcDbArc
 50
284.3012330727
 51
285.6987669273
  0
ARC
  5
1C9
330
1F
100
AcDbEntity
  8
0
  6
SLD-Solid
 62
     7
370
    25
100
AcDbCircle
 10
-5.8121434582
 20
-33.3259026569
 30
0.0
 40
14.40000000000071
100
AcDbArc
 50
349.0928331766
 51
358.6222209576
  0
ARC
  5
1CA
330
1F
100
AcDbEntity
  8
0
  6
SLD-Solid
 62
     7
370
    25
100
AcDbCircle
 10
0.0
 20
-0.0000000002
 30
0.0
 40
36.99999999984161
100
AcDbArc
 50
281.9927968891
 51
283.0072031109
  0
ARC
  5
1CB
330
1F
100
AcDbEntity
  8
0
  6
SLD-Solid
 62
     7
370
    25
100
AcDbCircle
 10
19.3517259273
 20
-27.7472071226
 30
0.0
 40
14.39999999999977
100
AcDbArc
 50
206.3777790424
 51
215.9071668234
  0
ARC
  5
1CC
330
1F
100
AcDbEntity
  8
0
  6
SLD-Solid
 62
     7
370
    25
100
AcDbCircle
 10
0.0
 20
0.0000000001
 30
0.0
 40
34.74900000013755
100
AcDbArc
 50
279.3012330727
 51
280.6987669273
  0
ARC
  5
1CD
330
1F
100
AcDbEntity
  8
0
  6
SLD-Solid
 62
     7
370
    25
100
AcDbCircle
 10
-8.6945702964
 20
-32.6925258558
 30
0.0
 40
14.40000000000013
100
AcDbArc
 50
344.0928331766
 51
353.6222209576
  0
ARC
  5
1CE
330
1F
100
AcDbEntity
  8
0
  6
SLD-Solid
 62
     7
370
    25
100
AcDbCircle
 10
0.0
 20
-0.0000000003
 30
0.0
 40
36.99999999969991
100
AcDbArc
 50
276.9927968891
 51
278.0072031109
  0
ARC
  5
1CF
330
1F
100
AcDbEntity
  8
0
  6
SLD-Solid
 62
     7
370
    25
100
AcDbCircle
 10
16.8597583218
 20
-29.3282346691
 30
0.0
 40
14.39999999999986
100
AcDbArc
 50
201.3777790424
 51
210.9071668234
  0
ARC
  5
1D0
330
1F
100
AcDbEntity
  8
0
  6
SLD-Solid
 62
     7
370
    25
100
AcDbCircle
 10
0.0
 20
0.0000000002
 30
0.0
 40
34.74900000015846
100
AcDbArc
 50
274.3012330727
 51
275.6987669273
  0
ARC
  5
1D1
330
1F
100
AcDbEntity
  8
0
  6
SLD-Solid
 62
     7
370
    25
100
AcDbCircle
 10
-11.5108262047
 20
-31.8103391928
 30
0.0
 40
14.40000000000096
100
AcDbArc
 50
339.0928331766
 51
348.6222209576
  0
ARC
  5
1D2
330
1F
100
AcDbEntity
  8
0
  6
SLD-Solid
 62
     7
370
    25
100
AcDbCircle
 10
0.0
 20
-0.0000000001
 30
0.0
 40
36.99999999991358
100
AcDbArc
 50
271.9927968891
 51
273.0072031109
  0
ARC
  5
1D3
330
1F
100
AcDbEntity
  8
0
  6
SLD-Solid
 62
     7
370
    25
100
AcDbCircle
 10
14.2394777752
 20
-30.6860566408
 30
0.0
 40
14.40000000000033
100
AcDbArc
 50
196.3777790424
 51
205.9071668234
  0
ARC
  5
1D4
330
1F
100
AcDbEntity
  8
0
  6
SLD-Solid
 62
     7
370
    25
100
AcDbCircle
 10
0.0
 20
0.0000000002
 30
0.0
 40
34.7490000001503
100
AcDbArc
 50
269.3012330727
 51
270.6987669273
  0
ARC
  5
1D5
330
1F
100
AcDbEntity
  8
0
  6
SLD-Solid
 62
     7
370
    25
100
AcDbCircle
 10
-14.2394777752
 20
-30.6860566408
 30
0.0
 40
14.40000000000087
100
AcDbArc
 50
334.0928331766
 51
343.6222209576
  0
ARC
  5
1D6
330
1F
100
AcDbEntity
  8
0
  6
SLD-Solid
 62
     7
370
    25
100
AcDbCircle
 10
0.0
 20
0.0
 30
0.0
 40
37.00000000000183
100
AcDbArc
 50
266.9927968891
 51
268.0072031109
  0
ARC
  5
1D7
330
1F
100
AcDbEntity
  8
0
  6
SLD-Solid
 62
     7
370
    25
100
AcDbCircle
 10
11.5108262047
 20
-31.8103391928
 30
0.0
 40
14.4000000000003
100
AcDbArc
 50
191.3777790424
 51
200.9071668234
  0
ARC
  5
1D8
330
1F
100
AcDbEntity
  8
0
  6
SLD-Solid
 62
     7
370
    25
100
AcDbCircle
 10
0.0
 20
0.0000000001
 30
0.0
 40
34.74900000007369
100
AcDbArc
 50
264.3012330727
 51
265.6987669274
  0
ARC
  5
1D9
330
1F
100
AcDbEntity
  8
0
  6
SLD-Solid
 62
     7
370
    25
100
AcDbCircle
 10
-16.8597583218
 20
-29.3282346691
 30
0.0
 40
14.4000000000007
100
AcDbArc
 50
329.0928331766
 51
338.6222209576
  0
ARC
  5
1DA
330
1F
100
AcDbEntity
  8
0
  6
SLD-Solid
 62
     7
370
    25
100
AcDbCircle
 10
0.0
 20
-0.0000000001
 30
0.0
 40
36.99999999991979
100
AcDbArc
 50
261.9927968891
 51
263.0072031109
  0
ARC
  5
1DB
330
1F
100
AcDbEntity
  8
0
  6
SLD-Solid
 62
     7
370
    25
100
AcDbCircle
 10
8.6945702964
 20
-32.6925258558
 30
0.0
 40
14.40000000000031
100
AcDbArc
 50
186.3777790424
 51
195.9071668234
  0
ARC
  5
1DC
330
1F
100
AcDbEntity
  8
0
  6
SLD-Solid
 62
     7
370
    25
100
AcDbCircle
 10
0.0
 20
0.0000000001
 30
0.0
 40
34.74900000005102
100
AcDbArc
 50
259.3012330727
 51
260.6987669274
  0
ARC
  5
1DD
330
1F
100
AcDbEntity
  8
0
  6
SLD-Solid
 62
     7
370
    25
100
AcDbCircle
 10
-19.3517259273
 20
-27.7472071226
 30
0.0
 40
14.39999999999874
100
AcDbArc
 50
324.0928331766
 51
333.6222209576
  0
ARC
  5
1DE
330
1F
100
AcDbEntity
  8
0
  6
SLD-Solid
 62
     7
370
    25
100
AcDbCircle
 10
0.0
 20
-0.0000000002
 30
0.0
 40
36.99999999977162
100
AcDbArc
 50
256.9927968891
 51
258.0072031109
  0
ARC
  5
1DF
330
1F
100
AcDbEntity
  8
0
  6
SLD-Solid
 62
     7
370
    25
100
AcDbCircle
 10
5.8121434582
 20
-33.3259026569
 30
0.0
 40
14.40000000000076
100
AcDbArc
 50
181.3777790424
 51
190.9071668234
  0
ARC
  5
1E0
330
1F
100
AcDbEntity
  8
0
  6
SLD-Solid
 62
     7
370
    25
100
AcDbCircle
 10
0.0
 20
0.0
 30
0.0
 40
34.74899999998397
100
AcDbArc
 50
254.3012330727
 51
255.6987669274
  0
ARC
  5
1E1
330
1F
100
AcDbEntity
  8
0
  6
SLD-Solid
 62
     7
370
    25
100
AcDbCircle
 10
-21.6964152137
 20
-25.9550065758
 30
0.0
 40
14.4000000000006
100
AcDbArc
 50
319.0928331766
 51
328.6222209576
  0
ARC
  5
1E2
330
1F
100
AcDbEntity
  8
0
  6
SLD-Solid
 62
     7
370
    25
100
AcDbCircle
 10
-0.0000000001
 20
-0.0000000002
 30
0.0
 40
36.99999999980422
100
AcDbArc
 50
251.9927968891
 51
253.0072031109
  0
ARC
  5
1E3
330
1F
100
AcDbEntity
  8
0
  6
SLD-Solid
 62
     7
370
    25
100
AcDbCircle
 10
2.8854826988
 20
-33.7056492159
 30
0.0
 40
14.39999999999982
100
AcDbArc
 50
176.3777790424
 51
185.9071668234
  0
ARC
  5
1E4
330
1F
100
AcDbEntity
  8
0
  6
SLD-Solid
 62
     7
370
    25
100
AcDbCircle
 10
0.0
 20
0.0000000001
 30
0.0
 40
34.74900000010643
100
AcDbArc
 50
249.3012330727
 51
250.6987669273
  0
ARC
  5
1E5
330
1F
100
AcDbEntity
  8
0
  6
SLD-Solid
 62
     7
370
    25
100
AcDbCircle
 10
-23.8759816796
 20
-23.9652727568
 30
0.0
 40
14.39999999999894
100
AcDbArc
 50
314.0928331766
 51
323.6222209576
  0
ARC
  5
1E6
330
1F
100
AcDbEntity
  8
0
  6
SLD-Solid
 62
     7
370
    25
100
AcDbCircle
 10
-0.0000000001
 20
-0.0000000002
 30
0.0
 40
36.99999999978708
100
AcDbArc
 50
246.9927968891
 51
248.0072031109
  0
ARC
  5
1E7
330
1F
100
AcDbEntity
  8
0
  6
SLD-Solid
 62
     7
370
    25
100
AcDbCircle
 10
-0.0631383262
 20
-33.8288754325
 30
0.0
 40
14.40000000000114
100
AcDbArc
 50
171.3777790424
 51
180.9071668234
  0
ARC
  5
1E8
330
1F
100
AcDbEntity
  8
0
  6
SLD-Solid
 62
     7
370
    25
100
AcDbCircle
 10
0.0
 20
0.0
 30
0.0
 40
34.74899999998684
100
AcDbArc
 50
244.3012330727
 51
245.6987669274
  0
ARC
  5
1E9
330
1F
100
AcDbEntity
  8
0
  6
SLD-Solid
 62
     7
370
    25
100
AcDbCircle
 10
-25.8738375082
 20
-21.7931487416
 30
0.0
 40
14.39999999999895
100
AcDbArc
 50
309.0928331766
 51
318.6222209576
  0
ARC
  5
1EA
330
1F
100
AcDbEntity
  8
0
  6
SLD-Solid
 62
     7
370
    25
100
AcDbCircle
 10
-0.0000000001
 20
-0.0000000003
 30
0.0
 40
36.99999999970589
100
AcDbArc
 50
241.9927968891
 51
243.0072031109
  0
ARC
  5
1EB
330
1F
100
AcDbEntity
  8
0
  6
SLD-Solid
 62
     7
370
    25
100
AcDbCircle
 10
-3.0112788304
 20
-33.6946434805
 30
0.0
 40
14.40000000000094
100
AcDbArc
 50
166.3777790424
 51
175.9071668234
  0
ARC
  5
1EC
330
1F
100
AcDbEntity
  8
0
  6
SLD-Solid
 62
     7
370
    25
100
AcDbCircle
 10
0.0000000001
 20
0.0000000001
 30
0.0
 40
34.74900000016618
100
AcDbArc
 50
239.3012330727
 51
240.6987669273
  0
ARC
  5
1ED
330
1F
100
AcDbEntity
  8
0
  6
SLD-Solid
 62
     7
370
    25
100
AcDbCircle
 10
-27.6747778104
 20
-19.4551657053
 30
0.0
 40
14.39999999999996
100
AcDbArc
 50
304.0928331766
 51
313.6222209576
  0
ARC
  5
1EE
330
1F
100
AcDbEntity
  8
0
  6
SLD-Solid
 62
     7
370
    25
100
AcDbCircle
 10
-0.0000000001
 20
-0.0000000002
 30
0.0
 40
36.99999999981294
100
AcDbArc
 50
236.9927968891
 51
238.0072031109
  0
ARC
  5
1EF
330
1F
100
AcDbEntity
  8
0
  6
SLD-Solid
 62
     7
370
    25
100
AcDbCircle
 10
-5.9365016845
 20
-33.3039749463
 30
0.0
 40
14.40000000000115
100
AcDbArc
 50
161.3777790424
 51
170.9071668234
  0
ARC
  5
1F0
330
1F
100
AcDbEntity
  8
0
  6
SLD-Solid
 62
     7
370
    25
100
AcDbCircle
 10
0.0
 20
0.0000000001
 30
0.0
 40
34.7490000000668
100
AcDbArc
 50
234.3012330727
 51
235.6987669274
  0
ARC
  5
1F1
330
1F
100
AcDbEntity
  8
0
  6
SLD-Solid
 62
     7
370
    25
100
AcDbCircle
 10
-29.2650963429
 20
-16.9691171107
 30
0.0
 40
14.40000000000095
100
AcDbArc
 50
299.0928331766
 51
308.6222209576
  0
ARC
  5
1F2
330
1F
100
AcDbEntity
  8
0
  6
SLD-Solid
 62
     7
370
    25
100
AcDbCircle
 10
0.0
 20
0.0
 30
0.0
 40
36.99999999999206
100
AcDbArc
 50
231.9927968891
 51
233.0072031109
  0
ARC
  5
1F3
330
1F
100
AcDbEntity
  8
0
  6
SLD-Solid
 62
     7
370
    25
100
AcDbCircle
 10
-8.8165441762
 20
-32.6598430532
 30
0.0
 40
14.39999999999946
100
AcDbArc
 50
156.3777790424
 51
165.9071668234
  0
ARC
  5
1F4
330
1F
100
AcDbEntity
  8
0
  6
SLD-Solid
 62
     7
370
    25
100
AcDbCircle
 10
0.0000000001
 20
0.0000000001
 30
0.0
 40
34.74900000010582
100
AcDbArc
 50
229.3012330727
 51
230.6987669273
  0
ARC
  5
1F5
330
1F
100
AcDbEntity
  8
0
  6
SLD-Solid
 62
     7
370
    25
100
AcDbCircle
 10
-30.6326898215
 20
-14.3539232886
 30
0.0
 40
14.40000000000073
100
AcDbArc
 50
294.0928331766
 51
303.6222209576
  0
ARC
  5
1F6
330
1F
100
AcDbEntity
  8
0
  6
SLD-Solid
 62
     7
370
    25
100
AcDbCircle
 10
-0.0000000001
 20
-0.0000000001
 30
0.0
 40
36.99999999988503
100
AcDbArc
 50
226.9927968891
 51
228.0072031109
  0
ARC
  5
1F7
330
1F
100
AcDbEntity
  8
0
  6
SLD-Solid
 62
     7
370
    25
100
AcDbCircle
 10
-11.6294874432
 20
-31.767150034
 30
0.0
 40
14.40000000000137
100
AcDbArc
 50
151.3777790424
 51
160.9071668234
  0
ARC
  5
1F8
330
1F
100
AcDbEntity
  8
0
  6
SLD-Solid
 62
     7
370
    25
100
AcDbCircle
 10
0.0000000001
 20
0.0000000001
 30
0.0
 40
34.74900000010776
100
AcDbArc
 50
224.3012330727
 51
225.6987669273
  0
ARC
  5
1F9
330
1F
100
AcDbEntity
  8
0
  6
SLD-Solid
 62
     7
370
    25
100
AcDbCircle
 10
-31.767150034
 20
-11.6294874432
 30
0.0
 40
14.39999999999991
100
AcDbArc
 50
289.0928331766
 51
298.6222209576
  0
ARC
  5
1FA
330
1F
100
AcDbEntity
  8
0
  6
SLD-Solid
 62
     7
370
    25
100
AcDbCircle
 10
0.0
 20
0.0
 30
0.0
 40
36.99999999997156
100
AcDbArc
 50
221.9927968891
 51
223.0072031109
  0
ARC
  5
1FB
330
1F
100
AcDbEntity
  8
0
  6
SLD-Solid
 62
     7
370
    25
100
AcDbCircle
 10
-14.3539232886
 20
-30.6326898215
 30
0.0
 40
14.39999999999896
100
AcDbArc
 50
146.3777790424
 51
155.9071668234
  0
ARC
  5
1FC
330
1F
100
AcDbEntity
  8
0
  6
SLD-Solid
 62
     7
370
    25
100
AcDbCircle
 10
0.0000000001
 20
0.0000000001
 30
0.0
 40
34.74900000016176
100
AcDbArc
 50
219.3012330727
 51
220.6987669273
  0
ARC
  5
1FD
330
1F
100
AcDbEntity
  8
0
  6
SLD-Solid
 62
     7
370
    25
100
AcDbCircle
 10
-32.6598430532
 20
-8.8165441762
 30
0.0
 40
14.40000000000051
100
AcDbArc
 50
284.0928331766
 51
293.6222209576
  0
ARC
  5
1FE
330
1F
100
AcDbEntity
  8
0
  6
SLD-Solid
 62
     7
370
    25
100
AcDbCircle
 10
-0.0000000001
 20
-0.0000000001
 30
0.0
 40
36.99999999983807
100
AcDbArc
 50
216.9927968891
 51
218.0072031109
  0
ARC
  5
1FF
330
1F
100
AcDbEntity
  8
0
  6
SLD-Solid
 62
     7
370
    25
100
AcDbCircle
 10
-16.9691171107
 20
-29.2650963429
 30
0.0
 40
14.40000000000155
100
AcDbArc
 50
141.3777790424
 51
150.9071668234
  0
ARC
  5
200
330
1F
100
AcDbEntity
  8
0
  6
SLD-Solid
 62
     7
370
    25
100
AcDbCircle
 10
0.0000000001
 20
0.0000000001
 30
0.0
 40
34.74900000010027
100
AcDbArc
 50
214.3012330727
 51
215.6987669273
  0
ARC
  5
201
330
1F
100
AcDbEntity
  8
0
  6
SLD-Solid
 62
     7
370
    25
100
AcDbCircle
 10
-33.3039749463
 20
-5.9365016845
 30
0.0
 40
14.40000000000056
100
AcDbArc
 50
279.0928331766
 51
288.6222209576
  0
ARC
  5
202
330
1F
100
AcDbEntity
  8
0
  6
SLD-Solid
 62
     7
370
    25
100
AcDbCircle
 10
-0.0000000001
 20
-0.0000000001
 30
0.0
 40
36.99999999990143
100
AcDbArc
 50
211.9927968891
 51
213.0072031109
  0
ARC
  5
203
330
1F
100
AcDbEntity
  8
0
  6
SLD-Solid
 62
     7
370
    25
100
AcDbCircle
 10
-19.4551657053
 20
-27.6747778104
 30
0.0
 40
14.39999999999961
100
AcDbArc
 50
136.3777790424
 51
145.9071668234
  0
ARC
  5
204
330
1F
100
AcDbEntity
  8
0
  6
SLD-Solid
 62
     7
370
    25
100
AcDbCircle
 10
0.0000000001
 20
0.0
 30
0.0
 40
34.74900000007992
100
AcDbArc
 50
209.3012330727
 51
210.6987669273
  0
ARC
  5
205
330
1F
100
AcDbEntity
  8
0
  6
SLD-Solid
 62
     7
370
    25
100
AcDbCircle
 10
-33.6946434805
 20
-3.0112788304
 30
0.0
 40
14.40000000000081
100
AcDbArc
 50
274.0928331766
 51
283.6222209576
  0
ARC
  5
206
330
1F
100
AcDbEntity
  8
0
  6
SLD-Solid
 62
     7
370
    25
100
AcDbCircle
 10
-0.0000000002
 20
-0.0000000001
 30
0.0
 40
36.99999999972935
100
AcDbArc
 50
206.9927968891
 51
208.0072031109
  0
ARC
  5
207
330
1F
100
AcDbEntity
  8
0
  6
SLD-Solid
 62
     7
370
    25
100
AcDbCircle
 10
-21.7931487416
 20
-25.8738375082
 30
0.0
 40
14.40000000000081
100
AcDbArc
 50
131.3777790424
 51
140.9071668234
  0
ARC
  5
208
330
1F
100
AcDbEntity
  8
0
  6
SLD-Solid
 62
     7
370
    25
100
AcDbCircle
 10
0.0000000001
 20
0.0
 30
0.0
 40
34.74900000009292
100
AcDbArc
 50
204.3012330727
 51
205.6987669274
  0
ARC
  5
209
330
1F
100
AcDbEntity
  8
0
  6
SLD-Solid
 62
     7
370
    25
100
AcDbCircle
 10
-33.8288754325
 20
-0.0631383262
 30
0.0
 40
14.39999999999914
100
AcDbArc
 50
269.0928331766
 51
278.6222209576
  0
ARC
  5
20A
330
1F
100
AcDbEntity
  8
0
  6
SLD-Solid
 62
     7
370
    25
100
AcDbCircle
 10
-0.0000000002
 20
-0.0000000001
 30
0.0
 40
36.99999999983181
100
AcDbArc
 50
201.9927968891
 51
203.0072031109
  0
ARC
  5
20B
330
1F
100
AcDbEntity
  8
0
  6
SLD-Solid
 62
     7
370
    25
100
AcDbCircle
 10
-23.9652727568
 20
-23.8759816796
 30
0.0
 40
14.39999999999898
100
AcDbArc
 50
126.3777790424
 51
135.9071668234
  0
ARC
  5
20C
330
1F
100
AcDbEntity
  8
0
  6
SLD-Solid
 62
     7
370
    25
100
AcDbCircle
 10
0.0000000001
 20
0.0
 30
0.0
 40
34.74900000010441
100
AcDbArc
 50
199.3012330727
 51
200.6987669273
  0
ARC
  5
20D
330
1F
100
AcDbEntity
  8
0
  6
SLD-Solid
 62
     7
370
    25
100
AcDbCircle
 10
-33.7056492159
 20
2.8854826988
 30
0.0
 40
14.40000000000046
100
AcDbArc
 50
264.0928331766
 51
273.6222209576
  0
ARC
  5
20E
330
1F
100
AcDbEntity
  8
0
  6
SLD-Solid
 62
     7
370
    25
100
AcDbCircle
 10
-0.0000000001
 20
0.0
 30
0.0
 40
36.9999999998903
100
AcDbArc
 50
196.9927968891
 51
198.0072031109
  0
ARC
  5
20F
330
1F
100
AcDbEntity
  8
0
  6
SLD-Solid
 62
     7
370
    25
100
AcDbCircle
 10
-25.9550065758
 20
-21.6964152137
 30
0.0
 40
14.4000000000008
100
AcDbArc
 50
121.3777790424
 51
130.9071668234
  0
ARC
  5
210
330
1F
100
AcDbEntity
  8
0
  6
SLD-Solid
 62
     7
370
    25
100
AcDbCircle
 10
0.0000000001
 20
0.0
 30
0.0
 40
34.74900000014521
100
AcDbArc
 50
194.3012330727
 51
195.6987669273
  0
ARC
  5
211
330
1F
100
AcDbEntity
  8
0
  6
SLD-Solid
 62
     7
370
    25
100
AcDbCircle
 10
-33.3259026569
 20
5.8121434582
 30
0.0
 40
14.40000000000015
100
AcDbArc
 50
259.0928331766
 51
268.6222209576
  0
ARC
  5
212
330
1F
100
AcDbEntity
  8
0
  6
SLD-Solid
 62
     7
370
    25
100
AcDbCircle
 10
-0.0000000002
 20
0.0
 30
0.0
 40
36.99999999983972
100
AcDbArc
 50
191.9927968891
 51
193.0072031109
  0
ARC
  5
213
330
1F
100
AcDbEntity
  8
0
  6
SLD-Solid
 62
     7
370
    25
100
AcDbCircle
 10
-27.7472071226
 20
-19.3517259273
 30
0.0
 40
14.39999999999997
100
AcDbArc
 50
116.3777790424
 51
125.9071668234
  0
ARC
  5
214
330
1F
100
AcDbEntity
  8
0
  6
SLD-Solid
 62
     7
370
    25
100
AcDbCircle
 10
0.0000000002
 20
0.0
 30
0.0
 40
34.7490000001529
100
AcDbArc
 50
189.3012330727
 51
190.6987669273
  0
ARC
  5
215
330
1F
100
AcDbEntity
  8
0
  6
SLD-Solid
 62
     7
370
    25
100
AcDbCircle
 10
-32.6925258558
 20
8.6945702964
 30
0.0
 40
14.39999999999983
100
AcDbArc
 50
254.0928331766
 51
263.6222209576
  0
ARC
  5
216
330
1F
100
AcDbEntity
  8
0
  6
SLD-Solid
 62
     7
370
    25
100
AcDbCircle
 10
-0.0000000002
 20
0.0
 30
0.0
 40
36.99999999980759
100
AcDbArc
 50
186.9927968891
 51
188.0072031109
  0
ARC
  5
217
330
1F
100
AcDbEntity
  8
0
  6
SLD-Solid
 62
     7
370
    25
100
AcDbCircle
 10
-29.3282346691
 20
-16.8597583218
 30
0.0
 40
14.40000000000029
100
AcDbArc
 50
111.3777790424
 51
120.9071668234
  0
ARC
  5
218
330
1F
100
AcDbEntity
  8
0
  6
SLD-Solid
 62
     7
370
    25
100
AcDbCircle
 10
0.0000000001
 20
0.0
 30
0.0
 40
34.74900000011586
100
AcDbArc
 50
184.3012330727
 51
185.6987669273
  0
ARC
  5
219
330
1F
100
AcDbEntity
  8
0
  6
SLD-Solid
 62
     7
370
    25
100
AcDbCircle
 10
-31.8103391928
 20
11.5108262047
 30
0.0
 40
14.39999999999919
100
AcDbArc
 50
249.0928331766
 51
258.6222209576
  0
ARC
  5
21A
330
1F
100
AcDbEntity
  8
0
  6
SLD-Solid
 62
     7
370
    25
100
AcDbCircle
 10
-0.0000000001
 20
0.0
 30
0.0
 40
36.9999999999448
100
AcDbArc
 50
181.9927968891
 51
183.0072031109
  0
ARC
  5
21B
330
1F
100
AcDbEntity
  8
0
  6
SLD-Solid
 62
     7
370
    25
100
AcDbCircle
 10
-30.6860566408
 20
-14.2394777752
 30
0.0
 40
14.40000000000077
100
AcDbArc
 50
106.3777790424
 51
115.9071668234
  0
ARC
  5
21C
330
1F
100
AcDbEntity
  8
0
  6
SLD-Solid
 62
     7
370
    25
100
AcDbCircle
 10
0.0000000002
 20
0.0
 30
0.0
 40
34.74900000016619
100
AcDbArc
 50
179.3012330727
 51
180.6987669273
  0
ARC
  5
21D
330
1F
100
AcDbEntity
  8
0
  6
SLD-Solid
 62
     7
370
    25
100
AcDbCircle
 10
-30.6860566408
 20
14.2394777752
 30
0.0
 40
14.40000000000106
100
AcDbArc
 50
244.0928331766
 51
253.6222209576
  0
ARC
  5
21E
330
1F
100
AcDbEntity
  8
0
  6
SLD-Solid
 62
     7
370
    25
100
AcDbCircle
 10
-31.8103391928
 20
-11.5108262047
 30
0.0
 40
14.40000000000029
100
AcDbArc
 50
101.3777790424
 51
110.9071668234
  0
ARC
  5
21F
330
1F
100
AcDbEntity
  8
0
  6
SLD-Solid
 62
     7
370
    25
100
AcDbCircle
 10
0.0000000001
 20
0.0
 30
0.0
 40
34.74900000010008
100
AcDbArc
 50
174.3012330727
 51
175.6987669273
  0
ARC
  5
220
330
1F
100
AcDbEntity
  8
0
  6
SLD-Solid
 62
     7
370
    25
100
AcDbCircle
 10
-29.3282346691
 20
16.8597583218
 30
0.0
 40
14.40000000000027
100
AcDbArc
 50
239.0928331766
 51
248.6222209576
  0
ARC
  5
221
330
1F
100
AcDbEntity
  8
0
  6
SLD-Solid
 62
     7
370
    25
100
AcDbCircle
 10
0.0
 20
0.0
 30
0.0
 40
37.00000000002839
100
AcDbArc
 50
171.9927968891
 51
173.0072031109
  0
ARC
  5
222
330
1F
100
AcDbEntity
  8
0
  6
SLD-Solid
 62
     7
370
    25
100
AcDbCircle
 10
-32.6925258558
 20
-8.6945702964
 30
0.0
 40
14.4000000000005
100
AcDbArc
 50
96.3777790424
 51
105.9071668234
  0
ARC
  5
223
330
1F
100
AcDbEntity
  8
0
  6
SLD-Solid
 62
     7
370
    25
100
AcDbCircle
 10
0.0000000001
 20
0.0
 30
0.0
 40
34.74900000011282
100
AcDbArc
 50
169.3012330727
 51
170.6987669273
  0
ARC
  5
224
330
1F
100
AcDbEntity
  8
0
  6
SLD-Solid
 62
     7
370
    25
100
AcDbCircle
 10
-27.7472071226
 20
19.3517259273
 30
0.0
 40
14.40000000000046
100
AcDbArc
 50
234.0928331766
 51
243.6222209576
  0
ARC
  5
225
330
1F
100
AcDbEntity
  8
0
  6
SLD-Solid
 62
     7
370
    25
100
AcDbCircle
 10
0.0
 20
0.0
 30
0.0
 40
36.99999999999316
100
AcDbArc
 50
166.9927968891
 51
168.0072031109
  0
ARC
  5
226
330
1F
100
AcDbEntity
  8
0
  6
SLD-Solid
 62
     7
370
    25
100
AcDbCircle
 10
-33.3259026569
 20
-5.8121434582
 30
0.0
 40
14.40000000000042
100
AcDbArc
 50
91.3777790424
 51
100.9071668234
  0
ARC
  5
227
330
1F
100
AcDbEntity
  8
0
  6
SLD-Solid
 62
     7
370
    25
100
AcDbCircle
 10
0.0
 20
0.0
 30
0.0
 40
34.74900000004378
100
AcDbArc
 50
164.3012330726
 51
165.6987669273
  0
ARC
  5
228
330
1F
100
AcDbEntity
  8
0
  6
SLD-Solid
 62
     7
370
    25
100
AcDbCircle
 10
-25.9550065758
 20
21.6964152137
 30
0.0
 40
14.39999999999926
100
AcDbArc
 50
229.0928331766
 51
238.6222209576
  0
ARC
  5
229
330
1F
100
AcDbEntity
  8
0
  6
SLD-Solid
 62
     7
370
    25
100
AcDbCircle
 10
-0.0000000001
 20
0.0
 30
0.0
 40
36.99999999991348
100
AcDbArc
 50
161.9927968891
 51
163.0072031109
  0
ARC
  5
22A
330
1F
100
AcDbEntity
  8
0
  6
SLD-Solid
 62
     7
370
    25
100
AcDbCircle
 10
-33.7056492159
 20
-2.8854826988
 30
0.0
 40
14.40000000000014
100
AcDbArc
 50
86.3777790424
 51
95.9071668234
  0
ARC
  5
22B
330
1F
100
AcDbEntity
  8
0
  6
SLD-Solid
 62
     7
370
    25
100
AcDbCircle
 10
0.0
 20
0.0
 30
0.0
 40
34.7490000000257
100
AcDbArc
 50
159.3012330726
 51
160.6987669273
  0
ARC
  5
22C
330
1F
100
AcDbEntity
  8
0
  6
SLD-Solid
 62
     7
370
    25
100
AcDbCircle
 10
-23.9652727568
 20
23.8759816796
 30
0.0
 40
14.39999999999853
100
AcDbArc
 50
224.0928331766
 51
233.6222209576
  0
ARC
  5
22D
330
1F
100
AcDbEntity
  8
0
  6
SLD-Solid
 62
     7
370
    25
100
AcDbCircle
 10
-0.0000000001
 20
0.0
 30
0.0
 40
36.99999999988572
100
AcDbArc
 50
156.9927968891
 51
158.0072031109
  0
ARC
  5
22E
330
1F
100
AcDbEntity
  8
0
  6
SLD-Solid
 62
     7
370
    25
100
AcDbCircle
 10
-33.8288754325
 20
0.0631383262
 30
0.0
 40
14.40000000000013
100
AcDbArc
 50
81.3777790424
 51
90.9071668234
  0
ARC
  5
22F
330
1F
100
AcDbEntity
  8
0
  6
SLD-Solid
 62
     7
370
    25
100
AcDbCircle
 10
0.0000000001
 20
0.0
 30
0.0
 40
34.74900000006956
100
AcDbArc
 50
154.3012330727
 51
155.6987669273
  0
ARC
  5
230
330
1F
100
AcDbEntity
  8
0
  6
SLD-Solid
 62
     7
370
    25
100
AcDbCircle
 10
-21.7931487416
 20
25.8738375082
 30
0.0
 40
14.39999999999976
100
AcDbArc
 50
219.0928331766
 51
228.6222209576
  0
ARC
  5
231
330
1F
100
AcDbEntity
  8
0
  6
SLD-Solid
 62
     7
370
    25
100
AcDbCircle
 10
-0.0000000003
 20
0.0000000001
 30
0.0
 40
36.9999999997121
100
AcDbArc
 50
151.9927968891
 51
153.0072031109
  0
ARC
  5
232
330
1F
100
AcDbEntity
  8
0
  6
SLD-Solid
 62
     7
370
    25
100
AcDbCircle
 10
-33.6946434805
 20
3.0112788304
 30
0.0
 40
14.40000000000109
100
AcDbArc
 50
76.3777790424
 51
85.9071668234
  0
ARC
  5
233
330
1F
100
AcDbEntity
  8
0
  6
SLD-Solid
 62
     7
370
    25
100
AcDbCircle
 10
0.0000000001
 20
-0.0000000001
 30
0.0
 40
34.74900000010393
100
AcDbArc
 50
149.3012330727
 51
150.6987669273
  0
ARC
  5
234
330
1F
100
AcDbEntity
  8
0
  6
SLD-Solid
 62
     7
370
    25
100
AcDbCircle
 10
-19.4551657053
 20
27.6747778104
 30
0.0
 40
14.40000000000048
100
AcDbArc
 50
214.0928331766
 51
223.6222209576
  0
ARC
  5
235
330
1F
100
AcDbEntity
  8
0
  6
SLD-Solid
 62
     7
370
    25
100
AcDbCircle
 10
-0.0000000002
 20
0.0000000001
 30
0.0
 40
36.99999999981358
100
AcDbArc
 50
146.9927968891
 51
148.0072031109
  0
ARC
  5
236
330
1F
100
AcDbEntity
  8
0
  6
SLD-Solid
 62
     7
370
    25
100
AcDbCircle
 10
-33.3039749463
 20
5.9365016845
 30
0.0
 40
14.40000000000175
100
AcDbArc
 50
71.3777790424
 51
80.9071668234
  0
ARC
  5
237
330
1F
100
AcDbEntity
  8
0
  6
SLD-Solid
 62
     7
370
    25
100
AcDbCircle
 10
0.0000000001
 20
0.0
 30
0.0
 40
34.7490000000728
100
AcDbArc
 50
144.3012330727
 51
145.6987669273
  0
ARC
  5
238
330
1F
100
AcDbEntity
  8
0
  6
SLD-Solid
 62
     7
370
    25
100
AcDbCircle
 10
-16.9691171107
 20
29.2650963429
 30
0.0
 40
14.40000000000087
100
AcDbArc
 50
209.0928331766
 51
218.6222209576
  0
ARC
  5
239
330
1F
100
AcDbEntity
  8
0
  6
SLD-Solid
 62
     7
370
    25
100
AcDbCircle
 10
-0.0000000001
 20
0.0000000001
 30
0.0
 40
36.99999999983327
100
AcDbArc
 50
141.9927968891
 51
143.0072031109
  0
ARC
  5
23A
330
1F
100
AcDbEntity
  8
0
  6
SLD-Solid
 62
     7
370
    25
100
AcDbCircle
 10
-32.6598430532
 20
8.8165441762
 30
0.0
 40
14.40000000000018
100
AcDbArc
 50
66.3777790424
 51
75.9071668234
  0
ARC
  5
23B
330
1F
100
AcDbEntity
  8
0
  6
SLD-Solid
 62
     7
370
    25
100
AcDbCircle
 10
0.0000000001
 20
-0.0000000001
 30
0.0
 40
34.74900000012863
100
AcDbArc
 50
139.3012330727
 51
140.6987669273
  0
ARC
  5
23C
330
1F
100
AcDbEntity
  8
0
  6
SLD-Solid
 62
     7
370
    25
100
AcDbCircle
 10
-14.3539232886
 20
30.6326898215
 30
0.0
 40
14.40000000000013
100
AcDbArc
 50
204.0928331766
 51
213.6222209576
  0
ARC
  5
23D
330
1F
100
AcDbEntity
  8
0
  6
SLD-Solid
 62
     7
370
    25
100
AcDbCircle
 10
0.0
 20
0.0
 30
0.0
 40
36.99999999996996
100
AcDbArc
 50
136.9927968891
 51
138.0072031109
  0
ARC
  5
23E
330
1F
100
AcDbEntity
  8
0
  6
SLD-Solid
 62
     7
370
    25
100
AcDbCircle
 10
-31.767150034
 20
11.6294874432
 30
0.0
 40
14.40000000000032
100
AcDbArc
 50
61.3777790424
 51
70.9071668234
  0
ARC
  5
23F
330
1F
100
AcDbEntity
  8
0
  6
SLD-Solid
 62
     7
370
    25
100
AcDbCircle
 10
0.0000000001
 20
-0.0000000001
 30
0.0
 40
34.74900000009585
100
AcDbArc
 50
134.3012330727
 51
135.6987669273
  0
ARC
  5
240
330
1F
100
AcDbEntity
  8
0
  6
SLD-Solid
 62
     7
370
    25
100
AcDbCircle
 10
-11.6294874432
 20
31.767150034
 30
0.0
 40
14.40000000000098
100
AcDbArc
 50
199.0928331766
 51
208.6222209576
  0
ARC
  5
241
330
1F
100
AcDbEntity
  8
0
  6
SLD-Solid
 62
     7
370
    25
100
AcDbCircle
 10
-0.0000000001
 20
0.0000000001
 30
0.0
 40
36.99999999987141
100
AcDbArc
 50
131.9927968891
 51
133.0072031109
  0
ARC
  5
242
330
1F
100
AcDbEntity
  8
0
  6
SLD-Solid
 62
     7
370
    25
100
AcDbCircle
 10
-30.6326898215
 20
14.3539232886
 30
0.0
 40
14.40000000000101
100
AcDbArc
 50
56.3777790424
 51
65.9071668234
  0
ARC
  5
243
330
1F
100
AcDbEntity
  8
0
  6
SLD-Solid
 62
     7
370
    25
100
AcDbCircle
 10
0.0
 20
0.0
 30
0.0
 40
34.74900000003355
100
AcDbArc
 50
129.3012330726
 51
130.6987669273
  0
ARC
  5
244
330
1F
100
AcDbEntity
  8
0
  6
SLD-Solid
 62
     7
370
    25
100
AcDbCircle
 10
-8.8165441762
 20
32.6598430532
 30
0.0
 40
14.39999999999898
100
AcDbArc
 50
194.0928331766
 51
203.6222209576
  0
ARC
  5
245
330
1F
100
AcDbEntity
  8
0
  6
SLD-Solid
 62
     7
370
    25
100
AcDbCircle
 10
-0.0000000001
 20
0.0000000001
 30
0.0
 40
36.99999999989213
100
AcDbArc
 50
126.9927968891
 51
128.0072031109
  0
ARC
  5
246
330
1F
100
AcDbEntity
  8
0
  6
SLD-Solid
 62
     7
370
    25
100
AcDbCircle
 10
-29.2650963429
 20
16.9691171107
 30
0.0
 40
14.40000000000055
100
AcDbArc
 50
51.3777790424
 51
60.9071668234
  0
ARC
  5
247
330
1F
100
AcDbEntity
  8
0
  6
SLD-Solid
 62
     7
370
    25
100
AcDbCircle
 10
0.0
 20
0.0
 30
0.0
 40
34.74900000005392
100
AcDbArc
 50
124.3012330726
 51
125.6987669273
  0
ARC
  5
248
330
1F
100
AcDbEntity
  8
0
  6
SLD-Solid
 62
     7
370
    25
100
AcDbCircle
 10
-5.9365016845
 20
33.3039749463
 30
0.0
 40
14.39999999999992
100
AcDbArc
 50
189.0928331766
 51
198.6222209576
  0
ARC
  5
249
330
1F
100
AcDbEntity
  8
0
  6
SLD-Solid
 62
     7
370
    25
100
AcDbCircle
 10
0.0
 20
0.0
 30
0.0
 40
37.00000000002427
100
AcDbArc
 50
121.9927968891
 51
123.0072031109
  0
ARC
  5
24A
330
1F
100
AcDbEntity
  8
0
  6
SLD-Solid
 62
     7
370
    25
100
AcDbCircle
 10
-27.6747778104
 20
19.4551657053
 30
0.0
 40
14.40000000000029
100
AcDbArc
 50
46.3777790424
 51
55.9071668234
  0
ARC
  5
24B
330
1F
100
AcDbEntity
  8
0
  6
SLD-Solid
 62
     7
370
    25
100
AcDbCircle
 10
0.0
 20
-0.0000000001
 30
0.0
 40
34.74900000009746
100
AcDbArc
 50
119.3012330727
 51
120.6987669273
  0
ARC
  5
24C
330
1F
100
AcDbEntity
  8
0
  6
SLD-Solid
 62
     7
370
    25
100
AcDbCircle
 10
-3.0112788304
 20
33.6946434805
 30
0.0
 40
14.40000000000076
100
AcDbArc
 50
184.0928331766
 51
193.6222209576
  0
ARC
  5
24D
330
1F
100
AcDbEntity
  8
0
  6
SLD-Solid
 62
     7
370
    25
100
AcDbCircle
 10
-0.0000000001
 20
0.0000000001
 30
0.0
 40
36.9999999998312
100
AcDbArc
 50
116.9927968891
 51
118.0072031109
  0
ARC
  5
24E
330
1F
100
AcDbEntity
  8
0
  6
SLD-Solid
 62
     7
370
    25
100
AcDbCircle
 10
-25.8738375082
 20
21.7931487416
 30
0.0
 40
14.40000000000107
100
AcDbArc
 50
41.3777790424
 51
50.9071668234
  0
ARC
  5
24F
330
1F
100
AcDbEntity
  8
0
  6
SLD-Solid
 62
     7
370
    25
100
AcDbCircle
 10
0.0000000001
 20
-0.0000000002
 30
0.0
 40
34.74900000016863
100
AcDbArc
 50
114.3012330727
 51
115.6987669273
  0
ARC
  5
250
330
1F
100
AcDbEntity
  8
0
  6
SLD-Solid
 62
     7
370
    25
100
AcDbCircle
 10
-0.0631383262
 20
33.8288754325
 30
0.0
 40
14.40000000000002
100
AcDbArc
 50
179.0928331766
 51
188.6222209576
  0
ARC
  5
251
330
1F
100
AcDbEntity
  8
0
  6
SLD-Solid
 62
     7
370
    25
100
AcDbCircle
 10
-0.0000000001
 20
0.0000000002
 30
0.0
 40
36.9999999998286
100
AcDbArc
 50
111.9927968891
 51
113.0072031109
  0
ARC
  5
252
330
1F
100
AcDbEntity
  8
0
  6
SLD-Solid
 62
     7
370
    25
100
AcDbCircle
 10
-23.8759816796
 20
23.9652727568
 30
0.0
 40
14.39999999999941
100
AcDbArc
 50
36.3777790424
 51
45.9071668234
  0
ARC
  5
253
330
1F
100
AcDbEntity
  8
0
  6
SLD-Solid
 62
     7
370
    25
100
AcDbCircle
 10
0.0
 20
-0.0000000001
 30
0.0
 40
34.74900000005791
100
AcDbArc
 50
109.3012330727
 51
110.6987669273
  0
ARC
  5
254
330
1F
100
AcDbEntity
  8
0
  6
SLD-Solid
 62
     7
370
    25
100
AcDbCircle
 10
2.8854826988
 20
33.7056492159
 30
0.0
 40
14.39999999999898
100
AcDbArc
 50
174.0928331766
 51
183.6222209576
  0
ARC
  5
255
330
1F
100
AcDbEntity
  8
0
  6
SLD-Solid
 62
     7
370
    25
100
AcDbCircle
 10
-0.0000000001
 20
0.0000000002
 30
0.0
 40
36.99999999981317
100
AcDbArc
 50
106.9927968891
 51
108.0072031109
  0
ARC
  5
256
330
1F
100
AcDbEntity
  8
0
  6
SLD-Solid
 62
     7
370
    25
100
AcDbCircle
 10
-21.6964152137
 20
25.9550065758
 30
0.0
 40
14.40000000000063
100
AcDbArc
 50
31.3777790424
 51
40.9071668234
  0
ARC
  5
257
330
1F
100
AcDbEntity
  8
0
  6
SLD-Solid
 62
     7
370
    25
100
AcDbCircle
 10
0.0
 20
-0.0000000002
 30
0.0
 40
34.74900000016427
100
AcDbArc
 50
104.3012330727
 51
105.6987669273
  0
ARC
  5
258
330
1F
100
AcDbEntity
  8
0
  6
SLD-Solid
 62
     7
370
    25
100
AcDbCircle
 10
5.8121434582
 20
33.3259026569
 30
0.0
 40
14.40000000000047
100
AcDbArc
 50
169.0928331766
 51
178.6222209576
  0
ARC
  5
259
330
1F
100
AcDbEntity
  8
0
  6
SLD-Solid
 62
     7
370
    25
100
AcDbCircle
 10
0.0
 20
0.0000000002
 30
0.0
 40
36.99999999977817
100
AcDbArc
 50
101.9927968891
 51
103.0072031109
  0
ARC
  5
25A
330
1F
100
AcDbEntity
  8
0
  6
SLD-Solid
 62
     7
370
    25
100
AcDbCircle
 10
-19.3517259273
 20
27.7472071226
 30
0.0
 40
14.40000000000036
100
AcDbArc
 50
26.3777790424
 51
35.9071668234
  0
ARC
  5
25B
330
1F
100
AcDbEntity
  8
0
  6
SLD-Solid
 62
     7
370
    25
100
AcDbCircle
 10
0.0
 20
-0.0000000001
 30
0.0
 40
34.74900000009303
100
AcDbArc
 50
99.3012330727
 51
100.6987669273
  0
ARC
  5
25C
330
1F
100
AcDbEntity
  8
0
  6
SLD-Solid
 62
     7
370
    25
100
AcDbCircle
 10
8.6945702964
 20
32.6925258558
 30
0.0
 40
14.39999999999975
100
AcDbArc
 50
164.0928331766
 51
173.6222209576
  0
ARC
  5
25D
330
1F
100
AcDbEntity
  8
0
  6
SLD-Solid
 62
     7
370
    25
100
AcDbCircle
 10
0.0
 20
0.0000000002
 30
0.0
 40
36.99999999977717
100
AcDbArc
 50
96.9927968891
 51
98.0072031109
  0
ARC
  5
25E
330
1F
100
AcDbEntity
  8
0
  6
SLD-Solid
 62
     7
370
    25
100
AcDbCircle
 10
-16.8597583218
 20
29.3282346691
 30
0.0
 40
14.40000000000044
100
AcDbArc
 50
21.3777790424
 51
30.9071668234
  0
ARC
  5
25F
330
1F
100
AcDbEntity
  8
0
  6
SLD-Solid
 62
     7
370
    25
100
AcDbCircle
 10
0.0
 20
-0.0000000002
 30
0.0
 40
34.74900000017502
100
AcDbArc
 50
94.3012330727
 51
95.6987669273
  0
ARC
  5
260
330
1F
100
AcDbEntity
  8
0
  6
SLD-Solid
 62
     7
370
    25
100
AcDbCircle
 10
11.5108262047
 20
31.8103391928
 30
0.0
 40
14.39999999999966
100
AcDbArc
 50
159.0928331766
 51
168.6222209576
  0
ARC
  5
261
330
1F
100
AcDbEntity
  8
0
  6
SLD-Solid
 62
     7
370
    25
100
AcDbCircle
 10
0.0
 20
0.0000000001
 30
0.0
 40
36.9999999998869
100
AcDbArc
 50
91.9927968891
 51
93.0072031109
  0
ARC
  5
262
330
1F
100
AcDbEntity
  8
0
  6
SLD-Solid
 62
     7
370
    25
100
AcDbCircle
 10
-14.2394777752
 20
30.6860566408
 30
0.0
 40
14.40000000000153
100
AcDbArc
 50
16.3777790424
 51
25.9071668234
  0
ARC
  5
263
330
1F
100
AcDbEntity
  8
0
  6
SLD-Solid
 62
     7
370
    25
100
AcDbCircle
 10
0.0
 20
-0.0000000001
 30
0.0
 40
34.74900000009189
100
AcDbArc
 50
89.3012330727
 51
90.6987669273
  0
ARC
  5
264
330
1F
100
AcDbEntity
  8
0
  6
SLD-Solid
 62
     7
370
    25
100
AcDbCircle
 10
14.2394777752
 20
30.6860566408
 30
0.0
 40
14.40000000000086
100
AcDbArc
 50
154.0928331766
 51
163.6222209576
  0
ARC
  5
265
330
1F
100
AcDbEntity
  8
0
  6
SLD-Solid
 62
     7
370
    25
100
AcDbCircle
 10
0.0
 20
-0.0000000001
 30
0.0
 40
37.00000000005335
100
AcDbArc
 50
86.9927968891
 51
88.0072031109
  0
ARC
  5
266
330
1F
100
AcDbEntity
  8
0
  6
SLD-Solid
 62
     7
370
    25
100
AcDbCircle
 10
-11.5108262047
 20
31.8103391928
 30
0.0
 40
14.40000000000004
100
AcDbArc
 50
11.3777790424
 51
20.9071668234
  0
ARC
  5
267
330
1F
100
AcDbEntity
  8
0
  6
SLD-Solid
 62
     7
370
    25
100
AcDbCircle
 10
0.0
 20
-0.0000000001
 30
0.0
 40
34.74900000011634
100
AcDbArc
 50
84.3012330727
 51
85.6987669273
  0
ARC
  5
268
330
1F
100
AcDbEntity
  8
0
  6
SLD-Solid
 62
     7
370
    25
100
AcDbCircle
 10
16.8597583218
 20
29.3282346691
 30
0.0
 40
14.40000000000138
100
AcDbArc
 50
149.0928331766
 51
158.6222209576
  0
ARC
  5
269
330
1F
100
AcDbEntity
  8
0
  6
SLD-Solid
 62
     7
370
    25
100
AcDbCircle
 10
0.0
 20
0.0000000001
 30
0.0
 40
36.9999999998897
100
AcDbArc
 50
81.9927968891
 51
83.0072031109
  0
ARC
  5
26A
330
1F
100
AcDbEntity
  8
0
  6
SLD-Solid
 62
     7
370
    25
100
AcDbCircle
 10
-8.6945702964
 20
32.6925258558
 30
0.0
 40
14.40000000000027
100
AcDbArc
 50
6.3777790424
 51
15.9071668234
  0
ARC
  5
26B
330
1F
100
AcDbEntity
  8
0
  6
SLD-Solid
 62
     7
370
    25
100
AcDbCircle
 10
0.0
 20
-0.0000000001
 30
0.0
 40
34.74900000014122
100
AcDbArc
 50
79.3012330727
 51
80.6987669273
  0
ARC
  5
26C
330
1F
100
AcDbEntity
  8
0
  6
SLD-Solid
 62
     7
370
    25
100
AcDbCircle
 10
19.3517259273
 20
27.7472071226
 30
0.0
 40
14.39999999999936
100
AcDbArc
 50
144.0928331766
 51
153.6222209576
  0
ARC
  5
26D
330
1F
100
AcDbEntity
  8
0
  6
SLD-Solid
 62
     7
370
    25
100
AcDbCircle
 10
0.0
 20
0.0000000001
 30
0.0
 40
36.99999999987698
100
AcDbArc
 50
76.9927968891
 51
78.0072031109
  0
ARC
  5
26E
330
1F
100
AcDbEntity
  8
0
  6
SLD-Solid
 62
     7
370
    25
100
AcDbCircle
 10
-5.8121434582
 20
33.3259026569
 30
0.0
 40
14.40000000000036
100
AcDbArc
 50
1.3777790424
 51
10.9071668234
  0
ARC
  5
26F
330
1F
100
AcDbEntity
  8
0
  6
SLD-Solid
 62
     7
370
    25
100
AcDbCircle
 10
0.0
 20
-0.0000000001
 30
0.0
 40
34.74900000006579
100
AcDbArc
 50
74.3012330727
 51
75.6987669273
  0
ARC
  5
270
330
1F
100
AcDbEntity
  8
0
  6
SLD-Solid
 62
     7
370
    25
100
AcDbCircle
 10
21.6964152137
 20
25.9550065758
 30
0.0
 40
14.40000000000101
100
AcDbArc
 50
139.0928331766
 51
148.6222209576
  0
ARC
  5
271
330
1F
100
AcDbEntity
  8
0
  6
SLD-Solid
 62
     7
370
    25
100
AcDbCircle
 10
0.0
 20
0.0000000001
 30
0.0
 40
36.99999999987997
100
AcDbArc
 50
71.9927968891
 51
73.0072031109
  0
ARC
  5
272
330
1F
100
AcDbEntity
  8
0
  6
SLD-Solid
 62
     7
370
    25
100
AcDbCircle
 10
-2.8854826988
 20
33.7056492159
 30
0.0
 40
14.40000000000043
100
AcDbArc
 50
356.3777790424
 51
5.9071668234
  0
ARC
  5
273
330
1F
100
AcDbEntity
  8
0
  6
SLD-Solid
 62
     7
370
    25
100
AcDbCircle
 10
0.0
 20
-0.0000000001
 30
0.0
 40
34.74900000010808
100
AcDbArc
 50
69.3012330727
 51
70.6987669273
  0
ARC
  5
274
330
1F
100
AcDbEntity
  8
0
  6
SLD-Solid
 62
     7
370
    25
100
AcDbCircle
 10
23.8759816796
 20
23.9652727568
 30
0.0
 40
14.40000000000049
100
AcDbArc
 50
134.0928331766
 51
143.6222209576
  0
ARC
  5
275
330
1F
100
AcDbEntity
  8
0
  6
SLD-Solid
 62
     7
370
    25
100
AcDbCircle
 10
0.0
 20
0.0000000001
 30
0.0
 40
36.99999999993491
100
AcDbArc
 50
66.9927968891
 51
68.0072031109
  0
ARC
  5
276
330
1F
100
AcDbEntity
  8
0
  6
SLD-Solid
 62
     7
370
    25
100
AcDbCircle
 10
0.0631383262
 20
33.8288754325
 30
0.0
 40
14.40000000000064
100
AcDbArc
 50
351.3777790424
 51
0.9071668234
  0
ARC
  5
277
330
1F
100
AcDbEntity
  8
0
  6
SLD-Solid
 62
     7
370
    25
100
AcDbCircle
 10
0.0
 20
-0.0000000001
 30
0.0
 40
34.74900000009855
100
AcDbArc
 50
64.3012330727
 51
65.6987669273
  0
ARC
  5
278
330
1F
100
AcDbEntity
  8
0
  6
SLD-Solid
 62
     7
370
    25
100
AcDbCircle
 10
25.8738375082
 20
21.7931487416
 30
0.0
 40
14.40000000000016
100
AcDbArc
 50
129.0928331766
 51
138.6222209576
  0
ARC
  5
279
330
1F
100
AcDbEntity
  8
0
  6
SLD-Solid
 62
     7
370
    25
100
AcDbCircle
 10
0.0
 20
0.0
 30
0.0
 40
37.00000000001059
100
AcDbArc
 50
61.9927968891
 51
63.0072031109
  0
ARC
  5
27A
330
1F
100
AcDbEntity
  8
0
  6
SLD-Solid
 62
     7
370
    25
100
AcDbCircle
 10
3.0112788304
 20
33.6946434805
 30
0.0
 40
14.39999999999977
100
AcDbArc
 50
346.3777790424
 51
355.9071668234
  0
ARC
  5
27B
330
1F
100
AcDbEntity
  8
0
  6
SLD-Solid
 62
     7
370
    25
100
AcDbCircle
 10
-0.0000000001
 20
-0.0000000002
 30
0.0
 40
34.74900000017995
100
AcDbArc
 50
59.3012330727
 51
60.6987669273
  0
ARC
  5
27C
330
1F
100
AcDbEntity
  8
0
  6
SLD-Solid
 62
     7
370
    25
100
AcDbCircle
 10
27.6747778104
 20
19.4551657053
 30
0.0
 40
14.40000000000021
100
AcDbArc
 50
124.0928331766
 51
133.6222209576
  0
ARC
  5
27D
330
1F
100
AcDbEntity
  8
0
  6
SLD-Solid
 62
     7
370
    25
100
AcDbCircle
 10
0.0000000002
 20
0.0000000003
 30
0.0
 40
36.99999999967365
100
AcDbArc
 50
56.9927968891
 51
58.0072031109
  0
ARC
  5
27E
330
1F
100
AcDbEntity
  8
0
  6
SLD-Solid
 62
     7
370
    25
100
AcDbCircle
 10
5.9365016845
 20
33.3039749463
 30
0.0
 40
14.40000000000056
100
AcDbArc
 50
341.3777790424
 51
350.9071668234
  0
ARC
  5
27F
330
1F
100
AcDbEntity
  8
0
  6
SLD-Solid
 62
     7
370
    25
100
AcDbCircle
 10
-0.0000000001
 20
-0.0000000001
 30
0.0
 40
34.74900000009334
100
AcDbArc
 50
54.3012330727
 51
55.6987669273
  0
ARC
  5
280
330
1F
100
AcDbEntity
  8
0
  6
SLD-Solid
 62
     7
370
    25
100
AcDbCircle
 10
29.2650963429
 20
16.9691171107
 30
0.0
 40
14.4000000000014
100
AcDbArc
 50
119.0928331766
 51
128.6222209576
  0
ARC
  5
281
330
1F
100
AcDbEntity
  8
0
  6
SLD-Solid
 62
     7
370
    25
100
AcDbCircle
 10
0.0000000001
 20
0.0000000001
 30
0.0
 40
36.99999999988925
100
AcDbArc
 50
51.9927968891
 51
53.0072031109
  0
ARC
  5
282
330
1F
100
AcDbEntity
  8
0
  6
SLD-Solid
 62
     7
370
    25
100
AcDbCircle
 10
8.8165441762
 20
32.6598430532
 30
0.0
 40
14.40000000000116
100
AcDbArc
 50
336.3777790424
 51
345.9071668234
  0
ARC
  5
283
330
1F
100
AcDbEntity
  8
0
  6
SLD-Solid
 62
     7
370
    25
100
AcDbCircle
 10
-0.0000000001
 20
-0.0000000001
 30
0.0
 40
34.7490000001069
100
AcDbArc
 50
49.3012330727
 51
50.6987669273
  0
ARC
  5
284
330
1F
100
AcDbEntity
  8
0
  6
SLD-Solid
 62
     7
370
    25
100
AcDbCircle
 10
30.6326898215
 20
14.3539232886
 30
0.0
 40
14.39999999999961
100
AcDbArc
 50
114.0928331766
 51
123.6222209576
  0
ARC
  5
285
330
1F
100
AcDbEntity
  8
0
  6
SLD-Solid
 62
     7
370
    25
100
AcDbCircle
 10
0.0000000001
 20
0.0000000001
 30
0.0
 40
36.99999999991604
100
AcDbArc
 50
46.9927968891
 51
48.0072031109
  0
ARC
  5
286
330
1F
100
AcDbEntity
  8
0
  6
SLD-Solid
 62
     7
370
    25
100
AcDbCircle
 10
11.6294874432
 20
31.767150034
 30
0.0
 40
14.40000000000146
100
AcDbArc
 50
331.3777790424
 51
340.9071668234
  0
ARC
  5
287
330
1F
100
AcDbEntity
  8
0
  6
SLD-Solid
 62
     7
370
    25
100
AcDbCircle
 10
-0.0000000001
 20
-0.0000000001
 30
0.0
 40
34.7490000000755
100
AcDbArc
 50
44.3012330727
 51
45.6987669273
  0
ARC
  5
288
330
1F
100
AcDbEntity
  8
0
  6
SLD-Solid
 62
     7
370
    25
100
AcDbCircle
 10
31.767150034
 20
11.6294874432
 30
0.0
 40
14.39999999999907
100
AcDbArc
 50
109.0928331766
 51
118.6222209576
  0
ARC
  5
289
330
1F
100
AcDbEntity
  8
0
  6
SLD-Solid
 62
     7
370
    25
100
AcDbCircle
 10
0.0000000001
 20
0.0000000001
 30
0.0
 40
36.99999999981982
100
AcDbArc
 50
41.9927968891
 51
43.0072031109
  0
ARC
  5
28A
330
1F
100
AcDbEntity
  8
0
  6
SLD-Solid
 62
     7
370
    25
100
AcDbCircle
 10
14.3539232886
 20
30.6326898215
 30
0.0
 40
14.40000000000071
100
AcDbArc
 50
326.3777790424
 51
335.9071668234
  0
ARC
  5
28B
330
1F
100
AcDbEntity
  8
0
  6
SLD-Solid
 62
     7
370
    25
100
AcDbCircle
 10
-0.0000000001
 20
-0.0000000001
 30
0.0
 40
34.74900000008302
100
AcDbArc
 50
39.3012330727
 51
40.6987669273
  0
ARC
  5
28C
330
1F
100
AcDbEntity
  8
0
  6
SLD-Solid
 62
     7
370
    25
100
AcDbCircle
 10
32.6598430532
 20
8.8165441762
 30
0.0
 40
14.3999999999995
100
AcDbArc
 50
104.0928331766
 51
113.6222209576
  0
ARC
  5
28D
330
1F
100
AcDbEntity
  8
0
  6
SLD-Solid
 62
     7
370
    25
100
AcDbCircle
 10
0.0
 20
0.0
 30
0.0
 40
36.99999999994702
100
AcDbArc
 50
36.9927968891
 51
38.0072031109
  0
ARC
  5
28E
330
1F
100
AcDbEntity
  8
0
  6
SLD-Solid
 62
     7
370
    25
100
AcDbCircle
 10
16.9691171107
 20
29.2650963429
 30
0.0
 40
14.39999999999996
100
AcDbArc
 50
321.3777790424
 51
330.9071668234
  0
ARC
  5
28F
330
1F
100
AcDbEntity
  8
0
  6
SLD-Solid
 62
     7
370
    25
100
AcDbCircle
 10
-0.0000000001
 20
-0.0000000001
 30
0.0
 40
34.74900000009556
100
AcDbArc
 50
34.3012330727
 51
35.6987669273
  0
ARC
  5
290
330
1F
100
AcDbEntity
  8
0
  6
SLD-Solid
 62
     7
370
    25
100
AcDbCircle
 10
33.3039749463
 20
5.9365016845
 30
0.0
 40
14.39999999999961
100
AcDbArc
 50
99.0928331766
 51
108.6222209576
  0
ARC
  5
291
330
1F
100
AcDbEntity
  8
0
  6
SLD-Solid
 62
     7
370
    25
100
AcDbCircle
 10
0.0000000002
 20
0.0000000001
 30
0.0
 40
36.99999999976747
100
AcDbArc
 50
31.9927968891
 51
33.0072031109
  0
ARC
  5
292
330
1F
100
AcDbEntity
  8
0
  6
SLD-Solid
 62
     7
370
    25
100
AcDbCircle
 10
19.4551657053
 20
27.6747778104
 30
0.0
 40
14.4000000000014
100
AcDbArc
 50
316.3777790424
 51
325.9071668234
  0
ARC
  5
293
330
1F
100
AcDbEntity
  8
0
  6
SLD-Solid
 62
     7
370
    25
100
AcDbCircle
 10
-0.0000000001
 20
-0.0000000001
 30
0.0
 40
34.74900000012657
100
AcDbArc
 50
29.3012330727
 51
30.6987669273
  0
ARC
  5
294
330
1F
100
AcDbEntity
  8
0
  6
SLD-Solid
 62
     7
370
    25
100
AcDbCircle
 10
33.6946434805
 20
3.0112788304
 30
0.0
 40
14.40000000000095
100
AcDbArc
 50
94.0928331766
 51
103.6222209576
  0
ARC
  5
295
330
1F
100
AcDbEntity
  8
0
  6
SLD-Solid
 62
     7
370
    25
100
AcDbCircle
 10
0.0000000003
 20
0.0000000002
 30
0.0
 40
36.99999999962994
100
AcDbArc
 50
26.9927968891
 51
28.0072031109
  0
ARC
  5
296
330
1F
100
AcDbEntity
  8
0
  6
SLD-Solid
 62
     7
370
    25
100
AcDbCircle
 10
21.7931487416
 20
25.8738375082
 30
0.0
 40
14.40000000000101
100
AcDbArc
 50
311.3777790424
 51
320.9071668234
  0
ARC
  5
297
330
1F
100
AcDbEntity
  8
0
  6
SLD-Solid
 62
     7
370
    25
100
AcDbCircle
 10
0.0
 20
0.0
 30
0.0
 40
34.74900000005466
100
AcDbArc
 50
24.3012330727
 51
25.6987669273
  0
ARC
  5
298
330
1F
100
AcDbEntity
  8
0
  6
SLD-Solid
 62
     7
370
    25
100
AcDbCircle
 10
33.8288754325
 20
0.0631383262
 30
0.0
 40
14.39999999999982
100
AcDbArc
 50
89.0928331766
 51
98.6222209576
  0
ARC
  5
299
330
1F
100
AcDbEntity
  8
0
  6
SLD-Solid
 62
     7
370
    25
100
AcDbCircle
 10
0.0000000002
 20
0.0000000001
 30
0.0
 40
36.99999999981021
100
AcDbArc
 50
21.9927968891
 51
23.0072031109
  0
ARC
  5
29A
330
1F
100
AcDbEntity
  8
0
  6
SLD-Solid
 62
     7
370
    25
100
AcDbCircle
 10
23.9652727568
 20
23.8759816796
 30
0.0
 40
14.40000000000119
100
AcDbArc
 50
306.3777790424
 51
315.9071668234
  0
ARC
  5
29B
330
1F
100
AcDbEntity
  8
0
  6
SLD-Solid
 62
     7
370
    25
100
AcDbCircle
 10
-0.0000000002
 20
-0.0000000001
 30
0.0
 40
34.74900000016056
100
AcDbArc
 50
19.3012330727
 51
20.6987669273
  0
ARC
  5
29C
330
1F
100
AcDbEntity
  8
0
  6
SLD-Solid
 62
     7
370
    25
100
AcDbCircle
 10
33.7056492159
 20
-2.8854826988
 30
0.0
 40
14.39999999999941
100
AcDbArc
 50
84.0928331766
 51
93.6222209576
  0
ARC
  5
29D
330
1F
100
AcDbEntity
  8
0
  6
SLD-Solid
 62
     7
370
    25
100
AcDbCircle
 10
0.0000000002
 20
0.0000000001
 30
0.0
 40
36.99999999981767
100
AcDbArc
 50
16.9927968891
 51
18.0072031109
  0
ARC
  5
29E
330
1F
100
AcDbEntity
  8
0
  6
SLD-Solid
 62
     7
370
    25
100
AcDbCircle
 10
25.9550065758
 20
21.6964152137
 30
0.0
 40
14.4000000000007
100
AcDbArc
 50
301.3777790424
 51
310.9071668234
  0
ARC
  5
29F
330
1F
100
AcDbEntity
  8
0
  6
SLD-Solid
 62
     7
370
    25
100
AcDbCircle
 10
-0.0000000002
 20
0.0
 30
0.0
 40
34.7490000001604
100
AcDbArc
 50
14.3012330727
 51
15.6987669273
  0
ARC
  5
2A0
330
1F
100
AcDbEntity
  8
0
  6
SLD-Solid
 62
     7
370
    25
100
AcDbCircle
 10
33.3259026569
 20
-5.8121434582
 30
0.0
 40
14.39999999999956
100
AcDbArc
 50
79.0928331766
 51
88.6222209576
  0
ARC
  5
2A1
330
1F
100
AcDbEntity
  8
0
  6
SLD-Solid
 62
     7
370
    25
100
AcDbCircle
 10
0.0000000001
 20
0.0
 30
0.0
 40
36.9999999999099
100
AcDbArc
 50
11.9927968891
 51
13.0072031109
  0
ARC
  5
2A2
330
1F
100
AcDbEntity
  8
0
  6
SLD-Solid
 62
     7
370
    25
100
AcDbCircle
 10
27.7472071226
 20
19.3517259273
 30
0.0
 40
14.40000000000106
100
AcDbArc
 50
296.3777790424
 51
305.9071668234
  0
ARC
  5
2A3
330
1F
100
AcDbEntity
  8
0
  6
SLD-Solid
 62
     7
370
    25
100
AcDbCircle
 10
-0.0000000002
 20
0.0
 30
0.0
 40
34.74900000016736
100
AcDbArc
 50
9.3012330727
 51
10.6987669273
  0
ARC
  5
2A4
330
1F
100
AcDbEntity
  8
0
  6
SLD-Solid
 62
     7
370
    25
100
AcDbCircle
 10
32.6925258558
 20
-8.6945702964
 30
0.0
 40
14.40000000000057
100
AcDbArc
 50
74.0928331766
 51
83.6222209576
  0
ARC
  5
2A5
330
1F
100
AcDbEntity
  8
0
  6
SLD-Solid
 62
     7
370
    25
100
AcDbCircle
 10
0.0000000004
 20
0.0000000001
 30
0.0
 40
36.99999999958755
100
AcDbArc
 50
6.9927968891
 51
8.0072031109
  0
ARC
  5
2A6
330
1F
100
AcDbEntity
  8
0
  6
SLD-Solid
 62
     7
370
    25
100
AcDbCircle
 10
29.3282346691
 20
16.8597583218
 30
0.0
 40
14.40000000000065
100
AcDbArc
 50
291.3777790424
 51
300.9071668234
  0
ARC
  5
2A7
330
1F
100
AcDbEntity
  8
0
  6
SLD-Solid
 62
     7
370
    25
100
AcDbCircle
 10
0.0
 20
0.0
 30
0.0
 40
34.74900000004135
100
AcDbArc
 50
4.3012330727
 51
5.6987669273
  0
ARC
  5
2A8
330
1F
100
AcDbEntity
  8
0
  6
SLD-Solid
 62
     7
370
    25
100
AcDbCircle
 10
31.8103391928
 20
-11.5108262047
 30
0.0
 40
14.39999999999918
100
AcDbArc
 50
69.0928331766
 51
78.6222209576
  0
ARC
  5
2A9
330
1F
100
AcDbEntity
  8
0
  6
SLD-Solid
 62
     7
370
    25
100
AcDbCircle
 10
0.0
 20
0.0
 30
0.0
 40
36.99999999997335
100
AcDbArc
 50
1.9927968891
 51
3.0072031109
  0
ARC
  5
2AA
330
1F
100
AcDbEntity
  8
0
  6
SLD-Solid
 62
     7
370
    25
100
AcDbCircle
 10
30.6860566408
 20
14.2394777752
 30
0.0
 40
14.40000000000047
100
AcDbArc
 50
286.3777790424
 51
295.9071668234
  0
ARC
  5
2AB
330
1F
100
AcDbEntity
  8
0
  6
SLD-Solid
 62
     7
370
    25
100
AcDbCircle
 10
-0.0000000001
 20
0.0
 30
0.0
 40
36.99999999986092
100
AcDbArc
 50
176.9927968891
 51
178.0072031109
  0
MTEXT
  5
2AD
330
1F
100
AcDbEntity
  8
0
  6
Continuous
 62
     7
100
AcDbMText
 10
-36.9776226448
 20
-37.9971890365
 30
0.0
 40
4.83362
 41
0.0
 46
0.0
 71
     1
 72
     1
  1
SOLIDWORKS Educational Product.
  7
SLDTEXTSTYLE0
 73
     1
 44
1.0
  0
MTEXT
  5
2AE
330
1F
100
AcDbEntity
  8
0
  6
Continuous
 62
     7
100
AcDbMText
 10
-36.9776226448
 20
-45.2476190365
 30
0.0
 40
4.83362
 41
0.0
 46
0.0
 71
     1
 72
     1
  1
For Instructional Use Only.
  7
SLDTEXTSTYLE0
 73
     1
 44
1.0
  0
ENDSEC
  0
SECTION
  2
OBJECTS
  0
DICTIONARY
  5
C
330
0
100
AcDbDictionary
281
     1
  3
ACAD_DETAILVIEWSTYLE
350
2B6
  3
ACAD_GROUP
350
D
  3
ACAD_LAYOUT
350
1A
  3
ACAD_MATERIAL
350
43
  3
ACAD_MLEADERSTYLE
350
5B
  3
ACAD_MLINESTYLE
350
17
  3
ACAD_PLOTSETTINGS
350
19
  3
ACAD_PLOTSTYLENAME
350
E
  3
ACAD_SCALELIST
350
47
  3
ACAD_SECTIONVIEWSTYLE
350
2B7
  3
ACAD_TABLESTYLE
350
59
  3
ACAD_VISUALSTYLE
350
2A
  3
ACDB_RECOMPOSE_DATA
350
2B3
  3
AcDbVariableDictionary
350
2AF
  0
SUN
  5
5D
330
29
100
AcDbSun
 90
        1
290
     0
 63
     7
421
 16777215
 40
1.0
291
     1
 91
  2455826
 92
 54000000
292
     0
 70
     2
 71
   256
280
     1
  0
DICTIONARY
  5
2B6
102
{ACAD_REACTORS
330
C
102
}
330
C
100
AcDbDictionary
281
     1
  0
DICTIONARY
  5
D
102
{ACAD_REACTORS
330
C
102
}
330
C
100
AcDbDictionary
281
     1
  0
DICTIONARY
  5
1A
102
{ACAD_REACTORS
330
C
102
}
330
C
100
AcDbDictionary
281
     1
  3
Layout1
350
1E
  3
Layout2
350
26
  3
Model
350
22
  0
DICTIONARY
  5
43
102
{ACAD_REACTORS
330
C
102
}
330
C
100
AcDbDictionary
281
     1
  3
ByBlock
350
45
  3
ByLayer
350
44
  3
Global
350
46
  0
DICTIONARY
  5
5B
102
{ACAD_REACTORS
330
C
102
}
330
C
100
AcDbDictionary
281
     1
  3
Standard
350
5C
  0
DICTIONARY
  5
17
102
{ACAD_REACTORS
330
C
102
}
330
C
100
AcDbDictionary
281
     1
  3
Standard
350
18
  0
DICTIONARY
  5
19
102
{ACAD_REACTORS
330
C
102
}
330
C
100
AcDbDictionary
281
     1
  0
ACDBDICTIONARYWDFLT
  5
E
102
{ACAD_REACTORS
330
C
102
}
330
C
100
AcDbDictionary
281
     1
  3
Normal
350
F
100
AcDbDictionaryWithDefault
340
F
  0
DICTIONARY
  5
47
102
{ACAD_REACTORS
330
C
102
}
330
C
100
AcDbDictionary
281
     1
  3
A0
350
48
  3
A1
350
49
  3
A2
350
4A
  3
A3
350
4B
  3
A4
350
4C
  3
A5
350
4D
  3
A6
350
4E
  3
A7
350
4F
  3
A8
350
50
  3
A9
350
51
  3
B0
350
52
  3
B1
350
53
  3
B2
350
54
  3
B3
350
55
  3
B4
350
56
  3
B5
350
57
  3
B6
350
58
  0
DICTIONARY
  5
2B7
102
{ACAD_REACTORS
330
C
102
}
330
C
100
AcDbDictionary
281
     1
  0
DICTIONARY
  5
59
102
{ACAD_REACTORS
330
C
102
}
330
C
100
AcDbDictionary
281
     1
  3
Standard
350
5A
  0
DICTIONARY
  5
2A
102
{ACAD_REACTORS
330
C
102
}
330
C
100
AcDbDictionary
281
     1
  3
2dWireframe
350
2F
  3
Basic
350
32
  3
Brighten
350
36
  3
ColorChange
350
3A
  3
Conceptual
350
34
  3
Dim
350
35
  3
EdgeColorOff
350
3D
  3
Facepattern
350
39
  3
Flat
350
2B
  3
FlatWithEdges
350
2C
  3
Gouraud
350
2D
  3
GouraudWithEdges
350
2E
  3
Hidden
350
31
  3
JitterOff
350
3B
  3
Linepattern
350
38
  3
OverhangOff
350
3C
  3
Realistic
350
33
  3
Shaded
350
42
  3
Shaded with edges
350
41
  3
Shades of Gray
350
3E
  3
Sketchy
350
3F
  3
Thicken
350
37
  3
Wireframe
350
30
  3
X-Ray
350
40
  0
XRECORD
  5
2B3
102
{ACAD_REACTORS
330
C
102
}
330
C
100
AcDbXrecord
280
     1
 90
        1
330
5A
  0
DICTIONARY
  5
2AF
102
{ACAD_REACTORS
330
C
102
}
330
C
100
AcDbDictionary
281
     1
  3
CANNOSCALE
350
2B0
  3
CENTEREXE
350
2B8
  3
CENTERLTYPEFILE
350
2B9
  3
CMLEADERSTYLE
350
2B5
  3
CTABLESTYLE
350
2B4
  0
LAYOUT
  5
1E
102
{ACAD_REACTORS
330
1A
102
}
330
1A
100
AcDbPlotSettings
  1

  2
none_device
  4

  6

 40
0.0
 41
0.0
 42
0.0
 43
0.0
 44
0.0
 45
0.0
 46
0.0
 47
0.0
 48
0.0
 49
0.0
140
0.0
141
0.0
142
1.0
143
1.0
 70
   688
 72
     1
 73
     0
 74
     5
  7

 75
    16
 76
     0
 77
     2
 78
   300
147
1.0
148
0.0
149
0.0
100
AcDbLayout
  1
Layout1
 70
     1
 71
     1
 10
0.0
 20
0.0
 11
420.0
 21
297.0
 12
0.0
 22
0.0
 32
0.0
 14
1.0000000000E+20
 24
1.0000000000E+20
 34
1.0000000000E+20
 15
-1.0000000000E+20
 25
-1.0000000000E+20
 35
-1.0000000000E+20
146
0.0
 13
0.0
 23
0.0
 33
0.0
 16
1.0
 26
0.0
 36
0.0
 17
0.0
 27
1.0
 37
0.0
 76
     0
330
1B
  0
LAYOUT
  5
26
102
{ACAD_REACTORS
330
1A
102
}
330
1A
100
AcDbPlotSettings
  1

  2
none_device
  4

  6

 40
0.0
 41
0.0
 42
0.0
 43
0.0
 44
0.0
 45
0.0
 46
0.0
 47
0.0
 48
0.0
 49
0.0
140
0.0
141
0.0
142
1.0
143
1.0
 70
   688
 72
     1
 73
     0
 74
     5
  7

 75
    16
 76
     0
 77
     2
 78
   300
147
1.0
148
0.0
149
0.0
100
AcDbLayout
  1
Layout2
 70
     1
 71
     2
 10
0.0
 20
0.0
 11
0.0
 21
0.0
 12
0.0
 22
0.0
 32
0.0
 14
0.0
 24
0.0
 34
0.0
 15
0.0
 25
0.0
 35
0.0
146
0.0
 13
0.0
 23
0.0
 33
0.0
 16
1.0
 26
0.0
 36
0.0
 17
0.0
 27
1.0
 37
0.0
 76
     0
330
23
  0
LAYOUT
  5
22
102
{ACAD_REACTORS
330
1A
102
}
330
1A
100
AcDbPlotSettings
  1

  2
none_device
  4
ANSI_A_(11.00_x_8.50_Inches)
  6

 40
6.35
 41
19.05
 42
6.35000508
 43
19.05000254
 44
279.4
 45
215.9
 46
133.34999746
 47
88.89999873
 48
0.0
 49
0.0
140
0.0
141
0.0
142
0.1137850327
143
1.0
 70
  1696
 72
     0
 73
     0
 74
     0
  7

 75
     0
 76
     0
 77
     2
 78
   300
147
0.0179189148
148
-1300.4909072572
149
0.0
100
AcDbLayout
  1
Model
 70
     1
 71
     0
 10
0.0
 20
0.0
 11
420.0
 21
297.0
 12
0.0
 22
0.0
 32
0.0
 14
-36.9776226448
 24
-36.9776226448
 34
0.0
 15
36.9776226448
 25
36.9776226448
 35
0.0
146
0.0
 13
0.0
 23
0.0
 33
0.0
 16
1.0
 26
0.0
 36
0.0
 17
0.0
 27
1.0
 37
0.0
 76
     0
330
1F
331
29
  0
MATERIAL
  5
45
102
{ACAD_REACTORS
330
43
102
}
330
43
100
AcDbMaterial
  1
ByBlock
 72
     1
 94
      127
  0
MATERIAL
  5
44
102
{ACAD_REACTORS
330
43
102
}
330
43
100
AcDbMaterial
  1
ByLayer
 72
     1
 94
      127
  0
MATERIAL
  5
46
102
{ACAD_REACTORS
330
43
102
}
330
43
100
AcDbMaterial
  1
Global
 72
     1
 94
      127
  0
MLEADERSTYLE
  5
5C
102
{ACAD_REACTORS
330
5B
102
}
330
5B
100
AcDbMLeaderStyle
179
     2
170
     2
171
     1
172
     0
 90
        2
 40
0.0
 41
0.0
173
     1
 91
-1056964608
340
14
 92
       -2
290
     1
 42
2.0
291
     1
 43
8.0
  3
Standard
341
0
 44
4.0
300

342
11
174
     1
178
     6
175
     1
176
     0
 93
-1056964608
 45
4.0
292
     0
297
     0
 46
4.0
343
0
 94
-1056964608
 47
1.0
 49
1.0
140
1.0
293
     1
141
0.0
294
     1
177
     0
142
1.0
295
     0
296
     0
143
3.75
271
     0
272
     9
273
     9
298
     0
  0
MLINESTYLE
  5
18
102
{ACAD_REACTORS
330
17
102
}
330
17
100
AcDbMlineStyle
  2
Standard
 70
     0
  3

 62
   256
 51
90.0
 52
90.0
 71
     2
 49
0.5
 62
   256
  6
BYLAYER
 49
-0.5
 62
   256
  6
BYLAYER
  0
ACDBPLACEHOLDER
  5
F
102
{ACAD_REACTORS
330
E
102
}
330
E
  0
SCALE
  5
48
102
{ACAD_REACTORS
330
47
102
}
330
47
100
AcDbScale
 70
     0
300
1:1
140
1.0
141
1.0
290
     1
  0
SCALE
  5
49
102
{ACAD_REACTORS
330
47
102
}
330
47
100
AcDbScale
 70
     0
300
1:2
140
1.0
141
2.0
290
     0
  0
SCALE
  5
4A
102
{ACAD_REACTORS
330
47
102
}
330
47
100
AcDbScale
 70
     0
300
1:4
140
1.0
141
4.0
290
     0
  0
SCALE
  5
4B
102
{ACAD_REACTORS
330
47
102
}
330
47
100
AcDbScale
 70
     0
300
1:5
140
1.0
141
5.0
290
     0
  0
SCALE
  5
4C
102
{ACAD_REACTORS
330
47
102
}
330
47
100
AcDbScale
 70
     0
300
1:8
140
1.0
141
8.0
290
     0
  0
SCALE
  5
4D
102
{ACAD_REACTORS
330
47
102
}
330
47
100
AcDbScale
 70
     0
300
1:10
140
1.0
141
10.0
290
     0
  0
SCALE
  5
4E
102
{ACAD_REACTORS
330
47
102
}
330
47
100
AcDbScale
 70
     0
300
1:16
140
1.0
141
16.0
290
     0
  0
SCALE
  5
4F
102
{ACAD_REACTORS
330
47
102
}
330
47
100
AcDbScale
 70
     0
300
1:20
140
1.0
141
20.0
290
     0
  0
SCALE
  5
50
102
{ACAD_REACTORS
330
47
102
}
330
47
100
AcDbScale
 70
     0
300
1:30
140
1.0
141
30.0
290
     0
  0
SCALE
  5
51
102
{ACAD_REACTORS
330
47
102
}
330
47
100
AcDbScale
 70
     0
300
1:40
140
1.0
141
40.0
290
     0
  0
SCALE
  5
52
102
{ACAD_REACTORS
330
47
102
}
330
47
100
AcDbScale
 70
     0
300
1:50
140
1.0
141
50.0
290
     0
  0
SCALE
  5
53
102
{ACAD_REACTORS
330
47
102
}
330
47
100
AcDbScale
 70
     0
300
1:100
140
1.0
141
100.0
290
     0
  0
SCALE
  5
54
102
{ACAD_REACTORS
330
47
102
}
330
47
100
AcDbScale
 70
     0
300
2:1
140
2.0
141
1.0
290
     0
  0
SCALE
  5
55
102
{ACAD_REACTORS
330
47
102
}
330
47
100
AcDbScale
 70
     0
300
4:1
140
4.0
141
1.0
290
     0
  0
SCALE
  5
56
102
{ACAD_REACTORS
330
47
102
}
330
47
100
AcDbScale
 70
     0
300
8:1
140
8.0
141
1.0
290
     0
  0
SCALE
  5
57
102
{ACAD_REACTORS
330
47
102
}
330
47
100
AcDbScale
 70
     0
300
10:1
140
10.0
141
1.0
290
     0
  0
SCALE
  5
58
102
{ACAD_REACTORS
330
47
102
}
330
47
100
AcDbScale
 70
     0
300
100:1
140
100.0
141
1.0
290
     0
  0
TABLESTYLE
  5
5A
102
{ACAD_REACTORS
330
59
102
}
102
{ACAD_XDICTIONARY
360
2B1
102
}
330
59
100
AcDbTableStyle
  3
Standard
 70
     0
 71
     0
 40
0.06
 41
0.06
280
     0
281
     0
  7
STANDARD
140
4.5
170
     2
 62
     0
 63
   257
283
     0
 90
        4
 91
        0
  1

274
    -2
284
     1
 64
     0
275
    -2
285
     1
 65
     0
276
    -2
286
     1
 66
     0
277
    -2
287
     1
 67
     0
278
    -2
288
     1
 68
     0
279
    -2
289
     1
 69
     0
  7
STANDARD
140
6.0
170
     5
 62
     0
 63
   257
283
     0
 90
        4
 91
        0
  1

274
    -2
284
     1
 64
     0
275
    -2
285
     1
 65
     0
276
    -2
286
     1
 66
     0
277
    -2
287
     1
 67
     0
278
    -2
288
     1
 68
     0
279
    -2
289
     1
 69
     0
  7
STANDARD
140
4.5
170
     5
 62
     0
 63
   257
283
     0
 90
        4
 91
        0
  1

274
    -2
284
     1
 64
     0
275
    -2
285
     1
 65
     0
276
    -2
286
     1
 66
     0
277
    -2
287
     1
 67
     0
278
    -2
288
     1
 68
     0
279
    -2
289
     1
 69
     0
  0
VISUALSTYLE
  5
2F
102
{ACAD_REACTORS
330
2A
102
}
330
2A
100
AcDbVisualStyle
  2
2dWireframe
 70
     4
177
     3
291
     0
 70
    58
 90
        0
176
     1
 90
        2
176
     1
 90
        0
176
     1
 90
        0
176
     1
 40
0.6
176
     1
 40
30.0
176
     1
 62
     7
420
 16777215
176
     1
 90
        1
176
     1
 90
        4
176
     1
 62
     7
176
     1
 62
   257
176
     1
 90
        1
176
     1
 90
        1
176
     1
 40
1.0
176
     1
 90
        0
176
     1
 62
   257
176
     1
 40
1.0
176
     1
 90
        1
176
     1
 90
        6
176
     1
 90
        2
176
     1
 62
     7
176
     1
 90
        5
176
     1
 90
        0
176
     1
 90
        0
176
     1
290
     0
176
     1
 90
        1
176
     1
 40
0.0
176
     1
 90
        0
176
     1
290
     1
176
     1
290
     1
176
     1
290
     0
176
     1
290
     0
176
     1
290
     0
176
     1
290
     0
176
     1
290
     0
176
     1
290
     0
176
     1
290
     0
176
     1
 90
       50
176
     1
 40
0.0
176
     1
 40
1.0
176
     1
 90
        0
176
     1
 62
    18
420
        0
176
     1
 90
       50
176
     1
 90
        3
176
     1
 62
     5
420
      255
176
     1
290
     0
176
     1
 90
       50
176
     1
 90
       50
176
     1
 90
       50
176
     1
290
     0
176
     1
 90
       50
176
     1
 62
   256
176
     0
 40
1.0
176
     0
 90
        2
176
     1
  1
strokes_ogs.tif
176
     1
290
     0
176
     1
 40
1.0
176
     1
 40
1.0
176
     1
  0
VISUALSTYLE
  5
32
102
{ACAD_REACTORS
330
2A
102
}
330
2A
100
AcDbVisualStyle
  2
Basic
 70
     7
177
     3
291
     1
 70
    58
 90
        1
176
     1
 90
        0
176
     1
 90
        1
176
     1
 90
        0
176
     1
 40
0.6
176
     1
 40
30.0
176
     1
 62
     7
420
 16777215
176
     1
 90
        0
176
     1
 90
        4
176
     1
 62
     7
176
     1
 62
   257
176
     1
 90
        1
176
     1
 90
        1
176
     1
 40
1.0
176
     1
 90
        8
176
     1
 62
     7
176
     1
 40
1.0
176
     1
 90
        1
176
     1
 90
        6
176
     1
 90
        2
176
     1
 62
     7
176
     1
 90
        5
176
     1
 90
        0
176
     1
 90
        0
176
     1
290
     0
176
     1
 90
        1
176
     1
 40
0.0
176
     1
 90
        0
176
     1
290
     0
176
     1
290
     1
176
     1
290
     1
176
     1
290
     0
176
     1
290
     0
176
     1
290
     0
176
     1
290
     0
176
     1
290
     0
176
     1
290
     0
176
     1
 90
       50
176
     1
 40
0.0
176
     1
 40
1.0
176
     1
 90
        0
176
     1
 62
    18
420
        0
176
     1
 90
       50
176
     1
 90
        3
176
     1
 62
     5
420
      255
176
     1
290
     0
176
     1
 90
       50
176
     1
 90
       50
176
     1
 90
       50
176
     1
290
     0
176
     1
 90
       50
176
     1
 62
   256
176
     0
 40
1.0
176
     0
 90
        2
176
     1
  1
strokes_ogs.tif
176
     1
290
     0
176
     1
 40
1.0
176
     1
 40
1.0
176
     1
  0
VISUALSTYLE
  5
36
102
{ACAD_REACTORS
330
2A
102
}
330
2A
100
AcDbVisualStyle
  2
Brighten
 70
    12
177
     3
291
     1
 70
    58
 90
        2
176
     1
 90
        2
176
     1
 90
        0
176
     1
 90
        0
176
     1
 40
0.6
176
     1
 40
30.0
176
     1
 62
     7
420
 16777215
176
     1
 90
        1
176
     1
 90
        4
176
     1
 62
     7
176
     1
 62
   257
176
     1
 90
        1
176
     1
 90
        1
176
     1
 40
1.0
176
     1
 90
        8
176
     1
 62
     7
176
     1
 40
1.0
176
     1
 90
        1
176
     1
 90
        6
176
     1
 90
        2
176
     1
 62
     7
176
     1
 90
        5
176
     1
 90
        0
176
     1
 90
        0
176
     1
290
     0
176
     1
 90
        1
176
     1
 40
50.0
176
     1
 90
        0
176
     1
290
     0
176
     1
290
     1
176
     1
290
     1
176
     1
290
     0
176
     1
290
     0
176
     1
290
     0
176
     1
290
     0
176
     1
290
     0
176
     1
290
     0
176
     1
 90
       50
176
     1
 40
0.0
176
     1
 40
1.0
176
     1
 90
        0
176
     1
 62
    18
420
        0
176
     1
 90
       50
176
     1
 90
        3
176
     1
 62
     5
420
      255
176
     1
290
     0
176
     1
 90
       50
176
     1
 90
       50
176
     1
 90
       50
176
     1
290
     0
176
     1
 90
       50
176
     1
 62
   256
176
     0
 40
1.0
176
     0
 90
        2
176
     1
  1
strokes_ogs.tif
176
     1
290
     0
176
     1
 40
1.0
176
     1
 40
1.0
176
     1
  0
VISUALSTYLE
  5
3A
102
{ACAD_REACTORS
330
2A
102
}
330
2A
100
AcDbVisualStyle
  2
ColorChange
 70
    16
177
     3
291
     1
 70
    58
 90
        2
176
     1
 90
        2
176
     1
 90
        3
176
     1
 90
        0
176
     1
 40
0.6
176
     1
 40
30.0
176
     1
 62
     8
420
  8421504
176
     1
 90
        1
176
     1
 90
        4
176
     1
 62
     7
176
     1
 62
   257
176
     1
 90
        1
176
     1
 90
        1
176
     1
 40
1.0
176
     1
 90
        8
176
     1
 62
     8
420
  8421504
176
     1
 40
1.0
176
     1
 90
        1
176
     1
 90
        6
176
     1
 90
        2
176
     1
 62
     7
176
     1
 90
        5
176
     1
 90
        0
176
     1
 90
        0
176
     1
290
     0
176
     1
 90
        1
176
     1
 40
0.0
176
     1
 90
        0
176
     1
290
     0
176
     1
290
     1
176
     1
290
     1
176
     1
290
     0
176
     1
290
     0
176
     1
290
     0
176
     1
290
     0
176
     1
290
     0
176
     1
290
     0
176
     1
 90
       50
176
     1
 40
0.0
176
     1
 40
1.0
176
     1
 90
        0
176
     1
 62
    18
420
        0
176
     1
 90
       50
176
     1
 90
        3
176
     1
 62
     5
420
      255
176
     1
290
     0
176
     1
 90
       50
176
     1
 90
       50
176
     1
 90
       50
176
     1
290
     0
176
     1
 90
       50
176
     1
 62
   256
176
     0
 40
1.0
176
     0
 90
        2
176
     1
  1
strokes_ogs.tif
176
     1
290
     0
176
     1
 40
1.0
176
     1
 40
1.0
176
     1
  0
VISUALSTYLE
  5
34
102
{ACAD_REACTORS
330
2A
102
}
330
2A
100
AcDbVisualStyle
  2
Conceptual
 70
     9
177
     3
291
     0
 70
    58
 90
        3
176
     1
 90
        2
176
     1
 90
        0
176
     1
 90
        0
176
     1
 40
0.6
176
     1
 40
30.0
176
     1
 62
     7
420
 16777215
176
     1
 90
        2
176
     1
 90
        2
176
     1
 62
     7
176
     1
 62
   257
176
     1
 90
        1
176
     1
 90
        1
176
     1
 40
179.0
176
     1
 90
        8
176
     1
 62
     7
176
     1
 40
1.0
176
     1
 90
        1
176
     1
 90
        6
176
     1
 90
        2
176
     1
 62
     7
176
     1
 90
        3
176
     1
 90
        0
176
     1
 90
        0
176
     1
290
     0
176
     1
 90
        1
176
     1
 40
0.0
176
     1
 90
        0
176
     1
290
     0
176
     1
290
     1
176
     1
290
     1
176
     1
290
     0
176
     1
290
     0
176
     1
290
     0
176
     1
290
     0
176
     1
290
     0
176
     1
290
     0
176
     1
 90
       50
176
     1
 40
0.0
176
     1
 40
1.0
176
     1
 90
        0
176
     1
 62
    18
420
        0
176
     1
 90
       50
176
     1
 90
        3
176
     1
 62
     5
420
      255
176
     1
290
     0
176
     1
 90
       50
176
     1
 90
       50
176
     1
 90
       50
176
     1
290
     0
176
     1
 90
       50
176
     1
 62
   256
176
     0
 40
1.0
176
     0
 90
        2
176
     1
  1
strokes_ogs.tif
176
     1
290
     0
176
     1
 40
1.0
176
     1
 40
1.0
176
     1
  0
VISUALSTYLE
  5
35
102
{ACAD_REACTORS
330
2A
102
}
330
2A
100
AcDbVisualStyle
  2
Dim
 70
    11
177
     3
291
     1
 70
    58
 90
        2
176
     1
 90
        2
176
     1
 90
        0
176
     1
 90
        0
176
     1
 40
0.6
176
     1
 40
30.0
176
     1
 62
     7
420
 16777215
176
     1
 90
        1
176
     1
 90
        4
176
     1
 62
     7
176
     1
 62
   257
176
     1
 90
        1
176
     1
 90
        1
176
     1
 40
1.0
176
     1
 90
        8
176
     1
 62
     7
176
     1
 40
1.0
176
     1
 90
        1
176
     1
 90
        6
176
     1
 90
        2
176
     1
 62
     7
176
     1
 90
        5
176
     1
 90
        0
176
     1
 90
        0
176
     1
290
     0
176
     1
 90
        1
176
     1
 40
-50.0
176
     1
 90
        0
176
     1
290
     0
176
     1
290
     1
176
     1
290
     1
176
     1
290
     0
176
     1
290
     0
176
     1
290
     0
176
     1
290
     0
176
     1
290
     0
176
     1
290
     0
176
     1
 90
       50
176
     1
 40
0.0
176
     1
 40
1.0
176
     1
 90
        0
176
     1
 62
    18
420
        0
176
     1
 90
       50
176
     1
 90
        3
176
     1
 62
     5
420
      255
176
     1
290
     0
176
     1
 90
       50
176
     1
 90
       50
176
     1
 90
       50
176
     1
290
     0
176
     1
 90
       50
176
     1
 62
   256
176
     0
 40
1.0
176
     0
 90
        2
176
     1
  1
strokes_ogs.tif
176
     1
290
     0
176
     1
 40
1.0
176
     1
 40
1.0
176
     1
  0
VISUALSTYLE
  5
3D
102
{ACAD_REACTORS
330
2A
102
}
330
2A
100
AcDbVisualStyle
  2
EdgeColorOff
 70
    22
177
     3
291
     1
 70
    58
 90
        2
176
     0
 90
        2
176
     0
 90
        0
176
     0
 90
        0
176
     0
 40
0.6
176
     0
 40
30.0
176
     0
 62
     7
420
 16777215
176
     0
 90
        1
176
     0
 90
        4
176
     0
 62
     7
176
     0
 62
   257
176
     0
 90
        1
176
     0
 90
        1
176
     0
 40
1.0
176
     0
 90
        8
176
     2
 62
     7
176
     0
 40
1.0
176
     0
 90
        1
176
     0
 90
        6
176
     0
 90
        2
176
     0
 62
     7
176
     0
 90
        5
176
     0
 90
        0
176
     0
 90
        0
176
     0
290
     0
176
     0
 90
        1
176
     0
 40
0.0
176
     0
 90
        0
176
     0
290
     0
176
     0
290
     1
176
     0
290
     1
176
     0
290
     0
176
     0
290
     0
176
     0
290
     0
176
     0
290
     0
176
     0
290
     0
176
     0
290
     0
176
     0
 90
       50
176
     0
 40
0.0
176
     0
 40
1.0
176
     0
 90
        0
176
     0
 62
    18
420
        0
176
     0
 90
       50
176
     0
 90
        3
176
     0
 62
     5
420
      255
176
     0
290
     0
176
     0
 90
       50
176
     0
 90
       50
176
     0
 90
       50
176
     0
290
     0
176
     0
 90
       50
176
     0
 62
   256
176
     0
 40
1.0
176
     0
 90
        2
176
     0
  1
strokes_ogs.tif
176
     0
290
     0
176
     0
 40
1.0
176
     0
 40
1.0
176
     0
  0
VISUALSTYLE
  5
39
102
{ACAD_REACTORS
330
2A
102
}
330
2A
100
AcDbVisualStyle
  2
Facepattern
 70
    15
177
     3
291
     1
 70
    58
 90
        2
176
     1
 90
        2
176
     1
 90
        0
176
     1
 90
        0
176
     1
 40
0.6
176
     1
 40
30.0
176
     1
 62
     7
420
 16777215
176
     1
 90
        1
176
     1
 90
        4
176
     1
 62
     7
176
     1
 62
   257
176
     1
 90
        1
176
     1
 90
        1
176
     1
 40
1.0
176
     1
 90
        8
176
     1
 62
     7
176
     1
 40
1.0
176
     1
 90
        1
176
     1
 90
        6
176
     1
 90
        2
176
     1
 62
     7
176
     1
 90
        5
176
     1
 90
        0
176
     1
 90
        0
176
     1
290
     0
176
     1
 90
        1
176
     1
 40
0.0
176
     1
 90
        0
176
     1
290
     0
176
     1
290
     1
176
     1
290
     1
176
     1
290
     0
176
     1
290
     0
176
     1
290
     0
176
     1
290
     0
176
     1
290
     0
176
     1
290
     0
176
     1
 90
       50
176
     1
 40
0.0
176
     1
 40
1.0
176
     1
 90
        0
176
     1
 62
    18
420
        0
176
     1
 90
       50
176
     1
 90
        3
176
     1
 62
     5
420
      255
176
     1
290
     0
176
     1
 90
       50
176
     1
 90
       50
176
     1
 90
       50
176
     1
290
     0
176
     1
 90
       50
176
     1
 62
   256
176
     0
 40
1.0
176
     0
 90
        2
176
     1
  1
strokes_ogs.tif
176
     1
290
     0
176
     1
 40
1.0
176
     1
 40
1.0
176
     1
  0
VISUALSTYLE
  5
2B
102
{ACAD_REACTORS
330
2A
102
}
330
2A
100
AcDbVisualStyle
  2
Flat
 70
     0
177
     3
291
     1
 70
    58
 90
        2
176
     1
 90
        1
176
     1
 90
        1
176
     1
 90
        2
176
     1
 40
0.6
176
     1
 40
30.0
176
     1
 62
     7
420
 16777215
176
     1
 90
        0
176
     1
 90
        0
176
     1
 62
     7
176
     1
 62
   257
176
     1
 90
        1
176
     1
 90
        1
176
     1
 40
1.0
176
     1
 90
        8
176
     1
 62
     7
176
     1
 40
1.0
176
     1
 90
        1
176
     1
 90
        6
176
     1
 90
        2
176
     1
 62
     7
176
     1
 90
        5
176
     1
 90
        0
176
     1
 90
        0
176
     1
290
     0
176
     1
 90
       13
176
     1
 40
0.0
176
     1
 90
        0
176
     1
290
     0
176
     1
290
     1
176
     1
290
     1
176
     1
290
     0
176
     1
290
     0
176
     1
290
     0
176
     1
290
     0
176
     1
290
     0
176
     1
290
     0
176
     1
 90
       50
176
     1
 40
0.0
176
     1
 40
1.0
176
     1
 90
        0
176
     1
 62
    18
420
        0
176
     1
 90
       50
176
     1
 90
        3
176
     1
 62
     5
420
      255
176
     1
290
     0
176
     1
 90
       50
176
     1
 90
       50
176
     1
 90
       50
176
     1
290
     0
176
     1
 90
       50
176
     1
 62
   256
176
     0
 40
1.0
176
     0
 90
        2
176
     1
  1
strokes_ogs.tif
176
     1
290
     0
176
     1
 40
1.0
176
     1
 40
1.0
176
     1
  0
VISUALSTYLE
  5
2C
102
{ACAD_REACTORS
330
2A
102
}
330
2A
100
AcDbVisualStyle
  2
FlatWithEdges
 70
     1
177
     3
291
     1
 70
    58
 90
        2
176
     1
 90
        1
176
     1
 90
        1
176
     1
 90
        2
176
     1
 40
0.6
176
     1
 40
30.0
176
     1
 62
     7
420
 16777215
176
     1
 90
        1
176
     1
 90
        0
176
     1
 62
     7
176
     1
 62
   257
176
     1
 90
        1
176
     1
 90
        1
176
     1
 40
1.0
176
     1
 90
        0
176
     1
 62
   257
176
     1
 40
1.0
176
     1
 90
        1
176
     1
 90
        6
176
     1
 90
        2
176
     1
 62
     7
176
     1
 90
        5
176
     1
 90
        0
176
     1
 90
        0
176
     1
290
     0
176
     1
 90
       13
176
     1
 40
0.0
176
     1
 90
        0
176
     1
290
     0
176
     1
290
     1
176
     1
290
     1
176
     1
290
     0
176
     1
290
     0
176
     1
290
     0
176
     1
290
     0
176
     1
290
     0
176
     1
290
     0
176
     1
 90
       50
176
     1
 40
0.0
176
     1
 40
1.0
176
     1
 90
        0
176
     1
 62
    18
420
        0
176
     1
 90
       50
176
     1
 90
        3
176
     1
 62
     5
420
      255
176
     1
290
     0
176
     1
 90
       50
176
     1
 90
       50
176
     1
 90
       50
176
     1
290
     0
176
     1
 90
       50
176
     1
 62
   256
176
     0
 40
1.0
176
     0
 90
        2
176
     1
  1
strokes_ogs.tif
176
     1
290
     0
176
     1
 40
1.0
176
     1
 40
1.0
176
     1
  0
VISUALSTYLE
  5
2D
102
{ACAD_REACTORS
330
2A
102
}
330
2A
100
AcDbVisualStyle
  2
Gouraud
 70
     2
177
     3
291
     1
 70
    58
 90
        2
176
     1
 90
        2
176
     1
 90
        1
176
     1
 90
        2
176
     1
 40
0.6
176
     1
 40
30.0
176
     1
 62
     7
420
 16777215
176
     1
 90
        0
176
     1
 90
        0
176
     1
 62
     7
176
     1
 62
   257
176
     1
 90
        1
176
     1
 90
        1
176
     1
 40
1.0
176
     1
 90
        0
176
     1
 62
     7
176
     1
 40
1.0
176
     1
 90
        1
176
     1
 90
        6
176
     1
 90
        2
176
     1
 62
     7
176
     1
 90
        5
176
     1
 90
        0
176
     1
 90
        0
176
     1
290
     0
176
     1
 90
       13
176
     1
 40
0.0
176
     1
 90
        0
176
     1
290
     0
176
     1
290
     1
176
     1
290
     1
176
     1
290
     0
176
     1
290
     0
176
     1
290
     0
176
     1
290
     0
176
     1
290
     0
176
     1
290
     0
176
     1
 90
       50
176
     1
 40
0.0
176
     1
 40
1.0
176
     1
 90
        0
176
     1
 62
    18
420
        0
176
     1
 90
       50
176
     1
 90
        3
176
     1
 62
     5
420
      255
176
     1
290
     0
176
     1
 90
       50
176
     1
 90
       50
176
     1
 90
       50
176
     1
290
     0
176
     1
 90
       50
176
     1
 62
   256
176
     0
 40
1.0
176
     0
 90
        2
176
     1
  1
strokes_ogs.tif
176
     1
290
     0
176
     1
 40
1.0
176
     1
 40
1.0
176
     1
  0
VISUALSTYLE
  5
2E
102
{ACAD_REACTORS
330
2A
102
}
330
2A
100
AcDbVisualStyle
  2
GouraudWithEdges
 70
     3
177
     3
291
     1
 70
    58
 90
        2
176
     1
 90
        2
176
     1
 90
        1
176
     1
 90
        2
176
     1
 40
0.6
176
     1
 40
30.0
176
     1
 62
     7
420
 16777215
176
     1
 90
        1
176
     1
 90
        0
176
     1
 62
     7
176
     1
 62
   257
176
     1
 90
        1
176
     1
 90
        1
176
     1
 40
1.0
176
     1
 90
        0
176
     1
 62
   257
176
     1
 40
1.0
176
     1
 90
        1
176
     1
 90
        6
176
     1
 90
        2
176
     1
 62
     7
176
     1
 90
        5
176
     1
 90
        0
176
     1
 90
        0
176
     1
290
     0
176
     1
 90
       13
176
     1
 40
0.0
176
     1
 90
        0
176
     1
290
     0
176
     1
290
     1
176
     1
290
     1
176
     1
290
     0
176
     1
290
     0
176
     1
290
     0
176
     1
290
     0
176
     1
290
     0
176
     1
290
     0
176
     1
 90
       50
176
     1
 40
0.0
176
     1
 40
1.0
176
     1
 90
        0
176
     1
 62
    18
420
        0
176
     1
 90
       50
176
     1
 90
        3
176
     1
 62
     5
420
      255
176
     1
290
     0
176
     1
 90
       50
176
     1
 90
       50
176
     1
 90
       50
176
     1
290
     0
176
     1
 90
       50
176
     1
 62
   256
176
     0
 40
1.0
176
     0
 90
        2
176
     1
  1
strokes_ogs.tif
176
     1
290
     0
176
     1
 40
1.0
176
     1
 40
1.0
176
     1
  0
VISUALSTYLE
  5
31
102
{ACAD_REACTORS
330
2A
102
}
330
2A
100
AcDbVisualStyle
  2
Hidden
 70
     6
177
     3
291
     0
 70
    58
 90
        1
176
     1
 90
        2
176
     1
 90
        2
176
     1
 90
        0
176
     1
 40
0.6
176
     1
 40
30.0
176
     1
 62
     7
420
 16777215
176
     1
 90
        2
176
     1
 90
        2
176
     1
 62
     7
176
     1
 62
   257
176
     1
 90
        2
176
     1
 90
        1
176
     1
 40
40.0
176
     1
 90
        0
176
     1
 62
   257
176
     1
 40
1.0
176
     1
 90
        1
176
     1
 90
        6
176
     1
 90
        2
176
     1
 62
     7
176
     1
 90
        3
176
     1
 90
        0
176
     1
 90
        0
176
     1
290
     0
176
     1
 90
        1
176
     1
 40
0.0
176
     1
 90
        0
176
     1
290
     0
176
     1
290
     1
176
     1
290
     1
176
     1
290
     0
176
     1
290
     0
176
     1
290
     0
176
     1
290
     0
176
     1
290
     0
176
     1
290
     0
176
     1
 90
       50
176
     1
 40
0.0
176
     1
 40
1.0
176
     1
 90
        0
176
     1
 62
    18
420
        0
176
     1
 90
       50
176
     1
 90
        3
176
     1
 62
     5
420
      255
176
     1
290
     0
176
     1
 90
       50
176
     1
 90
       50
176
     1
 90
       50
176
     1
290
     0
176
     1
 90
       50
176
     1
 62
   256
176
     0
 40
1.0
176
     0
 90
        2
176
     1
  1
strokes_ogs.tif
176
     1
290
     0
176
     1
 40
1.0
176
     1
 40
1.0
176
     1
  0
VISUALSTYLE
  5
3B
102
{ACAD_REACTORS
330
2A
102
}
330
2A
100
AcDbVisualStyle
  2
JitterOff
 70
    20
177
     3
291
     1
 70
    58
 90
        2
176
     0
 90
        2
176
     0
 90
        0
176
     0
 90
        0
176
     0
 40
0.6
176
     0
 40
30.0
176
     0
 62
     7
420
 16777215
176
     0
 90
        1
176
     0
 90
        4
176
     0
 62
     7
176
     0
 62
   257
176
     0
 90
        1
176
     0
 90
        1
176
     0
 40
1.0
176
     0
 90
       10
176
     2
 62
     7
176
     0
 40
1.0
176
     0
 90
        1
176
     0
 90
        6
176
     0
 90
        2
176
     0
 62
     7
176
     0
 90
        5
176
     0
 90
        0
176
     0
 90
        0
176
     0
290
     0
176
     0
 90
        1
176
     0
 40
0.0
176
     0
 90
        0
176
     0
290
     0
176
     0
290
     1
176
     0
290
     1
176
     0
290
     0
176
     0
290
     0
176
     0
290
     0
176
     0
290
     0
176
     0
290
     0
176
     0
290
     0
176
     0
 90
       50
176
     0
 40
0.0
176
     0
 40
1.0
176
     0
 90
        0
176
     0
 62
    18
420
        0
176
     0
 90
       50
176
     0
 90
        3
176
     0
 62
     5
420
      255
176
     0
290
     0
176
     0
 90
       50
176
     0
 90
       50
176
     0
 90
       50
176
     0
290
     0
176
     0
 90
       50
176
     0
 62
   256
176
     0
 40
1.0
176
     0
 90
        2
176
     0
  1
strokes_ogs.tif
176
     0
290
     0
176
     0
 40
1.0
176
     0
 40
1.0
176
     0
  0
VISUALSTYLE
  5
38
102
{ACAD_REACTORS
330
2A
102
}
330
2A
100
AcDbVisualStyle
  2
Linepattern
 70
    14
177
     3
291
     1
 70
    58
 90
        2
176
     1
 90
        2
176
     1
 90
        0
176
     1
 90
        0
176
     1
 40
0.6
176
     1
 40
30.0
176
     1
 62
     7
420
 16777215
176
     1
 90
        1
176
     1
 90
        4
176
     1
 62
     7
176
     1
 62
   257
176
     1
 90
        7
176
     1
 90
        7
176
     1
 40
1.0
176
     1
 90
        8
176
     1
 62
     7
176
     1
 40
1.0
176
     1
 90
        1
176
     1
 90
        6
176
     1
 90
        2
176
     1
 62
     7
176
     1
 90
        5
176
     1
 90
        0
176
     1
 90
        0
176
     1
290
     0
176
     1
 90
        1
176
     1
 40
0.0
176
     1
 90
        0
176
     1
290
     0
176
     1
290
     1
176
     1
290
     1
176
     1
290
     0
176
     1
290
     0
176
     1
290
     0
176
     1
290
     0
176
     1
290
     0
176
     1
290
     0
176
     1
 90
       50
176
     1
 40
0.0
176
     1
 40
1.0
176
     1
 90
        0
176
     1
 62
    18
420
        0
176
     1
 90
       50
176
     1
 90
        3
176
     1
 62
     5
420
      255
176
     1
290
     0
176
     1
 90
       50
176
     1
 90
       50
176
     1
 90
       50
176
     1
290
     0
176
     1
 90
       50
176
     1
 62
   256
176
     0
 40
1.0
176
     0
 90
        2
176
     1
  1
strokes_ogs.tif
176
     1
290
     0
176
     1
 40
1.0
176
     1
 40
1.0
176
     1
  0
VISUALSTYLE
  5
3C
102
{ACAD_REACTORS
330
2A
102
}
330
2A
100
AcDbVisualStyle
  2
OverhangOff
 70
    21
177
     3
291
     1
 70
    58
 90
        2
176
     0
 90
        2
176
     0
 90
        0
176
     0
 90
        0
176
     0
 40
0.6
176
     0
 40
30.0
176
     0
 62
     7
420
 16777215
176
     0
 90
        1
176
     0
 90
        4
176
     0
 62
     7
176
     0
 62
   257
176
     0
 90
        1
176
     0
 90
        1
176
     0
 40
1.0
176
     0
 90
        9
176
     2
 62
     7
176
     0
 40
1.0
176
     0
 90
        1
176
     0
 90
        6
176
     0
 90
        2
176
     0
 62
     7
176
     0
 90
        5
176
     0
 90
        0
176
     0
 90
        0
176
     0
290
     0
176
     0
 90
        1
176
     0
 40
0.0
176
     0
 90
        0
176
     0
290
     0
176
     0
290
     1
176
     0
290
     1
176
     0
290
     0
176
     0
290
     0
176
     0
290
     0
176
     0
290
     0
176
     0
290
     0
176
     0
290
     0
176
     0
 90
       50
176
     0
 40
0.0
176
     0
 40
1.0
176
     0
 90
        0
176
     0
 62
    18
420
        0
176
     0
 90
       50
176
     0
 90
        3
176
     0
 62
     5
420
      255
176
     0
290
     0
176
     0
 90
       50
176
     0
 90
       50
176
     0
 90
       50
176
     0
290
     0
176
     0
 90
       50
176
     0
 62
   256
176
     0
 40
1.0
176
     0
 90
        2
176
     0
  1
strokes_ogs.tif
176
     0
290
     0
176
     0
 40
1.0
176
     0
 40
1.0
176
     0
  0
VISUALSTYLE
  5
33
102
{ACAD_REACTORS
330
2A
102
}
330
2A
100
AcDbVisualStyle
  2
Realistic
 70
     8
177
     3
291
     0
 70
    58
 90
        2
176
     1
 90
        3
176
     1
 90
        0
176
     1
 90
        2
176
     1
 40
0.6
176
     1
 40
30.0
176
     1
 62
     7
420
 16777215
176
     1
 90
        0
176
     1
 90
        0
176
     1
 62
     7
176
     1
 62
   257
176
     1
 90
        1
176
     1
 90
        1
176
     1
 40
1.0
176
     1
 90
        8
176
     1
 62
   257
176
     1
 40
1.0
176
     1
 90
        1
176
     1
 90
        6
176
     1
 90
        2
176
     1
 62
     7
176
     1
 90
        3
176
     1
 90
        0
176
     1
 90
        0
176
     1
290
     0
176
     1
 90
       13
176
     1
 40
0.0
176
     1
 90
        0
176
     1
290
     0
176
     1
290
     1
176
     1
290
     1
176
     1
290
     0
176
     1
290
     0
176
     1
290
     0
176
     1
290
     0
176
     1
290
     0
176
     1
290
     0
176
     1
 90
       50
176
     1
 40
0.0
176
     1
 40
1.0
176
     1
 90
        0
176
     1
 62
    18
420
        0
176
     1
 90
       50
176
     1
 90
        3
176
     1
 62
     5
420
      255
176
     1
290
     0
176
     1
 90
       50
176
     1
 90
       50
176
     1
 90
       50
176
     1
290
     0
176
     1
 90
       50
176
     1
 62
   256
176
     0
 40
1.0
176
     0
 90
        2
176
     1
  1
strokes_ogs.tif
176
     1
290
     0
176
     1
 40
1.0
176
     1
 40
1.0
176
     1
  0
VISUALSTYLE
  5
42
102
{ACAD_REACTORS
330
2A
102
}
330
2A
100
AcDbVisualStyle
  2
Shaded
 70
    27
177
     3
291
     0
 70
    58
 90
        2
176
     1
 90
        2
176
     1
 90
        1
176
     1
 90
        2
176
     1
 40
0.6
176
     1
 40
30.0
176
     1
 62
     7
420
 16777215
176
     1
 90
        0
176
     1
 90
        4
176
     1
 62
     7
176
     1
 62
   257
176
     1
 90
        1
176
     1
 90
        1
176
     1
 40
1.0
176
     1
 90
        8
176
     1
 62
   257
176
     1
 40
1.0
176
     1
 90
        1
176
     1
 90
        6
176
     1
 90
        2
176
     1
 62
     8
420
  7895160
176
     1
 90
        3
176
     1
 90
        0
176
     1
 90
        0
176
     1
290
     0
176
     1
 90
        5
176
     1
 40
0.0
176
     1
 90
        0
176
     1
290
     0
176
     1
290
     1
176
     1
290
     1
176
     1
290
     0
176
     1
290
     0
176
     1
290
     0
176
     1
290
     0
176
     1
290
     0
176
     1
290
     0
176
     1
 90
       50
176
     1
 40
0.0
176
     1
 40
1.0
176
     1
 90
        0
176
     1
 62
    18
420
        0
176
     1
 90
       50
176
     1
 90
        3
176
     1
 62
     5
420
      255
176
     1
290
     0
176
     1
 90
       50
176
     1
 90
       50
176
     1
 90
       50
176
     1
290
     0
176
     1
 90
       50
176
     1
 62
   256
176
     0
 40
1.0
176
     0
 90
        2
176
     1
  1
strokes_ogs.tif
176
     1
290
     0
176
     1
 40
1.0
176
     1
 40
1.0
176
     1
  0
VISUALSTYLE
  5
41
102
{ACAD_REACTORS
330
2A
102
}
330
2A
100
AcDbVisualStyle
  2
Shaded with edges
 70
    26
177
     3
291
     0
 70
    58
 90
        2
176
     1
 90
        2
176
     1
 90
        1
176
     1
 90
        2
176
     1
 40
0.6
176
     1
 40
30.0
176
     1
 62
     7
420
 16777215
176
     1
 90
        1
176
     1
 90
       10
176
     1
 62
     7
176
     1
 62
   257
176
     1
 90
        2
176
     1
 90
        1
176
     1
 40
1.0
176
     1
 90
        8
176
     1
 62
   257
176
     1
 40
1.0
176
     1
 90
        1
176
     1
 90
        6
176
     1
 90
        2
176
     1
 62
     7
176
     1
 90
        3
176
     1
 90
        0
176
     1
 90
        0
176
     1
290
     0
176
     1
 90
        5
176
     1
 40
0.0
176
     1
 90
        0
176
     1
290
     0
176
     1
290
     1
176
     1
290
     1
176
     1
290
     0
176
     1
290
     0
176
     1
290
     0
176
     1
290
     0
176
     1
290
     0
176
     1
290
     0
176
     1
 90
       50
176
     1
 40
0.0
176
     1
 40
1.0
176
     1
 90
        0
176
     1
 62
    18
420
        0
176
     1
 90
       50
176
     1
 90
        3
176
     1
 62
     5
420
      255
176
     1
290
     0
176
     1
 90
       50
176
     1
 90
       50
176
     1
 90
       50
176
     1
290
     0
176
     1
 90
       50
176
     1
 62
   256
176
     0
 40
1.0
176
     0
 90
        2
176
     1
  1
strokes_ogs.tif
176
     1
290
     0
176
     1
 40
1.0
176
     1
 40
1.0
176
     1
  0
VISUALSTYLE
  5
3E
102
{ACAD_REACTORS
330
2A
102
}
330
2A
100
AcDbVisualStyle
  2
Shades of Gray
 70
    23
177
     3
291
     0
 70
    58
 90
        2
176
     1
 90
        2
176
     1
 90
        3
176
     1
 90
        0
176
     1
 40
0.6
176
     1
 40
30.0
176
     1
 62
     7
420
 16777215
176
     1
 90
        2
176
     1
 90
        2
176
     1
 62
     7
176
     1
 62
     7
176
     1
 90
        1
176
     1
 90
        1
176
     1
 40
40.0
176
     1
 90
        8
176
     1
 62
     7
176
     1
 40
1.0
176
     1
 90
        1
176
     1
 90
        6
176
     1
 90
        2
176
     1
 62
     7
176
     1
 90
        3
176
     1
 90
        0
176
     1
 90
        0
176
     1
290
     0
176
     1
 90
        1
176
     1
 40
0.0
176
     1
 90
        0
176
     1
290
     0
176
     1
290
     1
176
     1
290
     1
176
     1
290
     0
176
     1
290
     0
176
     1
290
     0
176
     1
290
     0
176
     1
290
     0
176
     1
290
     0
176
     1
 90
       50
176
     1
 40
0.0
176
     1
 40
1.0
176
     1
 90
        0
176
     1
 62
    18
420
        0
176
     1
 90
       50
176
     1
 90
        3
176
     1
 62
     5
420
      255
176
     1
290
     0
176
     1
 90
       50
176
     1
 90
       50
176
     1
 90
       50
176
     1
290
     0
176
     1
 90
       50
176
     1
 62
   256
176
     0
 40
1.0
176
     0
 90
        2
176
     1
  1
strokes_ogs.tif
176
     1
290
     0
176
     1
 40
1.0
176
     1
 40
1.0
176
     1
  0
VISUALSTYLE
  5
3F
102
{ACAD_REACTORS
330
2A
102
}
330
2A
100
AcDbVisualStyle
  2
Sketchy
 70
    24
177
     3
291
     0
 70
    58
 90
        1
176
     1
 90
        2
176
     1
 90
        2
176
     1
 90
        0
176
     1
 40
0.6
176
     1
 40
30.0
176
     1
 62
     7
420
 16777215
176
     1
 90
        2
176
     1
 90
        2
176
     1
 62
     7
176
     1
 62
     7
176
     1
 90
        1
176
     1
 90
        1
176
     1
 40
40.0
176
     1
 90
       11
176
     1
 62
     7
176
     1
 40
1.0
176
     1
 90
        1
176
     1
 90
        6
176
     1
 90
        2
176
     1
 62
     7
176
     1
 90
        6
176
     1
 90
        0
176
     1
 90
        0
176
     1
290
     0
176
     1
 90
        1
176
     1
 40
0.0
176
     1
 90
        0
176
     1
290
     0
176
     1
290
     1
176
     1
290
     1
176
     1
290
     0
176
     1
290
     0
176
     1
290
     0
176
     1
290
     0
176
     1
290
     0
176
     1
290
     0
176
     1
 90
       50
176
     1
 40
0.0
176
     1
 40
1.0
176
     1
 90
        0
176
     1
 62
    18
420
        0
176
     1
 90
       50
176
     1
 90
        3
176
     1
 62
     5
420
      255
176
     1
290
     0
176
     1
 90
       50
176
     1
 90
       50
176
     1
 90
       50
176
     1
290
     0
176
     1
 90
       50
176
     1
 62
   256
176
     0
 40
1.0
176
     0
 90
        2
176
     1
  1
strokes_ogs.tif
176
     1
290
     0
176
     1
 40
1.0
176
     1
 40
1.0
176
     1
  0
VISUALSTYLE
  5
37
102
{ACAD_REACTORS
330
2A
102
}
330
2A
100
AcDbVisualStyle
  2
Thicken
 70
    13
177
     3
291
     1
 70
    58
 90
        2
176
     1
 90
        2
176
     1
 90
        0
176
     1
 90
        0
176
     1
 40
0.6
176
     1
 40
30.0
176
     1
 62
     7
420
 16777215
176
     1
 90
        1
176
     1
 90
        4
176
     1
 62
     7
176
     1
 62
   257
176
     1
 90
        1
176
     1
 90
        1
176
     1
 40
1.0
176
     1
 90
       12
176
     1
 62
     7
176
     1
 40
1.0
176
     1
 90
        1
176
     1
 90
        6
176
     1
 90
        2
176
     1
 62
     7
176
     1
 90
        5
176
     1
 90
        0
176
     1
 90
        0
176
     1
290
     0
176
     1
 90
        1
176
     1
 40
0.0
176
     1
 90
        0
176
     1
290
     0
176
     1
290
     1
176
     1
290
     1
176
     1
290
     0
176
     1
290
     0
176
     1
290
     0
176
     1
290
     0
176
     1
290
     0
176
     1
290
     0
176
     1
 90
       50
176
     1
 40
0.0
176
     1
 40
1.0
176
     1
 90
        0
176
     1
 62
    18
420
        0
176
     1
 90
       50
176
     1
 90
        3
176
     1
 62
     5
420
      255
176
     1
290
     0
176
     1
 90
       50
176
     1
 90
       50
176
     1
 90
       50
176
     1
290
     0
176
     1
 90
       50
176
     1
 62
   256
176
     0
 40
1.0
176
     0
 90
        2
176
     1
  1
strokes_ogs.tif
176
     1
290
     0
176
     1
 40
1.0
176
     1
 40
1.0
176
     1
  0
VISUALSTYLE
  5
30
102
{ACAD_REACTORS
330
2A
102
}
330
2A
100
AcDbVisualStyle
  2
Wireframe
 70
     5
177
     3
291
     0
 70
    58
 90
        0
176
     1
 90
        2
176
     1
 90
        0
176
     1
 90
        0
176
     1
 40
0.6
176
     1
 40
30.0
176
     1
 62
     7
420
 16777215
176
     1
 90
        1
176
     1
 90
        4
176
     1
 62
     7
176
     1
 62
   257
176
     1
 90
        1
176
     1
 90
        1
176
     1
 40
1.0
176
     1
 90
        0
176
     1
 62
   257
176
     1
 40
1.0
176
     1
 90
        1
176
     1
 90
        6
176
     1
 90
        2
176
     1
 62
     7
176
     1
 90
        3
176
     1
 90
        0
176
     1
 90
        0
176
     1
290
     0
176
     1
 90
        1
176
     1
 40
0.0
176
     1
 90
        0
176
     1
290
     0
176
     1
290
     1
176
     1
290
     1
176
     1
290
     0
176
     1
290
     0
176
     1
290
     0
176
     1
290
     0
176
     1
290
     0
176
     1
290
     0
176
     1
 90
       50
176
     1
 40
0.0
176
     1
 40
1.0
176
     1
 90
        0
176
     1
 62
    18
420
        0
176
     1
 90
       50
176
     1
 90
        3
176
     1
 62
     5
420
      255
176
     1
290
     0
176
     1
 90
       50
176
     1
 90
       50
176
     1
 90
       50
176
     1
290
     0
176
     1
 90
       50
176
     1
 62
   256
176
     0
 40
1.0
176
     0
 90
        2
176
     1
  1
strokes_ogs.tif
176
     1
290
     0
176
     1
 40
1.0
176
     1
 40
1.0
176
     1
  0
VISUALSTYLE
  5
40
102
{ACAD_REACTORS
330
2A
102
}
330
2A
100
AcDbVisualStyle
  2
X-Ray
 70
    25
177
     3
291
     0
 70
    58
 90
        2
176
     1
 90
        2
176
     1
 90
        1
176
     1
 90
        1
176
     1
 40
0.5
176
     1
 40
30.0
176
     1
 62
     7
420
 16777215
176
     1
 90
        1
176
     1
 90
        0
176
     1
 62
     7
176
     1
 62
   257
176
     1
 90
        1
176
     1
 90
        1
176
     1
 40
1.0
176
     1
 90
        8
176
     1
 62
     7
176
     1
 40
1.0
176
     1
 90
        1
176
     1
 90
        6
176
     1
 90
        2
176
     1
 62
     7
176
     1
 90
        3
176
     1
 90
        0
176
     1
 90
        0
176
     1
290
     0
176
     1
 90
       13
176
     1
 40
0.0
176
     1
 90
        0
176
     1
290
     0
176
     1
290
     1
176
     1
290
     1
176
     1
290
     0
176
     1
290
     0
176
     1
290
     0
176
     1
290
     0
176
     1
290
     0
176
     1
290
     0
176
     1
 90
       50
176
     1
 40
0.0
176
     1
 40
1.0
176
     1
 90
        0
176
     1
 62
    18
420
        0
176
     1
 90
       50
176
     1
 90
        3
176
     1
 62
     5
420
      255
176
     1
290
     0
176
     1
 90
       50
176
     1
 90
       50
176
     1
 90
       50
176
     1
290
     0
176
     1
 90
       50
176
     1
 62
   256
176
     0
 40
1.0
176
     0
 90
        2
176
     1
  1
strokes_ogs.tif
176
     1
290
     0
176
     1
 40
1.0
176
     1
 40
1.0
176
     1
  0
DICTIONARYVAR
  5
2B0
102
{ACAD_REACTORS
330
2AF
102
}
330
2AF
100
DictionaryVariables
280
     0
  1
1:1
  0
DICTIONARYVAR
  5
2B8
102
{ACAD_REACTORS
330
2AF
102
}
330
2AF
100
DictionaryVariables
280
     0
  1
3.500000
  0
DICTIONARYVAR
  5
2B9
102
{ACAD_REACTORS
330
2AF
102
}
330
2AF
100
DictionaryVariables
280
     0
  1
acadiso.lin
  0
DICTIONARYVAR
  5
2B5
102
{ACAD_REACTORS
330
2AF
102
}
330
2AF
100
DictionaryVariables
280
     0
  1
Standard
  0
DICTIONARYVAR
  5
2B4
102
{ACAD_REACTORS
330
2AF
102
}
330
2AF
100
DictionaryVariables
280
     0
  1
Standard
  0
DICTIONARY
  5
2B1
330
5A
100
AcDbDictionary
280
     1
281
     1
  3
ACAD_ROUNDTRIP_2008_TABLESTYLE_CELLSTYLEMAP
360
2B2
  0
CELLSTYLEMAP
  5
2B2
102
{ACAD_REACTORS
330
2B1
102
}
330
2B1
100
AcDbCellStyleMap
 90
        3
300
CELLSTYLE
  1
TABLEFORMAT_BEGIN
 90
        5
170
     1
 91
        0
 92
    32768
 62
   257
 93
        1
300
CONTENTFORMAT
  1
CONTENTFORMAT_BEGIN
 90
        0
 91
        0
 92
        4
 93
        0
300

 40
0.0
140
1.0
 94
        5
 62
     0
340
11
144
6.0
309
CONTENTFORMAT_END
171
     1
301
MARGIN
  1
CELLMARGIN_BEGIN
 40
1.5
 40
1.5
 40
1.5
 40
1.5
 40
1.5
 40
1.5
309
CELLMARGIN_END
 94
        6
 95
        1
302
GRIDFORMAT
  1
GRIDFORMAT_BEGIN
 90
        0
 91
        1
 62
     0
 92
       -2
340
14
 93
        0
 40
0.045
309
GRIDFORMAT_END
 95
        2
302
GRIDFORMAT
  1
GRIDFORMAT_BEGIN
 90
        0
 91
        1
 62
     0
 92
       -2
340
14
 93
        0
 40
0.045
309
GRIDFORMAT_END
 95
        4
302
GRIDFORMAT
  1
GRIDFORMAT_BEGIN
 90
        0
 91
        1
 62
     0
 92
       -2
340
14
 93
        0
 40
0.045
309
GRIDFORMAT_END
 95
        8
302
GRIDFORMAT
  1
GRIDFORMAT_BEGIN
 90
        0
 91
        1
 62
     0
 92
       -2
340
14
 93
        0
 40
0.045
309
GRIDFORMAT_END
 95
       16
302
GRIDFORMAT
  1
GRIDFORMAT_BEGIN
 90
        0
 91
        1
 62
     0
 92
       -2
340
14
 93
        0
 40
0.045
309
GRIDFORMAT_END
 95
       32
302
GRIDFORMAT
  1
GRIDFORMAT_BEGIN
 90
        0
 91
        1
 62
     0
 92
       -2
340
14
 93
        0
 40
0.045
309
GRIDFORMAT_END
309
TABLEFORMAT_END
  1
CELLSTYLE_BEGIN
 90
        1
 91
        1
300
_TITLE
309
CELLSTYLE_END
300
CELLSTYLE
  1
TABLEFORMAT_BEGIN
 90
        5
170
     1
 91
        0
 92
        0
 62
   257
 93
        1
300
CONTENTFORMAT
  1
CONTENTFORMAT_BEGIN
 90
        0
 91
        0
 92
        4
 93
        0
300

 40
0.0
140
1.0
 94
        5
 62
     0
340
11
144
4.5
309
CONTENTFORMAT_END
171
     1
301
MARGIN
  1
CELLMARGIN_BEGIN
 40
1.5
 40
1.5
 40
1.5
 40
1.5
 40
1.5
 40
1.5
309
CELLMARGIN_END
 94
        6
 95
        1
302
GRIDFORMAT
  1
GRIDFORMAT_BEGIN
 90
        0
 91
        1
 62
     0
 92
       -2
340
14
 93
        0
 40
0.045
309
GRIDFORMAT_END
 95
        2
302
GRIDFORMAT
  1
GRIDFORMAT_BEGIN
 90
        0
 91
        1
 62
     0
 92
       -2
340
14
 93
        0
 40
0.045
309
GRIDFORMAT_END
 95
        4
302
GRIDFORMAT
  1
GRIDFORMAT_BEGIN
 90
        0
 91
        1
 62
     0
 92
       -2
340
14
 93
        0
 40
0.045
309
GRIDFORMAT_END
 95
        8
302
GRIDFORMAT
  1
GRIDFORMAT_BEGIN
 90
        0
 91
        1
 62
     0
 92
       -2
340
14
 93
        0
 40
0.045
309
GRIDFORMAT_END
 95
       16
302
GRIDFORMAT
  1
GRIDFORMAT_BEGIN
 90
        0
 91
        1
 62
     0
 92
       -2
340
14
 93
        0
 40
0.045
309
GRIDFORMAT_END
 95
       32
302
GRIDFORMAT
  1
GRIDFORMAT_BEGIN
 90
        0
 91
        1
 62
     0
 92
       -2
340
14
 93
        0
 40
0.045
309
GRIDFORMAT_END
309
TABLEFORMAT_END
  1
CELLSTYLE_BEGIN
 90
        2
 91
        1
300
_HEADER
309
CELLSTYLE_END
300
CELLSTYLE
  1
TABLEFORMAT_BEGIN
 90
        5
170
     1
 91
        0
 92
        0
 62
   257
 93
        1
300
CONTENTFORMAT
  1
CONTENTFORMAT_BEGIN
 90
        0
 91
        0
 92
        4
 93
        0
300

 40
0.0
140
1.0
 94
        2
 62
     0
340
11
144
4.5
309
CONTENTFORMAT_END
171
     1
301
MARGIN
  1
CELLMARGIN_BEGIN
 40
1.5
 40
1.5
 40
1.5
 40
1.5
 40
1.5
 40
1.5
309
CELLMARGIN_END
 94
        6
 95
        1
302
GRIDFORMAT
  1
GRIDFORMAT_BEGIN
 90
        0
 91
        1
 62
     0
 92
       -2
340
14
 93
        0
 40
0.045
309
GRIDFORMAT_END
 95
        2
302
GRIDFORMAT
  1
GRIDFORMAT_BEGIN
 90
        0
 91
        1
 62
     0
 92
       -2
340
14
 93
        0
 40
0.045
309
GRIDFORMAT_END
 95
        4
302
GRIDFORMAT
  1
GRIDFORMAT_BEGIN
 90
        0
 91
        1
 62
     0
 92
       -2
340
14
 93
        0
 40
0.045
309
GRIDFORMAT_END
 95
        8
302
GRIDFORMAT
  1
GRIDFORMAT_BEGIN
 90
        0
 91
        1
 62
     0
 92
       -2
340
14
 93
        0
 40
0.045
309
GRIDFORMAT_END
 95
       16
302
GRIDFORMAT
  1
GRIDFORMAT_BEGIN
 90
        0
 91
        1
 62
     0
 92
       -2
340
14
 93
        0
 40
0.045
309
GRIDFORMAT_END
 95
       32
302
GRIDFORMAT
  1
GRIDFORMAT_BEGIN
 90
        0
 91
        1
 62
     0
 92
       -2
340
14
 93
        0
 40
0.045
309
GRIDFORMAT_END
309
TABLEFORMAT_END
  1
CELLSTYLE_BEGIN
 90
        3
 91
        2
300
_DATA
309
CELLSTYLE_END
  0
ENDSEC
  0
EOF
