  0
SECTION
  2
HEADER
  9
$ACADVER
  1
AC1003
  9
$EXTMIN
 10
3.62551367319378
 20
10.9473494453819
  9
$EXTMAX
 10
11.681884497371
 20
1.36073527215351
  9
$INSUNITS
 70
1
  9
$INSBASE
 10
7.65369908528238
 20
6.1540423587677
999
Created with OMAX LAYOUT for Windows. (www.omax.com) 01/04/2026
  0
ENDSEC
  0
SECTION
  2
TABLES
  0
TABLE
  2
LAYER
 70
    10
  0
LAYER
  2
0
 70
     0
 62
     7
  6
CONTINUOUS
  0
LAYER
  2
1
 70
     0
 62
     7
  6
CONTINUOUS
  0
LAYER
  2
2
 70
     0
 62
     7
  6
CONTINUOUS
  0
LAYER
  2
3
 70
     0
 62
     7
  6
CONTINUOUS
  0
LAYER
  2
4
 70
     0
 62
     7
  6
CONTINUOUS
  0
LAYER
  2
5
 70
     0
 62
     7
  6
CONTINUOUS
  0
LAYER
  2
6
 70
     0
 62
     7
  6
CONTINUOUS
  0
LAYER
  2
7
 70
     0
 62
     7
  6
CONTINUOUS
  0
LAYER
  2
8
 70
     0
 62
     7
  6
CONTINUOUS
  0
LAYER
  2
9
 70
     0
 62
     7
  6
CONTINUOUS
  0
LAYER
  2
10
 70
     0
 62
     7
  6
CONTINUOUS
  0
LAYER
  2
11
 70
     0
 62
     7
  6
CONTINUOUS
  0
LAYER
  2
12
 70
     0
 62
     7
  6
CONTINUOUS
  0
LAYER
  2
13
 70
     0
 62
     7
  6
CONTINUOUS
  0
LAYER
  2
14
 70
     0
 62
     7
  6
CONTINUOUS
  0
LAYER
  2
15
 70
     0
 62
     7
  6
CONTINUOUS
  0
LAYER
  2
16
 70
     0
 62
     7
  6
CONTINUOUS
  0
LAYER
  2
17
 70
     0
 62
     7
  6
CONTINUOUS
  0
LAYER
  2
18
 70
     0
 62
     7
  6
CONTINUOUS
  0
LAYER
  2
19
 70
     0
 62
     7
  6
CONTINUOUS
  0
LAYER
  2
20
 70
     0
 62
     7
  6
CONTINUOUS
  0
LAYER
  2
21
 70
     0
 62
     7
  6
CONTINUOUS
  0
LAYER
  2
22
 70
     0
 62
     7
  6
CONTINUOUS
  0
LAYER
  2
23
 70
     0
 62
     7
  6
CONTINUOUS
  0
LAYER
  2
24
 70
     0
 62
     7
  6
CONTINUOUS
  0
LAYER
  2
25
 70
     0
 62
     7
  6
CONTINUOUS
  0
LAYER
  2
26
 70
     0
 62
     7
  6
CONTINUOUS
  0
LAYER
  2
27
 70
     0
 62
     7
  6
CONTINUOUS
  0
LAYER
  2
28
 70
     0
 62
     7
  6
CONTINUOUS
  0
LAYER
  2
29
 70
     0
 62
     7
  6
CONTINUOUS
  0
LAYER
  2
30
 70
     0
 62
     7
  6
CONTINUOUS
  0
LAYER
  2
31
 70
     0
 62
     7
  6
CONTINUOUS
  0
ENDTAB
  0
ENDSEC
  0
SECTION
  2
ENTITIES
  0
LINE
  8
0
  6
CONTINUOUS
 62
0
 10
11.681783590885
 20
10.9473494453819
 30
0.0
 11
11.6816443488696
 21
10.8473495423236
 31
0.0
  0
LINE
  8
0
  6
CONTINUOUS
 62
0
 10
11.6816443488696
 20
10.8473495423236
 30
0.0
 11
11.6812031557962
 21
10.530496439874
 31
0.0
  0
LINE
  8
0
  6
CONTINUOUS
 62
0
 10
11.6812031557955
 20
10.530496439876
 30
0.0
 11
10.731887041619
 21
10.4552234611299
 31
0.0
  0
LINE
  8
0
  6
CONTINUOUS
 62
0
 10
10.731887041619
 20
10.4552234611299
 30
0.0
 11
9.25550908886309
 21
10.5536486579803
 31
0.0
  0
LINE
  8
0
  6
CONTINUOUS
 62
0
 10
9.25550908886309
 20
10.5536486579803
 30
0.0
 11
9.27403507690639
 21
3.27287246633857
 31
0.0
  0
LINE
  8
0
  6
CONTINUOUS
 62
0
 10
9.27403507690639
 20
3.27287246633857
 30
0.0
 11
9.80251514614655
 21
2.96775435610235
 31
0.0
  0
LINE
  8
0
  6
CONTINUOUS
 62
0
 10
9.80251514614655
 20
2.96775435610234
 30
0.0
 11
10.0564521540206
 21
2.79058900177164
 31
0.0
  0
LINE
  8
0
  6
CONTINUOUS
 62
0
 10
10.0564521540206
 20
2.79058900177164
 30
0.0
 11
10.3309952153828
 21
3.27287246633857
 31
0.0
  0
LINE
  8
0
  6
CONTINUOUS
 62
0
 10
10.3309952153828
 20
3.27287246633857
 30
0.0
 11
9.95999546110719
 21
3.57799057657479
 31
0.0
  0
LINE
  8
0
  6
CONTINUOUS
 62
0
 10
9.95999546110719
 20
3.57799057657478
 30
0.0
 11
10.3309952153828
 21
3.88310868681101
 31
0.0
  0
LINE
  8
0
  6
CONTINUOUS
 62
0
 10
10.3309952153828
 20
3.88310868681101
 30
0.0
 11
10.0564521540206
 21
4.36539215137794
 31
0.0
  0
LINE
  8
0
  6
CONTINUOUS
 62
0
 10
10.0564521540206
 20
4.36539215137794
 30
0.0
 11
9.80251514614655
 21
4.18822679704723
 31
0.0
  0
LINE
  8
0
  6
CONTINUOUS
 62
0
 10
9.80251514614655
 20
4.18822679704723
 30
0.0
 11
9.2740350769064
 21
3.88310868681101
 31
0.0
  0
LINE
  8
0
  6
CONTINUOUS
 62
0
 10
9.2740350769064
 20
3.88310868681101
 30
0.0
 11
4.70819083854813
 21
1.7544360595551
 31
0.0
  0
LINE
  8
0
  6
CONTINUOUS
 62
0
 10
4.70819083854813
 20
1.7544360595551
 30
0.0
 11
4.63929320075285
 21
2.54183763435825
 31
0.0
  0
LINE
  8
0
  6
CONTINUOUS
 62
0
 10
4.63929320075285
 20
2.54183763435825
 30
0.0
 11
4.70819083854813
 21
3.3292392091614
 31
0.0
  0
LINE
  8
0
  6
CONTINUOUS
 62
0
 10
4.70819083854813
 20
3.3292392091614
 30
0.0
 11
7.39543726417657
 21
6.51019401456397
 31
0.0
  0
LINE
  8
0
  6
CONTINUOUS
 62
0
 10
5.8886882443146
 20
4.0048663637469
 30
0.0
 11
5.83959678878191
 21
3.99537800278824
 31
0.0
  0
LINE
  8
0
  6
CONTINUOUS
 62
0
 10
7.34555594575552
 20
6.50675104018438
 30
0.0
 11
8.68916131071082
 21
9.16463497249357
 31
0.0
  0
LINE
  8
0
  6
CONTINUOUS
 62
0
 10
7.96269938232134
 20
7.24154252637795
 30
0.0
 11
7.91281806390032
 21
7.23809955199795
 31
0.0
  0
LINE
  8
0
  6
CONTINUOUS
 62
0
 10
8.63927999228975
 20
9.16119199811436
 30
0.0
 11
10.3670779932576
 21
6.71530653404277
 31
0.0
  0
LINE
  8
0
  6
CONTINUOUS
 62
0
 10
9.76043066146446
 20
4.75319393306481
 30
0.0
 11
9.71133920593183
 21
4.74370557210582
 31
0.0
  0
LINE
  8
0
  6
CONTINUOUS
 62
0
 10
10.3171966748366
 20
6.71186355966293
 30
0.0
 11
10.2125572746825
 21
9.26978482499144
 31
0.0
  0
LINE
  8
0
  6
CONTINUOUS
 62
0
 10
10.5301547862619
 20
7.41875683139229
 30
0.0
 11
10.4802734678409
 21
7.41531385701244
 31
0.0
  0
LINE
  8
0
  6
CONTINUOUS
 62
0
 10
10.1626759562615
 20
9.26634185061189
 30
0.0
 11
11.6816443488696
 21
10.8473495423236
 31
0.0
  0
LINE
  8
3
  6
CONTINUOUS
 62
3
 10
7.39543726417657
 20
6.51019401456397
 30
0.0
 11
7.3919942897972
 21
6.56007533298503
 31
0.0
  0
LINE
  8
3
  6
CONTINUOUS
 62
3
 10
5.89817660527331
 20
3.95577490821422
 30
0.0
 11
5.8886882443146
 21
4.0048663637469
 31
0.0
  0
LINE
  8
3
  6
CONTINUOUS
 62
3
 10
5.83959678878191
 20
3.99537800278824
 30
0.0
 11
5.84908514974062
 21
3.94628654725556
 31
0.0
  0
LINE
  8
3
  6
CONTINUOUS
 62
3
 10
7.34211297137616
 20
6.55663235860543
 30
0.0
 11
7.34555594575552
 21
6.50675104018438
 31
0.0
  0
LINE
  8
3
  6
CONTINUOUS
 62
3
 10
8.68916131071082
 20
9.16463497249357
 30
0.0
 11
8.6857183363314
 21
9.21451629091462
 31
0.0
  0
LINE
  8
3
  6
CONTINUOUS
 62
3
 10
7.96614235670115
 20
7.19166120795692
 30
0.0
 11
7.96269938232134
 21
7.24154252637795
 31
0.0
  0
LINE
  8
3
  6
CONTINUOUS
 62
3
 10
7.91281806390032
 20
7.23809955199795
 30
0.0
 11
7.91626103828014
 21
7.18821823357693
 31
0.0
  0
LINE
  8
3
  6
CONTINUOUS
 62
3
 10
8.63583701791033
 20
9.21107331653542
 30
0.0
 11
8.63927999228975
 21
9.16119199811436
 31
0.0
  0
LINE
  8
3
  6
CONTINUOUS
 62
3
 10
10.3670779932576
 20
6.71530653404277
 30
0.0
 11
10.3636350188774
 21
6.76518785246377
 31
0.0
  0
LINE
  8
3
  6
CONTINUOUS
 62
3
 10
9.76991902242359
 20
4.70410247753221
 30
0.0
 11
9.76043066146446
 21
4.75319393306481
 31
0.0
  0
LINE
  8
3
  6
CONTINUOUS
 62
3
 10
9.71133920593183
 20
4.74370557210582
 30
0.0
 11
9.72082756689097
 21
4.69461411657322
 31
0.0
  0
LINE
  8
3
  6
CONTINUOUS
 62
3
 10
10.3137537004564
 20
6.76174487808392
 30
0.0
 11
10.3171966748366
 21
6.71186355966293
 31
0.0
  0
LINE
  8
3
  6
CONTINUOUS
 62
3
 10
10.2125572746825
 20
9.26978482499144
 30
0.0
 11
10.2091143003031
 21
9.31966614341249
 31
0.0
  0
LINE
  8
3
  6
CONTINUOUS
 62
3
 10
10.5335977606422
 20
7.36887551297129
 30
0.0
 11
10.5301547862619
 21
7.41875683139229
 31
0.0
  0
LINE
  8
3
  6
CONTINUOUS
 62
3
 10
10.4802734678409
 20
7.41531385701244
 30
0.0
 11
10.4837164422211
 21
7.36543253859144
 31
0.0
  0
LINE
  8
3
  6
CONTINUOUS
 62
3
 10
10.1592329818821
 20
9.31622316903294
 30
0.0
 11
10.1626759562615
 21
9.26634185061189
 31
0.0
  0
LINE
  8
7
  6
CONTINUOUS
 62
7
 10
11.6812031557962
 20
10.530496439874
 30
0.0
 11
11.6767689313828
 21
10.4552234611299
 31
0.0
  0
LINE
  8
7
  6
CONTINUOUS
 62
7
 10
11.6767689313828
 20
10.4552234611299
 30
0.0
 11
11.3497296889221
 21
3.60714287732675
 31
0.0
  0
LINE
  8
7
  6
CONTINUOUS
 62
7
 10
11.3497296889221
 20
3.60714287732675
 30
0.0
 11
11.3179033501859
 21
3.60714287732675
 31
0.0
  0
ARC
  8
7
  6
CONTINUOUS
 62
7
 10
10.1371608154379
 20
3.57799057657479
 30
0.0
 40
1.18110236220473
 50
280.999999999999
 51
1.41433417780008
  0
LINE
  8
7
  6
CONTINUOUS
 62
7
 10
10.3625257706032
 20
2.41858839140156
 30
0.0
 11
5.03198099056781
 21
1.38243544918502
 31
0.0
  0
ARC
  8
7
  6
CONTINUOUS
 62
7
 10
4.80661603539852
 20
2.54183763435824
 30
0.0
 40
1.18110236220473
 50
152.655491310199
 51
280.999999999999
  0
LINE
  8
7
  6
CONTINUOUS
 62
7
 10
3.75748925394576
 20
3.08436485620471
 30
0.0
 11
3.81716510751269
 21
3.19976466225982
 31
0.0
  0
LINE
  8
7
  6
CONTINUOUS
 62
7
 10
3.81716510751269
 20
3.19976466225982
 30
0.0
 11
3.81716510751269
 21
3.18681023168896
 31
0.0
  0
LINE
  8
7
  6
CONTINUOUS
 62
7
 10
3.81716510751269
 20
3.18681023168896
 30
0.0
 11
8.75937294540639
 21
10.7686395237559
 31
0.0
  0
ARC
  8
7
  6
CONTINUOUS
 62
7
 10
9.08918992136702
 20
10.5536486579803
 30
0.0
 40
0.393700787401574
 50
89.9999999999996
 51
146.9017209344
  0
LINE
  8
7
  6
CONTINUOUS
 62
7
 10
9.08918992136702
 20
10.9473494453819
 30
0.0
 11
11.2881837099694
 21
10.9473494453819
 31
0.0
  0
ARC
  8
7
  6
CONTINUOUS
 62
7
 10
11.2881837099694
 20
10.5536486579803
 30
0.0
 40
0.393700787401575
 50
356.628683031899
 51
89.9999999999997
  0
ARC
  8
7
  6
CONTINUOUS
 62
7
 10
10.8303122384694
 20
10.4552234611299
 30
0.0
 40
0.0984251968503962
 50
359.999999999998
 51
180
  0
ARC
  8
7
  6
CONTINUOUS
 62
7
 10
10.8303122384694
 20
10.4552234611299
 30
0.0
 40
0.0984251968503962
 50
179.999999999999
 51
359.999999999999
  0
LINE
  8
7
  6
CONTINUOUS
 62
7
 10
9.25550908886309
 20
10.5536486579803
 30
0.0
 11
9.45235948256387
 21
10.5536486579803
 31
0.0
  0
ARC
  8
7
  6
CONTINUOUS
 62
7
 10
9.45235948256387
 20
10.4552234611299
 30
0.0
 40
0.0984251968503909
 50
270
 51
90.0000000000004
  0
LINE
  8
7
  6
CONTINUOUS
 62
7
 10
9.45235948256387
 20
10.3567982642795
 30
0.0
 11
9.25550908886309
 21
10.3567982642795
 31
0.0
  0
ARC
  8
7
  6
CONTINUOUS
 62
7
 10
9.25550908886309
 20
10.4552234611299
 30
0.0
 40
0.0984251968503962
 50
90
 51
270
  0
ARC
  8
7
  6
CONTINUOUS
 62
7
 10
9.33309019501663
 20
3.27287246633857
 30
0.0
 40
0.0590551181102388
 50
359.999999999999
 51
180
  0
ARC
  8
7
  6
CONTINUOUS
 62
7
 10
9.33309019501663
 20
3.27287246633857
 30
0.0
 40
0.0590551181102388
 50
179.999999999999
 51
359.999999999999
  0
ARC
  8
7
  6
CONTINUOUS
 62
7
 10
9.86157026425679
 20
2.96775435610235
 30
0.0
 40
0.0590551181102352
 50
359.999999999999
 51
180
  0
ARC
  8
7
  6
CONTINUOUS
 62
7
 10
9.86157026425679
 20
2.96775435610234
 30
0.0
 40
0.0590551181102352
 50
179.999999999999
 51
359.999999999999
  0
ARC
  8
7
  6
CONTINUOUS
 62
7
 10
10.1371608154379
 20
2.79058900177164
 30
0.0
 40
0.0807086614173222
 50
359.999999999998
 51
180
  0
ARC
  8
7
  6
CONTINUOUS
 62
7
 10
10.1371608154379
 20
2.79058900177164
 30
0.0
 40
0.0807086614173222
 50
179.999999999999
 51
359.999999999999
  0
ARC
  8
7
  6
CONTINUOUS
 62
7
 10
10.390050333493
 20
3.27287246633857
 30
0.0
 40
0.0590551181102388
 50
359.999999999999
 51
180
  0
ARC
  8
7
  6
CONTINUOUS
 62
7
 10
10.390050333493
 20
3.27287246633857
 30
0.0
 40
0.0590551181102388
 50
179.999999999999
 51
359.999999999999
  0
ARC
  8
7
  6
CONTINUOUS
 62
7
 10
10.1371608154379
 20
3.57799057657479
 30
0.0
 40
0.177165354330709
 50
359.999999999998
 51
180
  0
ARC
  8
7
  6
CONTINUOUS
 62
7
 10
10.1371608154379
 20
3.57799057657478
 30
0.0
 40
0.177165354330709
 50
179.999999999999
 51
359.999999999999
  0
ARC
  8
7
  6
CONTINUOUS
 62
7
 10
10.390050333493
 20
3.88310868681101
 30
0.0
 40
0.0590551181102335
 50
359.999999999999
 51
180
  0
ARC
  8
7
  6
CONTINUOUS
 62
7
 10
10.390050333493
 20
3.88310868681101
 30
0.0
 40
0.0590551181102335
 50
179.999999999999
 51
359.999999999999
  0
ARC
  8
7
  6
CONTINUOUS
 62
7
 10
10.1371608154379
 20
4.36539215137794
 30
0.0
 40
0.080708661417324
 50
359.999999999998
 51
180
  0
ARC
  8
7
  6
CONTINUOUS
 62
7
 10
10.1371608154379
 20
4.36539215137794
 30
0.0
 40
0.080708661417324
 50
179.999999999999
 51
359.999999999999
  0
ARC
  8
7
  6
CONTINUOUS
 62
7
 10
9.86157026425679
 20
4.18822679704723
 30
0.0
 40
0.0590551181102388
 50
359.999999999999
 51
180
  0
ARC
  8
7
  6
CONTINUOUS
 62
7
 10
9.86157026425679
 20
4.18822679704723
 30
0.0
 40
0.0590551181102388
 50
179.999999999999
 51
359.999999999999
  0
ARC
  8
7
  6
CONTINUOUS
 62
7
 10
9.33309019501663
 20
3.88310868681101
 30
0.0
 40
0.0590551181102335
 50
359.999999999999
 51
180
  0
ARC
  8
7
  6
CONTINUOUS
 62
7
 10
9.33309019501663
 20
3.88310868681101
 30
0.0
 40
0.0590551181102335
 50
179.999999999999
 51
359.999999999999
  0
ARC
  8
7
  6
CONTINUOUS
 62
7
 10
4.80661603539852
 20
1.7544360595551
 30
0.0
 40
0.0984251968503944
 50
359.999999999998
 51
180
  0
ARC
  8
7
  6
CONTINUOUS
 62
7
 10
4.80661603539852
 20
1.7544360595551
 30
0.0
 40
0.0984251968503944
 50
179.999999999999
 51
359.999999999999
  0
ARC
  8
7
  6
CONTINUOUS
 62
7
 10
4.80661603539852
 20
2.54183763435825
 30
0.0
 40
0.167322834645673
 50
359.999999999998
 51
180
  0
ARC
  8
7
  6
CONTINUOUS
 62
7
 10
4.80661603539852
 20
2.54183763435825
 30
0.0
 40
0.167322834645673
 50
179.999999999999
 51
359.999999999999
  0
ARC
  8
7
  6
CONTINUOUS
 62
7
 10
4.80661603539852
 20
3.3292392091614
 30
0.0
 40
0.0984251968503944
 50
359.999999999998
 51
180
  0
ARC
  8
7
  6
CONTINUOUS
 62
7
 10
4.80661603539852
 20
3.3292392091614
 30
0.0
 40
0.0984251968503944
 50
179.999999999999
 51
359.999999999999
  0
LINE
  8
7
  6
CONTINUOUS
 62
7
 10
7.3919942897972
 20
6.56007533298503
 30
0.0
 11
7.41532258506387
 21
6.56168552945668
 31
0.0
  0
ARC
  8
7
  6
CONTINUOUS
 62
7
 10
7.44243261955206
 20
6.16891924267715
 30
0.0
 40
0.393700787401575
 50
334.108411208198
 51
93.9484825943996
  0
LINE
  8
7
  6
CONTINUOUS
 62
7
 10
7.79661446726466
 20
5.99700202786219
 30
0.0
 11
6.98581732099301
 21
4.32660717126376
 31
0.0
  0
ARC
  8
7
  6
CONTINUOUS
 62
7
 10
6.63163547328041
 20
4.49852438608266
 30
0.0
 40
0.393700787401577
 50
280.9391996917
 51
334.108411208199
  0
LINE
  8
7
  6
CONTINUOUS
 62
7
 10
6.70634697689065
 20
4.11197749212203
 30
0.0
 11
5.89817660527331
 21
3.95577490821422
 31
0.0
  0
LINE
  8
7
  6
CONTINUOUS
 62
7
 10
5.84908514974062
 20
3.94628654725556
 30
0.0
 11
5.80872174418198
 21
3.93848513747242
 31
0.0
  0
ARC
  8
7
  6
CONTINUOUS
 62
7
 10
5.73401024056781
 20
4.32503203142911
 30
0.0
 40
0.393700787401581
 50
146.901720934399
 51
280.9391996917
  0
LINE
  8
7
  6
CONTINUOUS
 62
7
 10
5.40419326460718
 20
4.54002289720864
 30
0.0
 11
6.58226745670167
 21
6.34730371396455
 31
0.0
  0
ARC
  8
7
  6
CONTINUOUS
 62
7
 10
6.9120844326623
 20
6.13231284818502
 30
0.0
 40
0.393700787401578
 50
93.9484825943998
 51
146.9017209344
  0
LINE
  8
7
  6
CONTINUOUS
 62
7
 10
6.88497439817805
 20
6.52507913496849
 30
0.0
 11
7.34211297137616
 21
6.55663235860543
 31
0.0
  0
LINE
  8
7
  6
CONTINUOUS
 62
7
 10
8.6857183363314
 20
9.21451629091462
 30
0.0
 11
8.70358536390639
 21
9.21574953253935
 31
0.0
  0
ARC
  8
7
  6
CONTINUOUS
 62
7
 10
8.73069539839065
 20
8.82298324575983
 30
0.0
 40
0.393700787401575
 50
334.108411208198
 51
93.9484825943996
  0
LINE
  8
7
  6
CONTINUOUS
 62
7
 10
9.08487724610718
 20
8.65106603094486
 30
0.0
 11
8.49029442510324
 21
7.42611341413778
 31
0.0
  0
ARC
  8
7
  6
CONTINUOUS
 62
7
 10
8.13611257738671
 20
7.59803062895274
 30
0.0
 40
0.393700787401573
 50
273.948482594399
 51
334.108411208199
  0
LINE
  8
7
  6
CONTINUOUS
 62
7
 10
8.1632226118749
 20
7.20526434217321
 30
0.0
 11
7.96614235670115
 21
7.19166120795692
 31
0.0
  0
LINE
  8
7
  6
CONTINUOUS
 62
7
 10
7.91626103828014
 20
7.18821823357693
 30
0.0
 11
7.88196664700876
 21
7.18585112071258
 31
0.0
  0
ARC
  8
7
  6
CONTINUOUS
 62
7
 10
7.85485661252056
 20
7.5786174074921
 30
0.0
 40
0.393700787401576
 50
146.901720934399
 51
273.948482594399
  0
LINE
  8
7
  6
CONTINUOUS
 62
7
 10
7.52503963655994
 20
7.79360827327164
 30
0.0
 11
8.33313007643395
 21
9.03329789553148
 31
0.0
  0
ARC
  8
7
  6
CONTINUOUS
 62
7
 10
8.66294705239852
 20
8.81830702975589
 30
0.0
 40
0.39370078740158
 50
93.9484825943994
 51
146.9017209344
  0
LINE
  8
7
  6
CONTINUOUS
 62
7
 10
10.3636350188774
 20
6.76518785246377
 30
0.0
 11
10.4696550033513
 21
6.77250570415353
 31
0.0
  0
ARC
  8
7
  6
CONTINUOUS
 62
7
 10
10.4967650378395
 20
6.379739417374
 30
0.0
 40
0.393700787401572
 50
357.265840766099
 51
93.9484825943996
  0
LINE
  8
7
  6
CONTINUOUS
 62
7
 10
10.8900176413788
 20
6.36095911361416
 30
0.0
 11
10.8300493337725
 21
5.1052449679488
 31
0.0
  0
ARC
  8
7
  6
CONTINUOUS
 62
7
 10
10.4367967302332
 20
5.12402527171258
 30
0.0
 40
0.393700787401577
 50
259.0315281853
 51
357.2658407661
  0
ARC
  8
7
  6
CONTINUOUS
 62
7
 10
10.1371608154379
 20
3.57799057657479
 30
0.0
 40
1.18110236220471
 50
79.0315281852995
 51
95.2771374964994
  0
LINE
  8
7
  6
CONTINUOUS
 62
7
 10
10.0285309806741
 20
4.75408680946061
 30
0.0
 11
9.76991902242359
 21
4.70410247753221
 31
0.0
  0
LINE
  8
7
  6
CONTINUOUS
 62
7
 10
9.72082756689097
 20
4.69461411657322
 30
0.0
 11
9.63697458149695
 21
4.67840707230707
 31
0.0
  0
ARC
  8
7
  6
CONTINUOUS
 62
7
 10
9.56226307788671
 20
5.0649539662677
 30
0.0
 40
0.393700787401577
 50
171.540042517499
 51
280.939199691699
  0
LINE
  8
7
  6
CONTINUOUS
 62
7
 10
9.1728461794812
 20
5.12287450872439
 30
0.0
 11
9.36073796762687
 21
6.38612644438975
 31
0.0
  0
ARC
  8
7
  6
CONTINUOUS
 62
7
 10
9.75015486602844
 20
6.32820590192912
 30
0.0
 40
0.393700787401577
 50
93.9484825943995
 51
171.5400425175
  0
LINE
  8
7
  6
CONTINUOUS
 62
7
 10
9.72304483154419
 20
6.72097218870864
 30
0.0
 11
10.3137537004564
 21
6.76174487808392
 31
0.0
  0
LINE
  8
7
  6
CONTINUOUS
 62
7
 10
10.2091143003031
 20
9.31966614341249
 30
0.0
 11
10.5925620141623
 21
9.3461329790236
 31
0.0
  0
ARC
  8
7
  6
CONTINUOUS
 62
7
 10
10.6196720486505
 20
8.95336669224408
 30
0.0
 40
0.393700787401574
 50
357.265840766098
 51
93.9484825943996
  0
LINE
  8
7
  6
CONTINUOUS
 62
7
 10
11.0129246521899
 20
8.93458638848423
 30
0.0
 11
10.9561983395088
 21
7.74675841546455
 31
0.0
  0
ARC
  8
7
  6
CONTINUOUS
 62
7
 10
10.5629457359655
 20
7.76553871922833
 30
0.0
 40
0.393700787401576
 50
273.948482594399
 51
357.265840766099
  0
LINE
  8
7
  6
CONTINUOUS
 62
7
 10
10.5900557704536
 20
7.3727724324488
 30
0.0
 11
10.5335977606422
 21
7.36887551297129
 31
0.0
  0
LINE
  8
7
  6
CONTINUOUS
 62
7
 10
10.4837164422211
 20
7.36543253859144
 30
0.0
 11
9.98483551676466
 21
7.33099811906691
 31
0.0
  0
ARC
  8
7
  6
CONTINUOUS
 62
7
 10
9.95772548227647
 20
7.72376440584643
 30
0.0
 40
0.393700787401575
 50
171.540042517499
 51
273.948482594399
  0
LINE
  8
7
  6
CONTINUOUS
 62
7
 10
9.56830858387096
 20
7.78168494830313
 30
0.0
 11
9.74622625494183
 21
8.9778779516614
 31
0.0
  0
ARC
  8
7
  6
CONTINUOUS
 62
7
 10
10.1356431533434
 20
8.91995740920471
 30
0.0
 40
0.393700787401575
 50
93.9484825943997
 51
171.5400425175
  0
LINE
  8
7
  6
CONTINUOUS
 62
7
 10
10.1085331188552
 20
9.31272369598424
 30
0.0
 11
10.1592329818821
 21
9.31622316903294
 31
0.0
  0
ENDSEC
  0
EOF
